<mxfile host="www.draw.io" modified="2020-01-07T12:35:10.106Z" agent="Mozilla/5.0 (Macintosh; Intel Mac OS X 10_10_5) AppleWebKit/537.36 (KHTML, like Gecko) Chrome/78.0.3904.97 Safari/537.36" etag="gtLLCRjaYI-EoSZdrQO2" version="12.4.8" type="github" pages="4">
  <diagram id="jsx7okBiRUJiMhCPxhV5" name="データ要件_非正規形">
    <mxGraphModel dx="872" dy="513" grid="1" gridSize="10" guides="1" tooltips="1" connect="1" arrows="1" fold="1" page="1" pageScale="1" pageWidth="827" pageHeight="1169" math="0" shadow="0">
      <root>
        <mxCell id="0"/>
        <mxCell id="1" parent="0"/>
        <mxCell id="zO15JwaB6BqO8NoOxL15-1" value="商品" style="swimlane;fontStyle=0;childLayout=stackLayout;horizontal=1;startSize=26;fillColor=#e0e0e0;horizontalStack=0;resizeParent=1;resizeParentMax=0;resizeLast=0;collapsible=1;marginBottom=0;swimlaneFillColor=#ffffff;align=center;fontSize=14;" parent="1" vertex="1">
          <mxGeometry x="50" y="39" width="210" height="382" as="geometry"/>
        </mxCell>
        <mxCell id="zO15JwaB6BqO8NoOxL15-2" value="商品id " style="shape=partialRectangle;top=0;left=0;right=0;bottom=1;align=left;verticalAlign=middle;fillColor=none;spacingLeft=34;spacingRight=4;overflow=hidden;rotatable=0;points=[[0,0.5],[1,0.5]];portConstraint=eastwest;dropTarget=0;fontStyle=5;fontSize=12;" parent="zO15JwaB6BqO8NoOxL15-1" vertex="1">
          <mxGeometry y="26" width="210" height="30" as="geometry"/>
        </mxCell>
        <mxCell id="zO15JwaB6BqO8NoOxL15-3" value="PK" style="shape=partialRectangle;top=0;left=0;bottom=0;fillColor=none;align=left;verticalAlign=middle;spacingLeft=4;spacingRight=4;overflow=hidden;rotatable=0;points=[];portConstraint=eastwest;part=1;fontSize=12;" parent="zO15JwaB6BqO8NoOxL15-2" vertex="1" connectable="0">
          <mxGeometry width="30" height="30" as="geometry"/>
        </mxCell>
        <mxCell id="o5mcDAx5EhLU5ZYAM4gU-9" value="レーベルid" style="shape=partialRectangle;top=0;left=0;right=0;bottom=1;align=left;verticalAlign=middle;fillColor=none;spacingLeft=34;spacingRight=4;overflow=hidden;rotatable=0;points=[[0,0.5],[1,0.5]];portConstraint=eastwest;dropTarget=0;fontStyle=5;fontSize=12;" parent="zO15JwaB6BqO8NoOxL15-1" vertex="1">
          <mxGeometry y="56" width="210" height="30" as="geometry"/>
        </mxCell>
        <mxCell id="o5mcDAx5EhLU5ZYAM4gU-10" value="PK" style="shape=partialRectangle;top=0;left=0;bottom=0;fillColor=none;align=left;verticalAlign=middle;spacingLeft=4;spacingRight=4;overflow=hidden;rotatable=0;points=[];portConstraint=eastwest;part=1;fontSize=12;" parent="o5mcDAx5EhLU5ZYAM4gU-9" vertex="1" connectable="0">
          <mxGeometry width="30" height="30" as="geometry"/>
        </mxCell>
        <mxCell id="zO15JwaB6BqO8NoOxL15-4" value="アーティストid" style="shape=partialRectangle;top=0;left=0;right=0;bottom=0;align=left;verticalAlign=top;fillColor=none;spacingLeft=34;spacingRight=4;overflow=hidden;rotatable=0;points=[[0,0.5],[1,0.5]];portConstraint=eastwest;dropTarget=0;fontSize=12;" parent="zO15JwaB6BqO8NoOxL15-1" vertex="1">
          <mxGeometry y="86" width="210" height="26" as="geometry"/>
        </mxCell>
        <mxCell id="zO15JwaB6BqO8NoOxL15-5" value="FK" style="shape=partialRectangle;top=0;left=0;bottom=0;fillColor=none;align=left;verticalAlign=top;spacingLeft=4;spacingRight=4;overflow=hidden;rotatable=0;points=[];portConstraint=eastwest;part=1;fontSize=12;" parent="zO15JwaB6BqO8NoOxL15-4" vertex="1" connectable="0">
          <mxGeometry width="30" height="26" as="geometry"/>
        </mxCell>
        <mxCell id="o5mcDAx5EhLU5ZYAM4gU-3" value="アーティスト名" style="shape=partialRectangle;top=0;left=0;right=0;bottom=0;align=left;verticalAlign=top;fillColor=none;spacingLeft=34;spacingRight=4;overflow=hidden;rotatable=0;points=[[0,0.5],[1,0.5]];portConstraint=eastwest;dropTarget=0;fontSize=12;" parent="zO15JwaB6BqO8NoOxL15-1" vertex="1">
          <mxGeometry y="112" width="210" height="26" as="geometry"/>
        </mxCell>
        <mxCell id="o5mcDAx5EhLU5ZYAM4gU-4" value="" style="shape=partialRectangle;top=0;left=0;bottom=0;fillColor=none;align=left;verticalAlign=top;spacingLeft=4;spacingRight=4;overflow=hidden;rotatable=0;points=[];portConstraint=eastwest;part=1;fontSize=12;" parent="o5mcDAx5EhLU5ZYAM4gU-3" vertex="1" connectable="0">
          <mxGeometry width="30" height="26" as="geometry"/>
        </mxCell>
        <mxCell id="o5mcDAx5EhLU5ZYAM4gU-7" value="レーベル名" style="shape=partialRectangle;top=0;left=0;right=0;bottom=0;align=left;verticalAlign=top;fillColor=none;spacingLeft=34;spacingRight=4;overflow=hidden;rotatable=0;points=[[0,0.5],[1,0.5]];portConstraint=eastwest;dropTarget=0;fontSize=12;" parent="zO15JwaB6BqO8NoOxL15-1" vertex="1">
          <mxGeometry y="138" width="210" height="26" as="geometry"/>
        </mxCell>
        <mxCell id="o5mcDAx5EhLU5ZYAM4gU-8" value="" style="shape=partialRectangle;top=0;left=0;bottom=0;fillColor=none;align=left;verticalAlign=top;spacingLeft=4;spacingRight=4;overflow=hidden;rotatable=0;points=[];portConstraint=eastwest;part=1;fontSize=12;" parent="o5mcDAx5EhLU5ZYAM4gU-7" vertex="1" connectable="0">
          <mxGeometry width="30" height="26" as="geometry"/>
        </mxCell>
        <mxCell id="zO15JwaB6BqO8NoOxL15-12" value="ディスク番号" style="shape=partialRectangle;top=0;left=0;right=0;bottom=0;align=left;verticalAlign=top;fillColor=none;spacingLeft=34;spacingRight=4;overflow=hidden;rotatable=0;points=[[0,0.5],[1,0.5]];portConstraint=eastwest;dropTarget=0;fontSize=12;" parent="zO15JwaB6BqO8NoOxL15-1" vertex="1">
          <mxGeometry y="164" width="210" height="26" as="geometry"/>
        </mxCell>
        <mxCell id="zO15JwaB6BqO8NoOxL15-13" value="" style="shape=partialRectangle;top=0;left=0;bottom=0;fillColor=none;align=left;verticalAlign=top;spacingLeft=4;spacingRight=4;overflow=hidden;rotatable=0;points=[];portConstraint=eastwest;part=1;fontSize=12;" parent="zO15JwaB6BqO8NoOxL15-12" vertex="1" connectable="0">
          <mxGeometry width="30" height="26" as="geometry"/>
        </mxCell>
        <mxCell id="zO15JwaB6BqO8NoOxL15-14" value="曲名" style="shape=partialRectangle;top=0;left=0;right=0;bottom=0;align=left;verticalAlign=top;fillColor=none;spacingLeft=34;spacingRight=4;overflow=hidden;rotatable=0;points=[[0,0.5],[1,0.5]];portConstraint=eastwest;dropTarget=0;fontSize=12;" parent="zO15JwaB6BqO8NoOxL15-1" vertex="1">
          <mxGeometry y="190" width="210" height="26" as="geometry"/>
        </mxCell>
        <mxCell id="zO15JwaB6BqO8NoOxL15-15" value="" style="shape=partialRectangle;top=0;left=0;bottom=0;fillColor=none;align=left;verticalAlign=top;spacingLeft=4;spacingRight=4;overflow=hidden;rotatable=0;points=[];portConstraint=eastwest;part=1;fontSize=12;" parent="zO15JwaB6BqO8NoOxL15-14" vertex="1" connectable="0">
          <mxGeometry width="30" height="26" as="geometry"/>
        </mxCell>
        <mxCell id="zO15JwaB6BqO8NoOxL15-16" value="曲時間" style="shape=partialRectangle;top=0;left=0;right=0;bottom=0;align=left;verticalAlign=top;fillColor=none;spacingLeft=34;spacingRight=4;overflow=hidden;rotatable=0;points=[[0,0.5],[1,0.5]];portConstraint=eastwest;dropTarget=0;fontSize=12;" parent="zO15JwaB6BqO8NoOxL15-1" vertex="1">
          <mxGeometry y="216" width="210" height="26" as="geometry"/>
        </mxCell>
        <mxCell id="zO15JwaB6BqO8NoOxL15-17" value="" style="shape=partialRectangle;top=0;left=0;bottom=0;fillColor=none;align=left;verticalAlign=top;spacingLeft=4;spacingRight=4;overflow=hidden;rotatable=0;points=[];portConstraint=eastwest;part=1;fontSize=12;" parent="zO15JwaB6BqO8NoOxL15-16" vertex="1" connectable="0">
          <mxGeometry width="30" height="26" as="geometry"/>
        </mxCell>
        <mxCell id="zO15JwaB6BqO8NoOxL15-18" value="商品名" style="shape=partialRectangle;top=0;left=0;right=0;bottom=0;align=left;verticalAlign=top;fillColor=none;spacingLeft=34;spacingRight=4;overflow=hidden;rotatable=0;points=[[0,0.5],[1,0.5]];portConstraint=eastwest;dropTarget=0;fontSize=12;" parent="zO15JwaB6BqO8NoOxL15-1" vertex="1">
          <mxGeometry y="242" width="210" height="26" as="geometry"/>
        </mxCell>
        <mxCell id="zO15JwaB6BqO8NoOxL15-19" value="" style="shape=partialRectangle;top=0;left=0;bottom=0;fillColor=none;align=left;verticalAlign=top;spacingLeft=4;spacingRight=4;overflow=hidden;rotatable=0;points=[];portConstraint=eastwest;part=1;fontSize=12;" parent="zO15JwaB6BqO8NoOxL15-18" vertex="1" connectable="0">
          <mxGeometry width="30" height="26" as="geometry"/>
        </mxCell>
        <mxCell id="zO15JwaB6BqO8NoOxL15-20" value="価格" style="shape=partialRectangle;top=0;left=0;right=0;bottom=0;align=left;verticalAlign=top;fillColor=none;spacingLeft=34;spacingRight=4;overflow=hidden;rotatable=0;points=[[0,0.5],[1,0.5]];portConstraint=eastwest;dropTarget=0;fontSize=12;" parent="zO15JwaB6BqO8NoOxL15-1" vertex="1">
          <mxGeometry y="268" width="210" height="26" as="geometry"/>
        </mxCell>
        <mxCell id="zO15JwaB6BqO8NoOxL15-21" value="" style="shape=partialRectangle;top=0;left=0;bottom=0;fillColor=none;align=left;verticalAlign=top;spacingLeft=4;spacingRight=4;overflow=hidden;rotatable=0;points=[];portConstraint=eastwest;part=1;fontSize=12;" parent="zO15JwaB6BqO8NoOxL15-20" vertex="1" connectable="0">
          <mxGeometry width="30" height="26" as="geometry"/>
        </mxCell>
        <mxCell id="zO15JwaB6BqO8NoOxL15-22" value="発売日" style="shape=partialRectangle;top=0;left=0;right=0;bottom=0;align=left;verticalAlign=top;fillColor=none;spacingLeft=34;spacingRight=4;overflow=hidden;rotatable=0;points=[[0,0.5],[1,0.5]];portConstraint=eastwest;dropTarget=0;fontSize=12;" parent="zO15JwaB6BqO8NoOxL15-1" vertex="1">
          <mxGeometry y="294" width="210" height="26" as="geometry"/>
        </mxCell>
        <mxCell id="zO15JwaB6BqO8NoOxL15-23" value="" style="shape=partialRectangle;top=0;left=0;bottom=0;fillColor=none;align=left;verticalAlign=top;spacingLeft=4;spacingRight=4;overflow=hidden;rotatable=0;points=[];portConstraint=eastwest;part=1;fontSize=12;" parent="zO15JwaB6BqO8NoOxL15-22" vertex="1" connectable="0">
          <mxGeometry width="30" height="26" as="geometry"/>
        </mxCell>
        <mxCell id="zO15JwaB6BqO8NoOxL15-24" value="タイプ(シングルorアルバム)" style="shape=partialRectangle;top=0;left=0;right=0;bottom=0;align=left;verticalAlign=top;fillColor=none;spacingLeft=34;spacingRight=4;overflow=hidden;rotatable=0;points=[[0,0.5],[1,0.5]];portConstraint=eastwest;dropTarget=0;fontSize=12;" parent="zO15JwaB6BqO8NoOxL15-1" vertex="1">
          <mxGeometry y="320" width="210" height="26" as="geometry"/>
        </mxCell>
        <mxCell id="zO15JwaB6BqO8NoOxL15-25" value="" style="shape=partialRectangle;top=0;left=0;bottom=0;fillColor=none;align=left;verticalAlign=top;spacingLeft=4;spacingRight=4;overflow=hidden;rotatable=0;points=[];portConstraint=eastwest;part=1;fontSize=12;" parent="zO15JwaB6BqO8NoOxL15-24" vertex="1" connectable="0">
          <mxGeometry width="30" height="26" as="geometry"/>
        </mxCell>
        <mxCell id="zO15JwaB6BqO8NoOxL15-26" value="商品説明文" style="shape=partialRectangle;top=0;left=0;right=0;bottom=0;align=left;verticalAlign=top;fillColor=none;spacingLeft=34;spacingRight=4;overflow=hidden;rotatable=0;points=[[0,0.5],[1,0.5]];portConstraint=eastwest;dropTarget=0;fontSize=12;" parent="zO15JwaB6BqO8NoOxL15-1" vertex="1">
          <mxGeometry y="346" width="210" height="26" as="geometry"/>
        </mxCell>
        <mxCell id="zO15JwaB6BqO8NoOxL15-27" value="" style="shape=partialRectangle;top=0;left=0;bottom=0;fillColor=none;align=left;verticalAlign=top;spacingLeft=4;spacingRight=4;overflow=hidden;rotatable=0;points=[];portConstraint=eastwest;part=1;fontSize=12;" parent="zO15JwaB6BqO8NoOxL15-26" vertex="1" connectable="0">
          <mxGeometry width="30" height="26" as="geometry"/>
        </mxCell>
        <mxCell id="zO15JwaB6BqO8NoOxL15-10" value="" style="shape=partialRectangle;top=0;left=0;right=0;bottom=0;align=left;verticalAlign=top;fillColor=none;spacingLeft=34;spacingRight=4;overflow=hidden;rotatable=0;points=[[0,0.5],[1,0.5]];portConstraint=eastwest;dropTarget=0;fontSize=12;" parent="zO15JwaB6BqO8NoOxL15-1" vertex="1">
          <mxGeometry y="372" width="210" height="10" as="geometry"/>
        </mxCell>
        <mxCell id="zO15JwaB6BqO8NoOxL15-11" value="" style="shape=partialRectangle;top=0;left=0;bottom=0;fillColor=none;align=left;verticalAlign=top;spacingLeft=4;spacingRight=4;overflow=hidden;rotatable=0;points=[];portConstraint=eastwest;part=1;fontSize=12;" parent="zO15JwaB6BqO8NoOxL15-10" vertex="1" connectable="0">
          <mxGeometry width="30" height="10" as="geometry"/>
        </mxCell>
        <mxCell id="zO15JwaB6BqO8NoOxL15-44" value="要件" style="text;strokeColor=none;fillColor=none;html=1;fontSize=24;fontStyle=1;verticalAlign=middle;align=left;" parent="1" vertex="1">
          <mxGeometry x="320" y="39" width="100" height="40" as="geometry"/>
        </mxCell>
        <mxCell id="zO15JwaB6BqO8NoOxL15-46" value="&lt;font style=&quot;font-size: 14px&quot;&gt;商品は次の情報を持ちます。&lt;br&gt;・アーティスト名&lt;br&gt;・レーベル名&lt;br&gt;・ディスク(複数)&lt;br&gt;・曲名(複数)&lt;br&gt;・曲時間&lt;br&gt;・商品名&lt;br&gt;・価格&lt;br&gt;・発売日&lt;br&gt;・タイプ(シングルorアルバム)&lt;br&gt;・商品説明文&lt;br&gt;&lt;br&gt;注意)&lt;br&gt;・どのディスクに、どの曲が入っているか区別する必要があります。&lt;br&gt;・ディスクに名前はなく、何枚のディスクを含むかわかれば良いです。&lt;br&gt;・商品一つに対して、アーティスト、レーベルが一つに定まります。&lt;br&gt;・アーティスト、レーベルごとに商品データを取得できる必要があります。&lt;br&gt;・&lt;b&gt;商品idとレーベルidで複合主キーとします。(これは絶対条件です)&lt;br&gt;&lt;/b&gt;&lt;br&gt;これらのことから、レーベルやアーティストのデータが増減することを踏まえ、&lt;br&gt;左のようなテーブルを作成しました。&lt;br&gt;&lt;/font&gt;" style="text;html=1;strokeColor=none;fillColor=none;align=left;verticalAlign=top;whiteSpace=wrap;rounded=0;" parent="1" vertex="1">
          <mxGeometry x="310" y="79" width="510" height="381" as="geometry"/>
        </mxCell>
        <mxCell id="ePgbu_4cj5haYAQTtkYV-1" value="Text" style="text;html=1;align=center;verticalAlign=middle;resizable=0;points=[];autosize=1;" parent="1" vertex="1">
          <mxGeometry x="72" y="470" width="40" height="20" as="geometry"/>
        </mxCell>
        <mxCell id="ePgbu_4cj5haYAQTtkYV-2" value="会員" style="swimlane;fontStyle=0;childLayout=stackLayout;horizontal=1;startSize=26;fillColor=#e0e0e0;horizontalStack=0;resizeParent=1;resizeParentMax=0;resizeLast=0;collapsible=1;marginBottom=0;swimlaneFillColor=#ffffff;align=center;fontSize=14;" parent="1" vertex="1">
          <mxGeometry x="50" y="450" width="210" height="382" as="geometry"/>
        </mxCell>
        <mxCell id="ePgbu_4cj5haYAQTtkYV-3" value="会員id " style="shape=partialRectangle;top=0;left=0;right=0;bottom=1;align=left;verticalAlign=middle;fillColor=none;spacingLeft=34;spacingRight=4;overflow=hidden;rotatable=0;points=[[0,0.5],[1,0.5]];portConstraint=eastwest;dropTarget=0;fontStyle=5;fontSize=12;" parent="ePgbu_4cj5haYAQTtkYV-2" vertex="1">
          <mxGeometry y="26" width="210" height="30" as="geometry"/>
        </mxCell>
        <mxCell id="ePgbu_4cj5haYAQTtkYV-4" value="PK" style="shape=partialRectangle;top=0;left=0;bottom=0;fillColor=none;align=left;verticalAlign=middle;spacingLeft=4;spacingRight=4;overflow=hidden;rotatable=0;points=[];portConstraint=eastwest;part=1;fontSize=12;" parent="ePgbu_4cj5haYAQTtkYV-3" vertex="1" connectable="0">
          <mxGeometry width="30" height="30" as="geometry"/>
        </mxCell>
        <mxCell id="ePgbu_4cj5haYAQTtkYV-5" value="" style="shape=partialRectangle;top=0;left=0;right=0;bottom=1;align=left;verticalAlign=middle;fillColor=none;spacingLeft=34;spacingRight=4;overflow=hidden;rotatable=0;points=[[0,0.5],[1,0.5]];portConstraint=eastwest;dropTarget=0;fontStyle=5;fontSize=12;" parent="ePgbu_4cj5haYAQTtkYV-2" vertex="1">
          <mxGeometry y="56" width="210" height="30" as="geometry"/>
        </mxCell>
        <mxCell id="ePgbu_4cj5haYAQTtkYV-6" value="PK" style="shape=partialRectangle;top=0;left=0;bottom=0;fillColor=none;align=left;verticalAlign=middle;spacingLeft=4;spacingRight=4;overflow=hidden;rotatable=0;points=[];portConstraint=eastwest;part=1;fontSize=12;" parent="ePgbu_4cj5haYAQTtkYV-5" vertex="1" connectable="0">
          <mxGeometry width="30" height="30" as="geometry"/>
        </mxCell>
        <mxCell id="ePgbu_4cj5haYAQTtkYV-7" value="会員氏名" style="shape=partialRectangle;top=0;left=0;right=0;bottom=0;align=left;verticalAlign=top;fillColor=none;spacingLeft=34;spacingRight=4;overflow=hidden;rotatable=0;points=[[0,0.5],[1,0.5]];portConstraint=eastwest;dropTarget=0;fontSize=12;" parent="ePgbu_4cj5haYAQTtkYV-2" vertex="1">
          <mxGeometry y="86" width="210" height="26" as="geometry"/>
        </mxCell>
        <mxCell id="ePgbu_4cj5haYAQTtkYV-8" value="FK" style="shape=partialRectangle;top=0;left=0;bottom=0;fillColor=none;align=left;verticalAlign=top;spacingLeft=4;spacingRight=4;overflow=hidden;rotatable=0;points=[];portConstraint=eastwest;part=1;fontSize=12;" parent="ePgbu_4cj5haYAQTtkYV-7" vertex="1" connectable="0">
          <mxGeometry width="30" height="26" as="geometry"/>
        </mxCell>
        <mxCell id="ePgbu_4cj5haYAQTtkYV-13" value="メールアドレス" style="shape=partialRectangle;top=0;left=0;right=0;bottom=0;align=left;verticalAlign=top;fillColor=none;spacingLeft=34;spacingRight=4;overflow=hidden;rotatable=0;points=[[0,0.5],[1,0.5]];portConstraint=eastwest;dropTarget=0;fontSize=12;" parent="ePgbu_4cj5haYAQTtkYV-2" vertex="1">
          <mxGeometry y="112" width="210" height="26" as="geometry"/>
        </mxCell>
        <mxCell id="ePgbu_4cj5haYAQTtkYV-14" value="" style="shape=partialRectangle;top=0;left=0;bottom=0;fillColor=none;align=left;verticalAlign=top;spacingLeft=4;spacingRight=4;overflow=hidden;rotatable=0;points=[];portConstraint=eastwest;part=1;fontSize=12;" parent="ePgbu_4cj5haYAQTtkYV-13" vertex="1" connectable="0">
          <mxGeometry width="30" height="26" as="geometry"/>
        </mxCell>
        <mxCell id="ePgbu_4cj5haYAQTtkYV-9" value="パスワード" style="shape=partialRectangle;top=0;left=0;right=0;bottom=0;align=left;verticalAlign=top;fillColor=none;spacingLeft=34;spacingRight=4;overflow=hidden;rotatable=0;points=[[0,0.5],[1,0.5]];portConstraint=eastwest;dropTarget=0;fontSize=12;" parent="ePgbu_4cj5haYAQTtkYV-2" vertex="1">
          <mxGeometry y="138" width="210" height="26" as="geometry"/>
        </mxCell>
        <mxCell id="ePgbu_4cj5haYAQTtkYV-10" value="" style="shape=partialRectangle;top=0;left=0;bottom=0;fillColor=none;align=left;verticalAlign=top;spacingLeft=4;spacingRight=4;overflow=hidden;rotatable=0;points=[];portConstraint=eastwest;part=1;fontSize=12;" parent="ePgbu_4cj5haYAQTtkYV-9" vertex="1" connectable="0">
          <mxGeometry width="30" height="26" as="geometry"/>
        </mxCell>
        <mxCell id="ePgbu_4cj5haYAQTtkYV-15" value="氏名（姓名）" style="shape=partialRectangle;top=0;left=0;right=0;bottom=0;align=left;verticalAlign=top;fillColor=none;spacingLeft=34;spacingRight=4;overflow=hidden;rotatable=0;points=[[0,0.5],[1,0.5]];portConstraint=eastwest;dropTarget=0;fontSize=12;" parent="ePgbu_4cj5haYAQTtkYV-2" vertex="1">
          <mxGeometry y="164" width="210" height="26" as="geometry"/>
        </mxCell>
        <mxCell id="ePgbu_4cj5haYAQTtkYV-16" value="" style="shape=partialRectangle;top=0;left=0;bottom=0;fillColor=none;align=left;verticalAlign=top;spacingLeft=4;spacingRight=4;overflow=hidden;rotatable=0;points=[];portConstraint=eastwest;part=1;fontSize=12;" parent="ePgbu_4cj5haYAQTtkYV-15" vertex="1" connectable="0">
          <mxGeometry width="30" height="26" as="geometry"/>
        </mxCell>
        <mxCell id="ePgbu_4cj5haYAQTtkYV-17" value="氏名（かな）" style="shape=partialRectangle;top=0;left=0;right=0;bottom=0;align=left;verticalAlign=top;fillColor=none;spacingLeft=34;spacingRight=4;overflow=hidden;rotatable=0;points=[[0,0.5],[1,0.5]];portConstraint=eastwest;dropTarget=0;fontSize=12;" parent="ePgbu_4cj5haYAQTtkYV-2" vertex="1">
          <mxGeometry y="190" width="210" height="26" as="geometry"/>
        </mxCell>
        <mxCell id="ePgbu_4cj5haYAQTtkYV-18" value="" style="shape=partialRectangle;top=0;left=0;bottom=0;fillColor=none;align=left;verticalAlign=top;spacingLeft=4;spacingRight=4;overflow=hidden;rotatable=0;points=[];portConstraint=eastwest;part=1;fontSize=12;" parent="ePgbu_4cj5haYAQTtkYV-17" vertex="1" connectable="0">
          <mxGeometry width="30" height="26" as="geometry"/>
        </mxCell>
        <mxCell id="ePgbu_4cj5haYAQTtkYV-11" value="住所" style="shape=partialRectangle;top=0;left=0;right=0;bottom=0;align=left;verticalAlign=top;fillColor=none;spacingLeft=34;spacingRight=4;overflow=hidden;rotatable=0;points=[[0,0.5],[1,0.5]];portConstraint=eastwest;dropTarget=0;fontSize=12;" parent="ePgbu_4cj5haYAQTtkYV-2" vertex="1">
          <mxGeometry y="216" width="210" height="26" as="geometry"/>
        </mxCell>
        <mxCell id="ePgbu_4cj5haYAQTtkYV-12" value="" style="shape=partialRectangle;top=0;left=0;bottom=0;fillColor=none;align=left;verticalAlign=top;spacingLeft=4;spacingRight=4;overflow=hidden;rotatable=0;points=[];portConstraint=eastwest;part=1;fontSize=12;" parent="ePgbu_4cj5haYAQTtkYV-11" vertex="1" connectable="0">
          <mxGeometry width="30" height="26" as="geometry"/>
        </mxCell>
        <mxCell id="ePgbu_4cj5haYAQTtkYV-19" value="電話番号" style="shape=partialRectangle;top=0;left=0;right=0;bottom=0;align=left;verticalAlign=top;fillColor=none;spacingLeft=34;spacingRight=4;overflow=hidden;rotatable=0;points=[[0,0.5],[1,0.5]];portConstraint=eastwest;dropTarget=0;fontSize=12;" parent="ePgbu_4cj5haYAQTtkYV-2" vertex="1">
          <mxGeometry y="242" width="210" height="26" as="geometry"/>
        </mxCell>
        <mxCell id="ePgbu_4cj5haYAQTtkYV-20" value="" style="shape=partialRectangle;top=0;left=0;bottom=0;fillColor=none;align=left;verticalAlign=top;spacingLeft=4;spacingRight=4;overflow=hidden;rotatable=0;points=[];portConstraint=eastwest;part=1;fontSize=12;" parent="ePgbu_4cj5haYAQTtkYV-19" vertex="1" connectable="0">
          <mxGeometry width="30" height="26" as="geometry"/>
        </mxCell>
        <mxCell id="ePgbu_4cj5haYAQTtkYV-27" value="会員ステータス" style="shape=partialRectangle;top=0;left=0;right=0;bottom=0;align=left;verticalAlign=top;fillColor=none;spacingLeft=34;spacingRight=4;overflow=hidden;rotatable=0;points=[[0,0.5],[1,0.5]];portConstraint=eastwest;dropTarget=0;fontSize=12;" parent="ePgbu_4cj5haYAQTtkYV-2" vertex="1">
          <mxGeometry y="268" width="210" height="26" as="geometry"/>
        </mxCell>
        <mxCell id="ePgbu_4cj5haYAQTtkYV-28" value="" style="shape=partialRectangle;top=0;left=0;bottom=0;fillColor=none;align=left;verticalAlign=top;spacingLeft=4;spacingRight=4;overflow=hidden;rotatable=0;points=[];portConstraint=eastwest;part=1;fontSize=12;" parent="ePgbu_4cj5haYAQTtkYV-27" vertex="1" connectable="0">
          <mxGeometry width="30" height="26" as="geometry"/>
        </mxCell>
        <mxCell id="ePgbu_4cj5haYAQTtkYV-21" value="登録日" style="shape=partialRectangle;top=0;left=0;right=0;bottom=0;align=left;verticalAlign=top;fillColor=none;spacingLeft=34;spacingRight=4;overflow=hidden;rotatable=0;points=[[0,0.5],[1,0.5]];portConstraint=eastwest;dropTarget=0;fontSize=12;" parent="ePgbu_4cj5haYAQTtkYV-2" vertex="1">
          <mxGeometry y="294" width="210" height="26" as="geometry"/>
        </mxCell>
        <mxCell id="ePgbu_4cj5haYAQTtkYV-22" value="" style="shape=partialRectangle;top=0;left=0;bottom=0;fillColor=none;align=left;verticalAlign=top;spacingLeft=4;spacingRight=4;overflow=hidden;rotatable=0;points=[];portConstraint=eastwest;part=1;fontSize=12;" parent="ePgbu_4cj5haYAQTtkYV-21" vertex="1" connectable="0">
          <mxGeometry width="30" height="26" as="geometry"/>
        </mxCell>
        <mxCell id="ePgbu_4cj5haYAQTtkYV-23" value="更新日" style="shape=partialRectangle;top=0;left=0;right=0;bottom=0;align=left;verticalAlign=top;fillColor=none;spacingLeft=34;spacingRight=4;overflow=hidden;rotatable=0;points=[[0,0.5],[1,0.5]];portConstraint=eastwest;dropTarget=0;fontSize=12;" parent="ePgbu_4cj5haYAQTtkYV-2" vertex="1">
          <mxGeometry y="320" width="210" height="26" as="geometry"/>
        </mxCell>
        <mxCell id="ePgbu_4cj5haYAQTtkYV-24" value="" style="shape=partialRectangle;top=0;left=0;bottom=0;fillColor=none;align=left;verticalAlign=top;spacingLeft=4;spacingRight=4;overflow=hidden;rotatable=0;points=[];portConstraint=eastwest;part=1;fontSize=12;" parent="ePgbu_4cj5haYAQTtkYV-23" vertex="1" connectable="0">
          <mxGeometry width="30" height="26" as="geometry"/>
        </mxCell>
        <mxCell id="ePgbu_4cj5haYAQTtkYV-25" value="" style="shape=partialRectangle;top=0;left=0;right=0;bottom=0;align=left;verticalAlign=top;fillColor=none;spacingLeft=34;spacingRight=4;overflow=hidden;rotatable=0;points=[[0,0.5],[1,0.5]];portConstraint=eastwest;dropTarget=0;fontSize=12;" parent="ePgbu_4cj5haYAQTtkYV-2" vertex="1">
          <mxGeometry y="346" width="210" height="26" as="geometry"/>
        </mxCell>
        <mxCell id="ePgbu_4cj5haYAQTtkYV-26" value="" style="shape=partialRectangle;top=0;left=0;bottom=0;fillColor=none;align=left;verticalAlign=top;spacingLeft=4;spacingRight=4;overflow=hidden;rotatable=0;points=[];portConstraint=eastwest;part=1;fontSize=12;" parent="ePgbu_4cj5haYAQTtkYV-25" vertex="1" connectable="0">
          <mxGeometry width="30" height="26" as="geometry"/>
        </mxCell>
        <mxCell id="ePgbu_4cj5haYAQTtkYV-29" value="" style="shape=partialRectangle;top=0;left=0;right=0;bottom=0;align=left;verticalAlign=top;fillColor=none;spacingLeft=34;spacingRight=4;overflow=hidden;rotatable=0;points=[[0,0.5],[1,0.5]];portConstraint=eastwest;dropTarget=0;fontSize=12;" parent="ePgbu_4cj5haYAQTtkYV-2" vertex="1">
          <mxGeometry y="372" width="210" height="10" as="geometry"/>
        </mxCell>
        <mxCell id="ePgbu_4cj5haYAQTtkYV-30" value="" style="shape=partialRectangle;top=0;left=0;bottom=0;fillColor=none;align=left;verticalAlign=top;spacingLeft=4;spacingRight=4;overflow=hidden;rotatable=0;points=[];portConstraint=eastwest;part=1;fontSize=12;" parent="ePgbu_4cj5haYAQTtkYV-29" vertex="1" connectable="0">
          <mxGeometry width="30" height="10" as="geometry"/>
        </mxCell>
        <mxCell id="zDFxx7EuyVAM1CJ_3zzb-1" value="注文" style="swimlane;fontStyle=0;childLayout=stackLayout;horizontal=1;startSize=26;fillColor=#e0e0e0;horizontalStack=0;resizeParent=1;resizeParentMax=0;resizeLast=0;collapsible=1;marginBottom=0;swimlaneFillColor=#ffffff;align=center;fontSize=14;" vertex="1" parent="1">
          <mxGeometry x="308" y="450" width="210" height="408" as="geometry">
            <mxRectangle x="308" y="450" width="60" height="26" as="alternateBounds"/>
          </mxGeometry>
        </mxCell>
        <mxCell id="zDFxx7EuyVAM1CJ_3zzb-2" value="id" style="shape=partialRectangle;top=0;left=0;right=0;bottom=1;align=left;verticalAlign=middle;fillColor=none;spacingLeft=34;spacingRight=4;overflow=hidden;rotatable=0;points=[[0,0.5],[1,0.5]];portConstraint=eastwest;dropTarget=0;fontStyle=5;fontSize=12;" vertex="1" parent="zDFxx7EuyVAM1CJ_3zzb-1">
          <mxGeometry y="26" width="210" height="30" as="geometry"/>
        </mxCell>
        <mxCell id="zDFxx7EuyVAM1CJ_3zzb-3" value="PK" style="shape=partialRectangle;top=0;left=0;bottom=0;fillColor=none;align=left;verticalAlign=middle;spacingLeft=4;spacingRight=4;overflow=hidden;rotatable=0;points=[];portConstraint=eastwest;part=1;fontSize=12;" vertex="1" connectable="0" parent="zDFxx7EuyVAM1CJ_3zzb-2">
          <mxGeometry width="30" height="30" as="geometry"/>
        </mxCell>
        <mxCell id="zDFxx7EuyVAM1CJ_3zzb-4" value="レーベルid" style="shape=partialRectangle;top=0;left=0;right=0;bottom=1;align=left;verticalAlign=middle;fillColor=none;spacingLeft=34;spacingRight=4;overflow=hidden;rotatable=0;points=[[0,0.5],[1,0.5]];portConstraint=eastwest;dropTarget=0;fontStyle=5;fontSize=12;" vertex="1" parent="zDFxx7EuyVAM1CJ_3zzb-1">
          <mxGeometry y="56" width="210" height="30" as="geometry"/>
        </mxCell>
        <mxCell id="zDFxx7EuyVAM1CJ_3zzb-5" value="PK" style="shape=partialRectangle;top=0;left=0;bottom=0;fillColor=none;align=left;verticalAlign=middle;spacingLeft=4;spacingRight=4;overflow=hidden;rotatable=0;points=[];portConstraint=eastwest;part=1;fontSize=12;" vertex="1" connectable="0" parent="zDFxx7EuyVAM1CJ_3zzb-4">
          <mxGeometry width="30" height="30" as="geometry"/>
        </mxCell>
        <mxCell id="zDFxx7EuyVAM1CJ_3zzb-6" value="会員id" style="shape=partialRectangle;top=0;left=0;right=0;bottom=0;align=left;verticalAlign=top;fillColor=none;spacingLeft=34;spacingRight=4;overflow=hidden;rotatable=0;points=[[0,0.5],[1,0.5]];portConstraint=eastwest;dropTarget=0;fontSize=12;" vertex="1" parent="zDFxx7EuyVAM1CJ_3zzb-1">
          <mxGeometry y="86" width="210" height="26" as="geometry"/>
        </mxCell>
        <mxCell id="zDFxx7EuyVAM1CJ_3zzb-7" value="FK" style="shape=partialRectangle;top=0;left=0;bottom=0;fillColor=none;align=left;verticalAlign=top;spacingLeft=4;spacingRight=4;overflow=hidden;rotatable=0;points=[];portConstraint=eastwest;part=1;fontSize=12;" vertex="1" connectable="0" parent="zDFxx7EuyVAM1CJ_3zzb-6">
          <mxGeometry width="30" height="26" as="geometry"/>
        </mxCell>
        <mxCell id="zDFxx7EuyVAM1CJ_3zzb-8" value="注文商品" style="shape=partialRectangle;top=0;left=0;right=0;bottom=0;align=left;verticalAlign=top;fillColor=none;spacingLeft=34;spacingRight=4;overflow=hidden;rotatable=0;points=[[0,0.5],[1,0.5]];portConstraint=eastwest;dropTarget=0;fontSize=12;" vertex="1" parent="zDFxx7EuyVAM1CJ_3zzb-1">
          <mxGeometry y="112" width="210" height="26" as="geometry"/>
        </mxCell>
        <mxCell id="zDFxx7EuyVAM1CJ_3zzb-9" value="" style="shape=partialRectangle;top=0;left=0;bottom=0;fillColor=none;align=left;verticalAlign=top;spacingLeft=4;spacingRight=4;overflow=hidden;rotatable=0;points=[];portConstraint=eastwest;part=1;fontSize=12;" vertex="1" connectable="0" parent="zDFxx7EuyVAM1CJ_3zzb-8">
          <mxGeometry width="30" height="26" as="geometry"/>
        </mxCell>
        <mxCell id="zDFxx7EuyVAM1CJ_3zzb-10" value="送料" style="shape=partialRectangle;top=0;left=0;right=0;bottom=0;align=left;verticalAlign=top;fillColor=none;spacingLeft=34;spacingRight=4;overflow=hidden;rotatable=0;points=[[0,0.5],[1,0.5]];portConstraint=eastwest;dropTarget=0;fontSize=12;" vertex="1" parent="zDFxx7EuyVAM1CJ_3zzb-1">
          <mxGeometry y="138" width="210" height="26" as="geometry"/>
        </mxCell>
        <mxCell id="zDFxx7EuyVAM1CJ_3zzb-11" value="" style="shape=partialRectangle;top=0;left=0;bottom=0;fillColor=none;align=left;verticalAlign=top;spacingLeft=4;spacingRight=4;overflow=hidden;rotatable=0;points=[];portConstraint=eastwest;part=1;fontSize=12;" vertex="1" connectable="0" parent="zDFxx7EuyVAM1CJ_3zzb-10">
          <mxGeometry width="30" height="26" as="geometry"/>
        </mxCell>
        <mxCell id="zDFxx7EuyVAM1CJ_3zzb-24" value="商品小計" style="shape=partialRectangle;top=0;left=0;right=0;bottom=0;align=left;verticalAlign=top;fillColor=none;spacingLeft=34;spacingRight=4;overflow=hidden;rotatable=0;points=[[0,0.5],[1,0.5]];portConstraint=eastwest;dropTarget=0;fontSize=12;" vertex="1" parent="zDFxx7EuyVAM1CJ_3zzb-1">
          <mxGeometry y="164" width="210" height="26" as="geometry"/>
        </mxCell>
        <mxCell id="zDFxx7EuyVAM1CJ_3zzb-25" value="" style="shape=partialRectangle;top=0;left=0;bottom=0;fillColor=none;align=left;verticalAlign=top;spacingLeft=4;spacingRight=4;overflow=hidden;rotatable=0;points=[];portConstraint=eastwest;part=1;fontSize=12;" vertex="1" connectable="0" parent="zDFxx7EuyVAM1CJ_3zzb-24">
          <mxGeometry width="30" height="26" as="geometry"/>
        </mxCell>
        <mxCell id="zDFxx7EuyVAM1CJ_3zzb-26" value="発送先住所" style="shape=partialRectangle;top=0;left=0;right=0;bottom=0;align=left;verticalAlign=top;fillColor=none;spacingLeft=34;spacingRight=4;overflow=hidden;rotatable=0;points=[[0,0.5],[1,0.5]];portConstraint=eastwest;dropTarget=0;fontSize=12;" vertex="1" parent="zDFxx7EuyVAM1CJ_3zzb-1">
          <mxGeometry y="190" width="210" height="26" as="geometry"/>
        </mxCell>
        <mxCell id="zDFxx7EuyVAM1CJ_3zzb-27" value="" style="shape=partialRectangle;top=0;left=0;bottom=0;fillColor=none;align=left;verticalAlign=top;spacingLeft=4;spacingRight=4;overflow=hidden;rotatable=0;points=[];portConstraint=eastwest;part=1;fontSize=12;" vertex="1" connectable="0" parent="zDFxx7EuyVAM1CJ_3zzb-26">
          <mxGeometry width="30" height="26" as="geometry"/>
        </mxCell>
        <mxCell id="zDFxx7EuyVAM1CJ_3zzb-116" value="請求額合計" style="shape=partialRectangle;top=0;left=0;right=0;bottom=0;align=left;verticalAlign=top;fillColor=none;spacingLeft=34;spacingRight=4;overflow=hidden;rotatable=0;points=[[0,0.5],[1,0.5]];portConstraint=eastwest;dropTarget=0;fontSize=12;" vertex="1" parent="zDFxx7EuyVAM1CJ_3zzb-1">
          <mxGeometry y="216" width="210" height="26" as="geometry"/>
        </mxCell>
        <mxCell id="zDFxx7EuyVAM1CJ_3zzb-117" value="" style="shape=partialRectangle;top=0;left=0;bottom=0;fillColor=none;align=left;verticalAlign=top;spacingLeft=4;spacingRight=4;overflow=hidden;rotatable=0;points=[];portConstraint=eastwest;part=1;fontSize=12;" vertex="1" connectable="0" parent="zDFxx7EuyVAM1CJ_3zzb-116">
          <mxGeometry width="30" height="26" as="geometry"/>
        </mxCell>
        <mxCell id="zDFxx7EuyVAM1CJ_3zzb-81" value="支払い方法" style="shape=partialRectangle;top=0;left=0;right=0;bottom=0;align=left;verticalAlign=top;fillColor=none;spacingLeft=34;spacingRight=4;overflow=hidden;rotatable=0;points=[[0,0.5],[1,0.5]];portConstraint=eastwest;dropTarget=0;fontSize=12;" vertex="1" parent="zDFxx7EuyVAM1CJ_3zzb-1">
          <mxGeometry y="242" width="210" height="26" as="geometry"/>
        </mxCell>
        <mxCell id="zDFxx7EuyVAM1CJ_3zzb-82" value="" style="shape=partialRectangle;top=0;left=0;bottom=0;fillColor=none;align=left;verticalAlign=top;spacingLeft=4;spacingRight=4;overflow=hidden;rotatable=0;points=[];portConstraint=eastwest;part=1;fontSize=12;" vertex="1" connectable="0" parent="zDFxx7EuyVAM1CJ_3zzb-81">
          <mxGeometry width="30" height="26" as="geometry"/>
        </mxCell>
        <mxCell id="zDFxx7EuyVAM1CJ_3zzb-83" value="注文ステータス" style="shape=partialRectangle;top=0;left=0;right=0;bottom=0;align=left;verticalAlign=top;fillColor=none;spacingLeft=34;spacingRight=4;overflow=hidden;rotatable=0;points=[[0,0.5],[1,0.5]];portConstraint=eastwest;dropTarget=0;fontSize=12;" vertex="1" parent="zDFxx7EuyVAM1CJ_3zzb-1">
          <mxGeometry y="268" width="210" height="26" as="geometry"/>
        </mxCell>
        <mxCell id="zDFxx7EuyVAM1CJ_3zzb-84" value="" style="shape=partialRectangle;top=0;left=0;bottom=0;fillColor=none;align=left;verticalAlign=top;spacingLeft=4;spacingRight=4;overflow=hidden;rotatable=0;points=[];portConstraint=eastwest;part=1;fontSize=12;" vertex="1" connectable="0" parent="zDFxx7EuyVAM1CJ_3zzb-83">
          <mxGeometry width="30" height="26" as="geometry"/>
        </mxCell>
        <mxCell id="zDFxx7EuyVAM1CJ_3zzb-85" value="製作ステータス" style="shape=partialRectangle;top=0;left=0;right=0;bottom=0;align=left;verticalAlign=top;fillColor=none;spacingLeft=34;spacingRight=4;overflow=hidden;rotatable=0;points=[[0,0.5],[1,0.5]];portConstraint=eastwest;dropTarget=0;fontSize=12;" vertex="1" parent="zDFxx7EuyVAM1CJ_3zzb-1">
          <mxGeometry y="294" width="210" height="26" as="geometry"/>
        </mxCell>
        <mxCell id="zDFxx7EuyVAM1CJ_3zzb-86" value="" style="shape=partialRectangle;top=0;left=0;bottom=0;fillColor=none;align=left;verticalAlign=top;spacingLeft=4;spacingRight=4;overflow=hidden;rotatable=0;points=[];portConstraint=eastwest;part=1;fontSize=12;" vertex="1" connectable="0" parent="zDFxx7EuyVAM1CJ_3zzb-85">
          <mxGeometry width="30" height="26" as="geometry"/>
        </mxCell>
        <mxCell id="zDFxx7EuyVAM1CJ_3zzb-20" value="登録日" style="shape=partialRectangle;top=0;left=0;right=0;bottom=0;align=left;verticalAlign=top;fillColor=none;spacingLeft=34;spacingRight=4;overflow=hidden;rotatable=0;points=[[0,0.5],[1,0.5]];portConstraint=eastwest;dropTarget=0;fontSize=12;" vertex="1" parent="zDFxx7EuyVAM1CJ_3zzb-1">
          <mxGeometry y="320" width="210" height="26" as="geometry"/>
        </mxCell>
        <mxCell id="zDFxx7EuyVAM1CJ_3zzb-21" value="" style="shape=partialRectangle;top=0;left=0;bottom=0;fillColor=none;align=left;verticalAlign=top;spacingLeft=4;spacingRight=4;overflow=hidden;rotatable=0;points=[];portConstraint=eastwest;part=1;fontSize=12;" vertex="1" connectable="0" parent="zDFxx7EuyVAM1CJ_3zzb-20">
          <mxGeometry width="30" height="26" as="geometry"/>
        </mxCell>
        <mxCell id="zDFxx7EuyVAM1CJ_3zzb-22" value="更新日" style="shape=partialRectangle;top=0;left=0;right=0;bottom=0;align=left;verticalAlign=top;fillColor=none;spacingLeft=34;spacingRight=4;overflow=hidden;rotatable=0;points=[[0,0.5],[1,0.5]];portConstraint=eastwest;dropTarget=0;fontSize=12;" vertex="1" parent="zDFxx7EuyVAM1CJ_3zzb-1">
          <mxGeometry y="346" width="210" height="26" as="geometry"/>
        </mxCell>
        <mxCell id="zDFxx7EuyVAM1CJ_3zzb-23" value="" style="shape=partialRectangle;top=0;left=0;bottom=0;fillColor=none;align=left;verticalAlign=top;spacingLeft=4;spacingRight=4;overflow=hidden;rotatable=0;points=[];portConstraint=eastwest;part=1;fontSize=12;" vertex="1" connectable="0" parent="zDFxx7EuyVAM1CJ_3zzb-22">
          <mxGeometry width="30" height="26" as="geometry"/>
        </mxCell>
        <mxCell id="zDFxx7EuyVAM1CJ_3zzb-75" value="" style="shape=partialRectangle;top=0;left=0;right=0;bottom=0;align=left;verticalAlign=top;fillColor=none;spacingLeft=34;spacingRight=4;overflow=hidden;rotatable=0;points=[[0,0.5],[1,0.5]];portConstraint=eastwest;dropTarget=0;fontSize=12;" vertex="1" parent="zDFxx7EuyVAM1CJ_3zzb-1">
          <mxGeometry y="372" width="210" height="26" as="geometry"/>
        </mxCell>
        <mxCell id="zDFxx7EuyVAM1CJ_3zzb-76" value="" style="shape=partialRectangle;top=0;left=0;bottom=0;fillColor=none;align=left;verticalAlign=top;spacingLeft=4;spacingRight=4;overflow=hidden;rotatable=0;points=[];portConstraint=eastwest;part=1;fontSize=12;" vertex="1" connectable="0" parent="zDFxx7EuyVAM1CJ_3zzb-75">
          <mxGeometry width="30" height="26" as="geometry"/>
        </mxCell>
        <mxCell id="zDFxx7EuyVAM1CJ_3zzb-28" value="" style="shape=partialRectangle;top=0;left=0;right=0;bottom=0;align=left;verticalAlign=top;fillColor=none;spacingLeft=34;spacingRight=4;overflow=hidden;rotatable=0;points=[[0,0.5],[1,0.5]];portConstraint=eastwest;dropTarget=0;fontSize=12;" vertex="1" parent="zDFxx7EuyVAM1CJ_3zzb-1">
          <mxGeometry y="398" width="210" height="10" as="geometry"/>
        </mxCell>
        <mxCell id="zDFxx7EuyVAM1CJ_3zzb-29" value="" style="shape=partialRectangle;top=0;left=0;bottom=0;fillColor=none;align=left;verticalAlign=top;spacingLeft=4;spacingRight=4;overflow=hidden;rotatable=0;points=[];portConstraint=eastwest;part=1;fontSize=12;" vertex="1" connectable="0" parent="zDFxx7EuyVAM1CJ_3zzb-28">
          <mxGeometry width="30" height="10" as="geometry"/>
        </mxCell>
        <mxCell id="zDFxx7EuyVAM1CJ_3zzb-32" value="注文商品" style="swimlane;fontStyle=0;childLayout=stackLayout;horizontal=1;startSize=26;fillColor=#e0e0e0;horizontalStack=0;resizeParent=1;resizeParentMax=0;resizeLast=0;collapsible=1;marginBottom=0;swimlaneFillColor=#ffffff;align=center;fontSize=14;" vertex="1" parent="1">
          <mxGeometry x="550" y="450" width="210" height="278" as="geometry"/>
        </mxCell>
        <mxCell id="zDFxx7EuyVAM1CJ_3zzb-33" value="id" style="shape=partialRectangle;top=0;left=0;right=0;bottom=1;align=left;verticalAlign=middle;fillColor=none;spacingLeft=34;spacingRight=4;overflow=hidden;rotatable=0;points=[[0,0.5],[1,0.5]];portConstraint=eastwest;dropTarget=0;fontStyle=5;fontSize=12;" vertex="1" parent="zDFxx7EuyVAM1CJ_3zzb-32">
          <mxGeometry y="26" width="210" height="30" as="geometry"/>
        </mxCell>
        <mxCell id="zDFxx7EuyVAM1CJ_3zzb-34" value="PK" style="shape=partialRectangle;top=0;left=0;bottom=0;fillColor=none;align=left;verticalAlign=middle;spacingLeft=4;spacingRight=4;overflow=hidden;rotatable=0;points=[];portConstraint=eastwest;part=1;fontSize=12;" vertex="1" connectable="0" parent="zDFxx7EuyVAM1CJ_3zzb-33">
          <mxGeometry width="30" height="30" as="geometry"/>
        </mxCell>
        <mxCell id="zDFxx7EuyVAM1CJ_3zzb-35" value="注文id" style="shape=partialRectangle;top=0;left=0;right=0;bottom=1;align=left;verticalAlign=middle;fillColor=none;spacingLeft=34;spacingRight=4;overflow=hidden;rotatable=0;points=[[0,0.5],[1,0.5]];portConstraint=eastwest;dropTarget=0;fontStyle=5;fontSize=12;" vertex="1" parent="zDFxx7EuyVAM1CJ_3zzb-32">
          <mxGeometry y="56" width="210" height="30" as="geometry"/>
        </mxCell>
        <mxCell id="zDFxx7EuyVAM1CJ_3zzb-36" value="FK" style="shape=partialRectangle;top=0;left=0;bottom=0;fillColor=none;align=left;verticalAlign=middle;spacingLeft=4;spacingRight=4;overflow=hidden;rotatable=0;points=[];portConstraint=eastwest;part=1;fontSize=12;" vertex="1" connectable="0" parent="zDFxx7EuyVAM1CJ_3zzb-35">
          <mxGeometry width="30" height="30" as="geometry"/>
        </mxCell>
        <mxCell id="zDFxx7EuyVAM1CJ_3zzb-37" value="商品名" style="shape=partialRectangle;top=0;left=0;right=0;bottom=0;align=left;verticalAlign=top;fillColor=none;spacingLeft=34;spacingRight=4;overflow=hidden;rotatable=0;points=[[0,0.5],[1,0.5]];portConstraint=eastwest;dropTarget=0;fontSize=12;" vertex="1" parent="zDFxx7EuyVAM1CJ_3zzb-32">
          <mxGeometry y="86" width="210" height="26" as="geometry"/>
        </mxCell>
        <mxCell id="zDFxx7EuyVAM1CJ_3zzb-38" value="FK" style="shape=partialRectangle;top=0;left=0;bottom=0;fillColor=none;align=left;verticalAlign=top;spacingLeft=4;spacingRight=4;overflow=hidden;rotatable=0;points=[];portConstraint=eastwest;part=1;fontSize=12;" vertex="1" connectable="0" parent="zDFxx7EuyVAM1CJ_3zzb-37">
          <mxGeometry width="30" height="26" as="geometry"/>
        </mxCell>
        <mxCell id="zDFxx7EuyVAM1CJ_3zzb-39" value="個数" style="shape=partialRectangle;top=0;left=0;right=0;bottom=0;align=left;verticalAlign=top;fillColor=none;spacingLeft=34;spacingRight=4;overflow=hidden;rotatable=0;points=[[0,0.5],[1,0.5]];portConstraint=eastwest;dropTarget=0;fontSize=12;" vertex="1" parent="zDFxx7EuyVAM1CJ_3zzb-32">
          <mxGeometry y="112" width="210" height="26" as="geometry"/>
        </mxCell>
        <mxCell id="zDFxx7EuyVAM1CJ_3zzb-40" value="" style="shape=partialRectangle;top=0;left=0;bottom=0;fillColor=none;align=left;verticalAlign=top;spacingLeft=4;spacingRight=4;overflow=hidden;rotatable=0;points=[];portConstraint=eastwest;part=1;fontSize=12;" vertex="1" connectable="0" parent="zDFxx7EuyVAM1CJ_3zzb-39">
          <mxGeometry width="30" height="26" as="geometry"/>
        </mxCell>
        <mxCell id="zDFxx7EuyVAM1CJ_3zzb-43" value="登録日" style="shape=partialRectangle;top=0;left=0;right=0;bottom=0;align=left;verticalAlign=top;fillColor=none;spacingLeft=34;spacingRight=4;overflow=hidden;rotatable=0;points=[[0,0.5],[1,0.5]];portConstraint=eastwest;dropTarget=0;fontSize=12;" vertex="1" parent="zDFxx7EuyVAM1CJ_3zzb-32">
          <mxGeometry y="138" width="210" height="26" as="geometry"/>
        </mxCell>
        <mxCell id="zDFxx7EuyVAM1CJ_3zzb-44" value="" style="shape=partialRectangle;top=0;left=0;bottom=0;fillColor=none;align=left;verticalAlign=top;spacingLeft=4;spacingRight=4;overflow=hidden;rotatable=0;points=[];portConstraint=eastwest;part=1;fontSize=12;" vertex="1" connectable="0" parent="zDFxx7EuyVAM1CJ_3zzb-43">
          <mxGeometry width="30" height="26" as="geometry"/>
        </mxCell>
        <mxCell id="zDFxx7EuyVAM1CJ_3zzb-45" value="更新日" style="shape=partialRectangle;top=0;left=0;right=0;bottom=0;align=left;verticalAlign=top;fillColor=none;spacingLeft=34;spacingRight=4;overflow=hidden;rotatable=0;points=[[0,0.5],[1,0.5]];portConstraint=eastwest;dropTarget=0;fontSize=12;" vertex="1" parent="zDFxx7EuyVAM1CJ_3zzb-32">
          <mxGeometry y="164" width="210" height="26" as="geometry"/>
        </mxCell>
        <mxCell id="zDFxx7EuyVAM1CJ_3zzb-46" value="" style="shape=partialRectangle;top=0;left=0;bottom=0;fillColor=none;align=left;verticalAlign=top;spacingLeft=4;spacingRight=4;overflow=hidden;rotatable=0;points=[];portConstraint=eastwest;part=1;fontSize=12;" vertex="1" connectable="0" parent="zDFxx7EuyVAM1CJ_3zzb-45">
          <mxGeometry width="30" height="26" as="geometry"/>
        </mxCell>
        <mxCell id="zDFxx7EuyVAM1CJ_3zzb-47" value="" style="shape=partialRectangle;top=0;left=0;right=0;bottom=0;align=left;verticalAlign=top;fillColor=none;spacingLeft=34;spacingRight=4;overflow=hidden;rotatable=0;points=[[0,0.5],[1,0.5]];portConstraint=eastwest;dropTarget=0;fontSize=12;" vertex="1" parent="zDFxx7EuyVAM1CJ_3zzb-32">
          <mxGeometry y="190" width="210" height="26" as="geometry"/>
        </mxCell>
        <mxCell id="zDFxx7EuyVAM1CJ_3zzb-48" value="" style="shape=partialRectangle;top=0;left=0;bottom=0;fillColor=none;align=left;verticalAlign=top;spacingLeft=4;spacingRight=4;overflow=hidden;rotatable=0;points=[];portConstraint=eastwest;part=1;fontSize=12;" vertex="1" connectable="0" parent="zDFxx7EuyVAM1CJ_3zzb-47">
          <mxGeometry width="30" height="26" as="geometry"/>
        </mxCell>
        <mxCell id="zDFxx7EuyVAM1CJ_3zzb-41" value="" style="shape=partialRectangle;top=0;left=0;right=0;bottom=0;align=left;verticalAlign=top;fillColor=none;spacingLeft=34;spacingRight=4;overflow=hidden;rotatable=0;points=[[0,0.5],[1,0.5]];portConstraint=eastwest;dropTarget=0;fontSize=12;" vertex="1" parent="zDFxx7EuyVAM1CJ_3zzb-32">
          <mxGeometry y="216" width="210" height="26" as="geometry"/>
        </mxCell>
        <mxCell id="zDFxx7EuyVAM1CJ_3zzb-42" value="" style="shape=partialRectangle;top=0;left=0;bottom=0;fillColor=none;align=left;verticalAlign=top;spacingLeft=4;spacingRight=4;overflow=hidden;rotatable=0;points=[];portConstraint=eastwest;part=1;fontSize=12;" vertex="1" connectable="0" parent="zDFxx7EuyVAM1CJ_3zzb-41">
          <mxGeometry width="30" height="26" as="geometry"/>
        </mxCell>
        <mxCell id="zDFxx7EuyVAM1CJ_3zzb-49" value="" style="shape=partialRectangle;top=0;left=0;right=0;bottom=0;align=left;verticalAlign=top;fillColor=none;spacingLeft=34;spacingRight=4;overflow=hidden;rotatable=0;points=[[0,0.5],[1,0.5]];portConstraint=eastwest;dropTarget=0;fontSize=12;" vertex="1" parent="zDFxx7EuyVAM1CJ_3zzb-32">
          <mxGeometry y="242" width="210" height="26" as="geometry"/>
        </mxCell>
        <mxCell id="zDFxx7EuyVAM1CJ_3zzb-50" value="" style="shape=partialRectangle;top=0;left=0;bottom=0;fillColor=none;align=left;verticalAlign=top;spacingLeft=4;spacingRight=4;overflow=hidden;rotatable=0;points=[];portConstraint=eastwest;part=1;fontSize=12;" vertex="1" connectable="0" parent="zDFxx7EuyVAM1CJ_3zzb-49">
          <mxGeometry width="30" height="26" as="geometry"/>
        </mxCell>
        <mxCell id="zDFxx7EuyVAM1CJ_3zzb-51" value="" style="shape=partialRectangle;top=0;left=0;right=0;bottom=0;align=left;verticalAlign=top;fillColor=none;spacingLeft=34;spacingRight=4;overflow=hidden;rotatable=0;points=[[0,0.5],[1,0.5]];portConstraint=eastwest;dropTarget=0;fontSize=12;" vertex="1" parent="zDFxx7EuyVAM1CJ_3zzb-32">
          <mxGeometry y="268" width="210" height="10" as="geometry"/>
        </mxCell>
        <mxCell id="zDFxx7EuyVAM1CJ_3zzb-52" value="" style="shape=partialRectangle;top=0;left=0;bottom=0;fillColor=none;align=left;verticalAlign=top;spacingLeft=4;spacingRight=4;overflow=hidden;rotatable=0;points=[];portConstraint=eastwest;part=1;fontSize=12;" vertex="1" connectable="0" parent="zDFxx7EuyVAM1CJ_3zzb-51">
          <mxGeometry width="30" height="10" as="geometry"/>
        </mxCell>
        <mxCell id="zDFxx7EuyVAM1CJ_3zzb-53" value="商品" style="swimlane;fontStyle=0;childLayout=stackLayout;horizontal=1;startSize=26;fillColor=#e0e0e0;horizontalStack=0;resizeParent=1;resizeParentMax=0;resizeLast=0;collapsible=1;marginBottom=0;swimlaneFillColor=#ffffff;align=center;fontSize=14;" vertex="1" parent="1">
          <mxGeometry x="308" y="900" width="210" height="330" as="geometry"/>
        </mxCell>
        <mxCell id="zDFxx7EuyVAM1CJ_3zzb-54" value="id" style="shape=partialRectangle;top=0;left=0;right=0;bottom=1;align=left;verticalAlign=middle;fillColor=none;spacingLeft=34;spacingRight=4;overflow=hidden;rotatable=0;points=[[0,0.5],[1,0.5]];portConstraint=eastwest;dropTarget=0;fontStyle=5;fontSize=12;" vertex="1" parent="zDFxx7EuyVAM1CJ_3zzb-53">
          <mxGeometry y="26" width="210" height="30" as="geometry"/>
        </mxCell>
        <mxCell id="zDFxx7EuyVAM1CJ_3zzb-55" value="PK" style="shape=partialRectangle;top=0;left=0;bottom=0;fillColor=none;align=left;verticalAlign=middle;spacingLeft=4;spacingRight=4;overflow=hidden;rotatable=0;points=[];portConstraint=eastwest;part=1;fontSize=12;" vertex="1" connectable="0" parent="zDFxx7EuyVAM1CJ_3zzb-54">
          <mxGeometry width="30" height="30" as="geometry"/>
        </mxCell>
        <mxCell id="zDFxx7EuyVAM1CJ_3zzb-56" value="レーベルid" style="shape=partialRectangle;top=0;left=0;right=0;bottom=1;align=left;verticalAlign=middle;fillColor=none;spacingLeft=34;spacingRight=4;overflow=hidden;rotatable=0;points=[[0,0.5],[1,0.5]];portConstraint=eastwest;dropTarget=0;fontStyle=5;fontSize=12;" vertex="1" parent="zDFxx7EuyVAM1CJ_3zzb-53">
          <mxGeometry y="56" width="210" height="30" as="geometry"/>
        </mxCell>
        <mxCell id="zDFxx7EuyVAM1CJ_3zzb-57" value="PK" style="shape=partialRectangle;top=0;left=0;bottom=0;fillColor=none;align=left;verticalAlign=middle;spacingLeft=4;spacingRight=4;overflow=hidden;rotatable=0;points=[];portConstraint=eastwest;part=1;fontSize=12;" vertex="1" connectable="0" parent="zDFxx7EuyVAM1CJ_3zzb-56">
          <mxGeometry width="30" height="30" as="geometry"/>
        </mxCell>
        <mxCell id="zDFxx7EuyVAM1CJ_3zzb-58" value="商品名" style="shape=partialRectangle;top=0;left=0;right=0;bottom=0;align=left;verticalAlign=top;fillColor=none;spacingLeft=34;spacingRight=4;overflow=hidden;rotatable=0;points=[[0,0.5],[1,0.5]];portConstraint=eastwest;dropTarget=0;fontSize=12;" vertex="1" parent="zDFxx7EuyVAM1CJ_3zzb-53">
          <mxGeometry y="86" width="210" height="26" as="geometry"/>
        </mxCell>
        <mxCell id="zDFxx7EuyVAM1CJ_3zzb-59" value="FK" style="shape=partialRectangle;top=0;left=0;bottom=0;fillColor=none;align=left;verticalAlign=top;spacingLeft=4;spacingRight=4;overflow=hidden;rotatable=0;points=[];portConstraint=eastwest;part=1;fontSize=12;" vertex="1" connectable="0" parent="zDFxx7EuyVAM1CJ_3zzb-58">
          <mxGeometry width="30" height="26" as="geometry"/>
        </mxCell>
        <mxCell id="zDFxx7EuyVAM1CJ_3zzb-60" value="商品説明文" style="shape=partialRectangle;top=0;left=0;right=0;bottom=0;align=left;verticalAlign=top;fillColor=none;spacingLeft=34;spacingRight=4;overflow=hidden;rotatable=0;points=[[0,0.5],[1,0.5]];portConstraint=eastwest;dropTarget=0;fontSize=12;" vertex="1" parent="zDFxx7EuyVAM1CJ_3zzb-53">
          <mxGeometry y="112" width="210" height="26" as="geometry"/>
        </mxCell>
        <mxCell id="zDFxx7EuyVAM1CJ_3zzb-61" value="" style="shape=partialRectangle;top=0;left=0;bottom=0;fillColor=none;align=left;verticalAlign=top;spacingLeft=4;spacingRight=4;overflow=hidden;rotatable=0;points=[];portConstraint=eastwest;part=1;fontSize=12;" vertex="1" connectable="0" parent="zDFxx7EuyVAM1CJ_3zzb-60">
          <mxGeometry width="30" height="26" as="geometry"/>
        </mxCell>
        <mxCell id="zDFxx7EuyVAM1CJ_3zzb-77" value="商品画像" style="shape=partialRectangle;top=0;left=0;right=0;bottom=0;align=left;verticalAlign=top;fillColor=none;spacingLeft=34;spacingRight=4;overflow=hidden;rotatable=0;points=[[0,0.5],[1,0.5]];portConstraint=eastwest;dropTarget=0;fontSize=12;" vertex="1" parent="zDFxx7EuyVAM1CJ_3zzb-53">
          <mxGeometry y="138" width="210" height="26" as="geometry"/>
        </mxCell>
        <mxCell id="zDFxx7EuyVAM1CJ_3zzb-78" value="" style="shape=partialRectangle;top=0;left=0;bottom=0;fillColor=none;align=left;verticalAlign=top;spacingLeft=4;spacingRight=4;overflow=hidden;rotatable=0;points=[];portConstraint=eastwest;part=1;fontSize=12;" vertex="1" connectable="0" parent="zDFxx7EuyVAM1CJ_3zzb-77">
          <mxGeometry width="30" height="26" as="geometry"/>
        </mxCell>
        <mxCell id="zDFxx7EuyVAM1CJ_3zzb-70" value="ジャンルid" style="shape=partialRectangle;top=0;left=0;right=0;bottom=0;align=left;verticalAlign=top;fillColor=none;spacingLeft=34;spacingRight=4;overflow=hidden;rotatable=0;points=[[0,0.5],[1,0.5]];portConstraint=eastwest;dropTarget=0;fontSize=12;" vertex="1" parent="zDFxx7EuyVAM1CJ_3zzb-53">
          <mxGeometry y="164" width="210" height="26" as="geometry"/>
        </mxCell>
        <mxCell id="zDFxx7EuyVAM1CJ_3zzb-71" value="" style="shape=partialRectangle;top=0;left=0;bottom=0;fillColor=none;align=left;verticalAlign=top;spacingLeft=4;spacingRight=4;overflow=hidden;rotatable=0;points=[];portConstraint=eastwest;part=1;fontSize=12;" vertex="1" connectable="0" parent="zDFxx7EuyVAM1CJ_3zzb-70">
          <mxGeometry width="30" height="26" as="geometry"/>
        </mxCell>
        <mxCell id="zDFxx7EuyVAM1CJ_3zzb-62" value="販売ステータス" style="shape=partialRectangle;top=0;left=0;right=0;bottom=0;align=left;verticalAlign=top;fillColor=none;spacingLeft=34;spacingRight=4;overflow=hidden;rotatable=0;points=[[0,0.5],[1,0.5]];portConstraint=eastwest;dropTarget=0;fontSize=12;" vertex="1" parent="zDFxx7EuyVAM1CJ_3zzb-53">
          <mxGeometry y="190" width="210" height="26" as="geometry"/>
        </mxCell>
        <mxCell id="zDFxx7EuyVAM1CJ_3zzb-63" value="" style="shape=partialRectangle;top=0;left=0;bottom=0;fillColor=none;align=left;verticalAlign=top;spacingLeft=4;spacingRight=4;overflow=hidden;rotatable=0;points=[];portConstraint=eastwest;part=1;fontSize=12;" vertex="1" connectable="0" parent="zDFxx7EuyVAM1CJ_3zzb-62">
          <mxGeometry width="30" height="26" as="geometry"/>
        </mxCell>
        <mxCell id="zDFxx7EuyVAM1CJ_3zzb-79" value="税抜価格" style="shape=partialRectangle;top=0;left=0;right=0;bottom=0;align=left;verticalAlign=top;fillColor=none;spacingLeft=34;spacingRight=4;overflow=hidden;rotatable=0;points=[[0,0.5],[1,0.5]];portConstraint=eastwest;dropTarget=0;fontSize=12;" vertex="1" parent="zDFxx7EuyVAM1CJ_3zzb-53">
          <mxGeometry y="216" width="210" height="26" as="geometry"/>
        </mxCell>
        <mxCell id="zDFxx7EuyVAM1CJ_3zzb-80" value="" style="shape=partialRectangle;top=0;left=0;bottom=0;fillColor=none;align=left;verticalAlign=top;spacingLeft=4;spacingRight=4;overflow=hidden;rotatable=0;points=[];portConstraint=eastwest;part=1;fontSize=12;" vertex="1" connectable="0" parent="zDFxx7EuyVAM1CJ_3zzb-79">
          <mxGeometry width="30" height="26" as="geometry"/>
        </mxCell>
        <mxCell id="zDFxx7EuyVAM1CJ_3zzb-64" value="登録日" style="shape=partialRectangle;top=0;left=0;right=0;bottom=0;align=left;verticalAlign=top;fillColor=none;spacingLeft=34;spacingRight=4;overflow=hidden;rotatable=0;points=[[0,0.5],[1,0.5]];portConstraint=eastwest;dropTarget=0;fontSize=12;" vertex="1" parent="zDFxx7EuyVAM1CJ_3zzb-53">
          <mxGeometry y="242" width="210" height="26" as="geometry"/>
        </mxCell>
        <mxCell id="zDFxx7EuyVAM1CJ_3zzb-65" value="" style="shape=partialRectangle;top=0;left=0;bottom=0;fillColor=none;align=left;verticalAlign=top;spacingLeft=4;spacingRight=4;overflow=hidden;rotatable=0;points=[];portConstraint=eastwest;part=1;fontSize=12;" vertex="1" connectable="0" parent="zDFxx7EuyVAM1CJ_3zzb-64">
          <mxGeometry width="30" height="26" as="geometry"/>
        </mxCell>
        <mxCell id="zDFxx7EuyVAM1CJ_3zzb-66" value="更新日" style="shape=partialRectangle;top=0;left=0;right=0;bottom=0;align=left;verticalAlign=top;fillColor=none;spacingLeft=34;spacingRight=4;overflow=hidden;rotatable=0;points=[[0,0.5],[1,0.5]];portConstraint=eastwest;dropTarget=0;fontSize=12;" vertex="1" parent="zDFxx7EuyVAM1CJ_3zzb-53">
          <mxGeometry y="268" width="210" height="26" as="geometry"/>
        </mxCell>
        <mxCell id="zDFxx7EuyVAM1CJ_3zzb-67" value="" style="shape=partialRectangle;top=0;left=0;bottom=0;fillColor=none;align=left;verticalAlign=top;spacingLeft=4;spacingRight=4;overflow=hidden;rotatable=0;points=[];portConstraint=eastwest;part=1;fontSize=12;" vertex="1" connectable="0" parent="zDFxx7EuyVAM1CJ_3zzb-66">
          <mxGeometry width="30" height="26" as="geometry"/>
        </mxCell>
        <mxCell id="zDFxx7EuyVAM1CJ_3zzb-68" value="" style="shape=partialRectangle;top=0;left=0;right=0;bottom=0;align=left;verticalAlign=top;fillColor=none;spacingLeft=34;spacingRight=4;overflow=hidden;rotatable=0;points=[[0,0.5],[1,0.5]];portConstraint=eastwest;dropTarget=0;fontSize=12;" vertex="1" parent="zDFxx7EuyVAM1CJ_3zzb-53">
          <mxGeometry y="294" width="210" height="26" as="geometry"/>
        </mxCell>
        <mxCell id="zDFxx7EuyVAM1CJ_3zzb-69" value="" style="shape=partialRectangle;top=0;left=0;bottom=0;fillColor=none;align=left;verticalAlign=top;spacingLeft=4;spacingRight=4;overflow=hidden;rotatable=0;points=[];portConstraint=eastwest;part=1;fontSize=12;" vertex="1" connectable="0" parent="zDFxx7EuyVAM1CJ_3zzb-68">
          <mxGeometry width="30" height="26" as="geometry"/>
        </mxCell>
        <mxCell id="zDFxx7EuyVAM1CJ_3zzb-72" value="" style="shape=partialRectangle;top=0;left=0;right=0;bottom=0;align=left;verticalAlign=top;fillColor=none;spacingLeft=34;spacingRight=4;overflow=hidden;rotatable=0;points=[[0,0.5],[1,0.5]];portConstraint=eastwest;dropTarget=0;fontSize=12;" vertex="1" parent="zDFxx7EuyVAM1CJ_3zzb-53">
          <mxGeometry y="320" width="210" height="10" as="geometry"/>
        </mxCell>
        <mxCell id="zDFxx7EuyVAM1CJ_3zzb-73" value="" style="shape=partialRectangle;top=0;left=0;bottom=0;fillColor=none;align=left;verticalAlign=top;spacingLeft=4;spacingRight=4;overflow=hidden;rotatable=0;points=[];portConstraint=eastwest;part=1;fontSize=12;" vertex="1" connectable="0" parent="zDFxx7EuyVAM1CJ_3zzb-72">
          <mxGeometry width="30" height="10" as="geometry"/>
        </mxCell>
        <mxCell id="zDFxx7EuyVAM1CJ_3zzb-87" value="カート" style="swimlane;fontStyle=0;childLayout=stackLayout;horizontal=1;startSize=26;fillColor=#e0e0e0;horizontalStack=0;resizeParent=1;resizeParentMax=0;resizeLast=0;collapsible=1;marginBottom=0;swimlaneFillColor=#ffffff;align=center;fontSize=14;" vertex="1" parent="1">
          <mxGeometry x="550" y="780" width="210" height="382" as="geometry">
            <mxRectangle x="308" y="450" width="60" height="26" as="alternateBounds"/>
          </mxGeometry>
        </mxCell>
        <mxCell id="zDFxx7EuyVAM1CJ_3zzb-88" value="id" style="shape=partialRectangle;top=0;left=0;right=0;bottom=1;align=left;verticalAlign=middle;fillColor=none;spacingLeft=34;spacingRight=4;overflow=hidden;rotatable=0;points=[[0,0.5],[1,0.5]];portConstraint=eastwest;dropTarget=0;fontStyle=5;fontSize=12;" vertex="1" parent="zDFxx7EuyVAM1CJ_3zzb-87">
          <mxGeometry y="26" width="210" height="30" as="geometry"/>
        </mxCell>
        <mxCell id="zDFxx7EuyVAM1CJ_3zzb-89" value="PK" style="shape=partialRectangle;top=0;left=0;bottom=0;fillColor=none;align=left;verticalAlign=middle;spacingLeft=4;spacingRight=4;overflow=hidden;rotatable=0;points=[];portConstraint=eastwest;part=1;fontSize=12;" vertex="1" connectable="0" parent="zDFxx7EuyVAM1CJ_3zzb-88">
          <mxGeometry width="30" height="30" as="geometry"/>
        </mxCell>
        <mxCell id="zDFxx7EuyVAM1CJ_3zzb-90" value="レーベルid" style="shape=partialRectangle;top=0;left=0;right=0;bottom=1;align=left;verticalAlign=middle;fillColor=none;spacingLeft=34;spacingRight=4;overflow=hidden;rotatable=0;points=[[0,0.5],[1,0.5]];portConstraint=eastwest;dropTarget=0;fontStyle=5;fontSize=12;" vertex="1" parent="zDFxx7EuyVAM1CJ_3zzb-87">
          <mxGeometry y="56" width="210" height="30" as="geometry"/>
        </mxCell>
        <mxCell id="zDFxx7EuyVAM1CJ_3zzb-91" value="PK" style="shape=partialRectangle;top=0;left=0;bottom=0;fillColor=none;align=left;verticalAlign=middle;spacingLeft=4;spacingRight=4;overflow=hidden;rotatable=0;points=[];portConstraint=eastwest;part=1;fontSize=12;" vertex="1" connectable="0" parent="zDFxx7EuyVAM1CJ_3zzb-90">
          <mxGeometry width="30" height="30" as="geometry"/>
        </mxCell>
        <mxCell id="zDFxx7EuyVAM1CJ_3zzb-92" value="会員id" style="shape=partialRectangle;top=0;left=0;right=0;bottom=0;align=left;verticalAlign=top;fillColor=none;spacingLeft=34;spacingRight=4;overflow=hidden;rotatable=0;points=[[0,0.5],[1,0.5]];portConstraint=eastwest;dropTarget=0;fontSize=12;" vertex="1" parent="zDFxx7EuyVAM1CJ_3zzb-87">
          <mxGeometry y="86" width="210" height="26" as="geometry"/>
        </mxCell>
        <mxCell id="zDFxx7EuyVAM1CJ_3zzb-93" value="FK" style="shape=partialRectangle;top=0;left=0;bottom=0;fillColor=none;align=left;verticalAlign=top;spacingLeft=4;spacingRight=4;overflow=hidden;rotatable=0;points=[];portConstraint=eastwest;part=1;fontSize=12;" vertex="1" connectable="0" parent="zDFxx7EuyVAM1CJ_3zzb-92">
          <mxGeometry width="30" height="26" as="geometry"/>
        </mxCell>
        <mxCell id="zDFxx7EuyVAM1CJ_3zzb-94" value="注文商品" style="shape=partialRectangle;top=0;left=0;right=0;bottom=0;align=left;verticalAlign=top;fillColor=none;spacingLeft=34;spacingRight=4;overflow=hidden;rotatable=0;points=[[0,0.5],[1,0.5]];portConstraint=eastwest;dropTarget=0;fontSize=12;" vertex="1" parent="zDFxx7EuyVAM1CJ_3zzb-87">
          <mxGeometry y="112" width="210" height="26" as="geometry"/>
        </mxCell>
        <mxCell id="zDFxx7EuyVAM1CJ_3zzb-95" value="" style="shape=partialRectangle;top=0;left=0;bottom=0;fillColor=none;align=left;verticalAlign=top;spacingLeft=4;spacingRight=4;overflow=hidden;rotatable=0;points=[];portConstraint=eastwest;part=1;fontSize=12;" vertex="1" connectable="0" parent="zDFxx7EuyVAM1CJ_3zzb-94">
          <mxGeometry width="30" height="26" as="geometry"/>
        </mxCell>
        <mxCell id="zDFxx7EuyVAM1CJ_3zzb-96" value="送料" style="shape=partialRectangle;top=0;left=0;right=0;bottom=0;align=left;verticalAlign=top;fillColor=none;spacingLeft=34;spacingRight=4;overflow=hidden;rotatable=0;points=[[0,0.5],[1,0.5]];portConstraint=eastwest;dropTarget=0;fontSize=12;" vertex="1" parent="zDFxx7EuyVAM1CJ_3zzb-87">
          <mxGeometry y="138" width="210" height="26" as="geometry"/>
        </mxCell>
        <mxCell id="zDFxx7EuyVAM1CJ_3zzb-97" value="" style="shape=partialRectangle;top=0;left=0;bottom=0;fillColor=none;align=left;verticalAlign=top;spacingLeft=4;spacingRight=4;overflow=hidden;rotatable=0;points=[];portConstraint=eastwest;part=1;fontSize=12;" vertex="1" connectable="0" parent="zDFxx7EuyVAM1CJ_3zzb-96">
          <mxGeometry width="30" height="26" as="geometry"/>
        </mxCell>
        <mxCell id="zDFxx7EuyVAM1CJ_3zzb-98" value="商品小計" style="shape=partialRectangle;top=0;left=0;right=0;bottom=0;align=left;verticalAlign=top;fillColor=none;spacingLeft=34;spacingRight=4;overflow=hidden;rotatable=0;points=[[0,0.5],[1,0.5]];portConstraint=eastwest;dropTarget=0;fontSize=12;" vertex="1" parent="zDFxx7EuyVAM1CJ_3zzb-87">
          <mxGeometry y="164" width="210" height="26" as="geometry"/>
        </mxCell>
        <mxCell id="zDFxx7EuyVAM1CJ_3zzb-99" value="" style="shape=partialRectangle;top=0;left=0;bottom=0;fillColor=none;align=left;verticalAlign=top;spacingLeft=4;spacingRight=4;overflow=hidden;rotatable=0;points=[];portConstraint=eastwest;part=1;fontSize=12;" vertex="1" connectable="0" parent="zDFxx7EuyVAM1CJ_3zzb-98">
          <mxGeometry width="30" height="26" as="geometry"/>
        </mxCell>
        <mxCell id="zDFxx7EuyVAM1CJ_3zzb-100" value="発送先住所" style="shape=partialRectangle;top=0;left=0;right=0;bottom=0;align=left;verticalAlign=top;fillColor=none;spacingLeft=34;spacingRight=4;overflow=hidden;rotatable=0;points=[[0,0.5],[1,0.5]];portConstraint=eastwest;dropTarget=0;fontSize=12;" vertex="1" parent="zDFxx7EuyVAM1CJ_3zzb-87">
          <mxGeometry y="190" width="210" height="26" as="geometry"/>
        </mxCell>
        <mxCell id="zDFxx7EuyVAM1CJ_3zzb-101" value="" style="shape=partialRectangle;top=0;left=0;bottom=0;fillColor=none;align=left;verticalAlign=top;spacingLeft=4;spacingRight=4;overflow=hidden;rotatable=0;points=[];portConstraint=eastwest;part=1;fontSize=12;" vertex="1" connectable="0" parent="zDFxx7EuyVAM1CJ_3zzb-100">
          <mxGeometry width="30" height="26" as="geometry"/>
        </mxCell>
        <mxCell id="zDFxx7EuyVAM1CJ_3zzb-102" value="支払い方法" style="shape=partialRectangle;top=0;left=0;right=0;bottom=0;align=left;verticalAlign=top;fillColor=none;spacingLeft=34;spacingRight=4;overflow=hidden;rotatable=0;points=[[0,0.5],[1,0.5]];portConstraint=eastwest;dropTarget=0;fontSize=12;" vertex="1" parent="zDFxx7EuyVAM1CJ_3zzb-87">
          <mxGeometry y="216" width="210" height="26" as="geometry"/>
        </mxCell>
        <mxCell id="zDFxx7EuyVAM1CJ_3zzb-103" value="" style="shape=partialRectangle;top=0;left=0;bottom=0;fillColor=none;align=left;verticalAlign=top;spacingLeft=4;spacingRight=4;overflow=hidden;rotatable=0;points=[];portConstraint=eastwest;part=1;fontSize=12;" vertex="1" connectable="0" parent="zDFxx7EuyVAM1CJ_3zzb-102">
          <mxGeometry width="30" height="26" as="geometry"/>
        </mxCell>
        <mxCell id="zDFxx7EuyVAM1CJ_3zzb-104" value="注文ステータス" style="shape=partialRectangle;top=0;left=0;right=0;bottom=0;align=left;verticalAlign=top;fillColor=none;spacingLeft=34;spacingRight=4;overflow=hidden;rotatable=0;points=[[0,0.5],[1,0.5]];portConstraint=eastwest;dropTarget=0;fontSize=12;" vertex="1" parent="zDFxx7EuyVAM1CJ_3zzb-87">
          <mxGeometry y="242" width="210" height="26" as="geometry"/>
        </mxCell>
        <mxCell id="zDFxx7EuyVAM1CJ_3zzb-105" value="" style="shape=partialRectangle;top=0;left=0;bottom=0;fillColor=none;align=left;verticalAlign=top;spacingLeft=4;spacingRight=4;overflow=hidden;rotatable=0;points=[];portConstraint=eastwest;part=1;fontSize=12;" vertex="1" connectable="0" parent="zDFxx7EuyVAM1CJ_3zzb-104">
          <mxGeometry width="30" height="26" as="geometry"/>
        </mxCell>
        <mxCell id="zDFxx7EuyVAM1CJ_3zzb-106" value="製作ステータス" style="shape=partialRectangle;top=0;left=0;right=0;bottom=0;align=left;verticalAlign=top;fillColor=none;spacingLeft=34;spacingRight=4;overflow=hidden;rotatable=0;points=[[0,0.5],[1,0.5]];portConstraint=eastwest;dropTarget=0;fontSize=12;" vertex="1" parent="zDFxx7EuyVAM1CJ_3zzb-87">
          <mxGeometry y="268" width="210" height="26" as="geometry"/>
        </mxCell>
        <mxCell id="zDFxx7EuyVAM1CJ_3zzb-107" value="" style="shape=partialRectangle;top=0;left=0;bottom=0;fillColor=none;align=left;verticalAlign=top;spacingLeft=4;spacingRight=4;overflow=hidden;rotatable=0;points=[];portConstraint=eastwest;part=1;fontSize=12;" vertex="1" connectable="0" parent="zDFxx7EuyVAM1CJ_3zzb-106">
          <mxGeometry width="30" height="26" as="geometry"/>
        </mxCell>
        <mxCell id="zDFxx7EuyVAM1CJ_3zzb-108" value="登録日" style="shape=partialRectangle;top=0;left=0;right=0;bottom=0;align=left;verticalAlign=top;fillColor=none;spacingLeft=34;spacingRight=4;overflow=hidden;rotatable=0;points=[[0,0.5],[1,0.5]];portConstraint=eastwest;dropTarget=0;fontSize=12;" vertex="1" parent="zDFxx7EuyVAM1CJ_3zzb-87">
          <mxGeometry y="294" width="210" height="26" as="geometry"/>
        </mxCell>
        <mxCell id="zDFxx7EuyVAM1CJ_3zzb-109" value="" style="shape=partialRectangle;top=0;left=0;bottom=0;fillColor=none;align=left;verticalAlign=top;spacingLeft=4;spacingRight=4;overflow=hidden;rotatable=0;points=[];portConstraint=eastwest;part=1;fontSize=12;" vertex="1" connectable="0" parent="zDFxx7EuyVAM1CJ_3zzb-108">
          <mxGeometry width="30" height="26" as="geometry"/>
        </mxCell>
        <mxCell id="zDFxx7EuyVAM1CJ_3zzb-110" value="更新日" style="shape=partialRectangle;top=0;left=0;right=0;bottom=0;align=left;verticalAlign=top;fillColor=none;spacingLeft=34;spacingRight=4;overflow=hidden;rotatable=0;points=[[0,0.5],[1,0.5]];portConstraint=eastwest;dropTarget=0;fontSize=12;" vertex="1" parent="zDFxx7EuyVAM1CJ_3zzb-87">
          <mxGeometry y="320" width="210" height="26" as="geometry"/>
        </mxCell>
        <mxCell id="zDFxx7EuyVAM1CJ_3zzb-111" value="" style="shape=partialRectangle;top=0;left=0;bottom=0;fillColor=none;align=left;verticalAlign=top;spacingLeft=4;spacingRight=4;overflow=hidden;rotatable=0;points=[];portConstraint=eastwest;part=1;fontSize=12;" vertex="1" connectable="0" parent="zDFxx7EuyVAM1CJ_3zzb-110">
          <mxGeometry width="30" height="26" as="geometry"/>
        </mxCell>
        <mxCell id="zDFxx7EuyVAM1CJ_3zzb-112" value="" style="shape=partialRectangle;top=0;left=0;right=0;bottom=0;align=left;verticalAlign=top;fillColor=none;spacingLeft=34;spacingRight=4;overflow=hidden;rotatable=0;points=[[0,0.5],[1,0.5]];portConstraint=eastwest;dropTarget=0;fontSize=12;" vertex="1" parent="zDFxx7EuyVAM1CJ_3zzb-87">
          <mxGeometry y="346" width="210" height="26" as="geometry"/>
        </mxCell>
        <mxCell id="zDFxx7EuyVAM1CJ_3zzb-113" value="" style="shape=partialRectangle;top=0;left=0;bottom=0;fillColor=none;align=left;verticalAlign=top;spacingLeft=4;spacingRight=4;overflow=hidden;rotatable=0;points=[];portConstraint=eastwest;part=1;fontSize=12;" vertex="1" connectable="0" parent="zDFxx7EuyVAM1CJ_3zzb-112">
          <mxGeometry width="30" height="26" as="geometry"/>
        </mxCell>
        <mxCell id="zDFxx7EuyVAM1CJ_3zzb-114" value="" style="shape=partialRectangle;top=0;left=0;right=0;bottom=0;align=left;verticalAlign=top;fillColor=none;spacingLeft=34;spacingRight=4;overflow=hidden;rotatable=0;points=[[0,0.5],[1,0.5]];portConstraint=eastwest;dropTarget=0;fontSize=12;" vertex="1" parent="zDFxx7EuyVAM1CJ_3zzb-87">
          <mxGeometry y="372" width="210" height="10" as="geometry"/>
        </mxCell>
        <mxCell id="zDFxx7EuyVAM1CJ_3zzb-115" value="" style="shape=partialRectangle;top=0;left=0;bottom=0;fillColor=none;align=left;verticalAlign=top;spacingLeft=4;spacingRight=4;overflow=hidden;rotatable=0;points=[];portConstraint=eastwest;part=1;fontSize=12;" vertex="1" connectable="0" parent="zDFxx7EuyVAM1CJ_3zzb-114">
          <mxGeometry width="30" height="10" as="geometry"/>
        </mxCell>
        <mxCell id="zDFxx7EuyVAM1CJ_3zzb-118" value="注文履歴" style="swimlane;fontStyle=0;childLayout=stackLayout;horizontal=1;startSize=26;fillColor=#e0e0e0;horizontalStack=0;resizeParent=1;resizeParentMax=0;resizeLast=0;collapsible=1;marginBottom=0;swimlaneFillColor=#ffffff;align=center;fontSize=14;" vertex="1" parent="1">
          <mxGeometry x="50" y="890" width="210" height="356" as="geometry">
            <mxRectangle x="308" y="450" width="60" height="26" as="alternateBounds"/>
          </mxGeometry>
        </mxCell>
        <mxCell id="zDFxx7EuyVAM1CJ_3zzb-119" value="id" style="shape=partialRectangle;top=0;left=0;right=0;bottom=1;align=left;verticalAlign=middle;fillColor=none;spacingLeft=34;spacingRight=4;overflow=hidden;rotatable=0;points=[[0,0.5],[1,0.5]];portConstraint=eastwest;dropTarget=0;fontStyle=5;fontSize=12;" vertex="1" parent="zDFxx7EuyVAM1CJ_3zzb-118">
          <mxGeometry y="26" width="210" height="30" as="geometry"/>
        </mxCell>
        <mxCell id="zDFxx7EuyVAM1CJ_3zzb-120" value="PK" style="shape=partialRectangle;top=0;left=0;bottom=0;fillColor=none;align=left;verticalAlign=middle;spacingLeft=4;spacingRight=4;overflow=hidden;rotatable=0;points=[];portConstraint=eastwest;part=1;fontSize=12;" vertex="1" connectable="0" parent="zDFxx7EuyVAM1CJ_3zzb-119">
          <mxGeometry width="30" height="30" as="geometry"/>
        </mxCell>
        <mxCell id="zDFxx7EuyVAM1CJ_3zzb-121" value="注文id" style="shape=partialRectangle;top=0;left=0;right=0;bottom=1;align=left;verticalAlign=middle;fillColor=none;spacingLeft=34;spacingRight=4;overflow=hidden;rotatable=0;points=[[0,0.5],[1,0.5]];portConstraint=eastwest;dropTarget=0;fontStyle=5;fontSize=12;" vertex="1" parent="zDFxx7EuyVAM1CJ_3zzb-118">
          <mxGeometry y="56" width="210" height="30" as="geometry"/>
        </mxCell>
        <mxCell id="zDFxx7EuyVAM1CJ_3zzb-122" value="PK" style="shape=partialRectangle;top=0;left=0;bottom=0;fillColor=none;align=left;verticalAlign=middle;spacingLeft=4;spacingRight=4;overflow=hidden;rotatable=0;points=[];portConstraint=eastwest;part=1;fontSize=12;" vertex="1" connectable="0" parent="zDFxx7EuyVAM1CJ_3zzb-121">
          <mxGeometry width="30" height="30" as="geometry"/>
        </mxCell>
        <mxCell id="zDFxx7EuyVAM1CJ_3zzb-123" value="会員id" style="shape=partialRectangle;top=0;left=0;right=0;bottom=0;align=left;verticalAlign=top;fillColor=none;spacingLeft=34;spacingRight=4;overflow=hidden;rotatable=0;points=[[0,0.5],[1,0.5]];portConstraint=eastwest;dropTarget=0;fontSize=12;" vertex="1" parent="zDFxx7EuyVAM1CJ_3zzb-118">
          <mxGeometry y="86" width="210" height="26" as="geometry"/>
        </mxCell>
        <mxCell id="zDFxx7EuyVAM1CJ_3zzb-124" value="FK" style="shape=partialRectangle;top=0;left=0;bottom=0;fillColor=none;align=left;verticalAlign=top;spacingLeft=4;spacingRight=4;overflow=hidden;rotatable=0;points=[];portConstraint=eastwest;part=1;fontSize=12;" vertex="1" connectable="0" parent="zDFxx7EuyVAM1CJ_3zzb-123">
          <mxGeometry width="30" height="26" as="geometry"/>
        </mxCell>
        <mxCell id="zDFxx7EuyVAM1CJ_3zzb-125" value="注文商品" style="shape=partialRectangle;top=0;left=0;right=0;bottom=0;align=left;verticalAlign=top;fillColor=none;spacingLeft=34;spacingRight=4;overflow=hidden;rotatable=0;points=[[0,0.5],[1,0.5]];portConstraint=eastwest;dropTarget=0;fontSize=12;" vertex="1" parent="zDFxx7EuyVAM1CJ_3zzb-118">
          <mxGeometry y="112" width="210" height="26" as="geometry"/>
        </mxCell>
        <mxCell id="zDFxx7EuyVAM1CJ_3zzb-126" value="" style="shape=partialRectangle;top=0;left=0;bottom=0;fillColor=none;align=left;verticalAlign=top;spacingLeft=4;spacingRight=4;overflow=hidden;rotatable=0;points=[];portConstraint=eastwest;part=1;fontSize=12;" vertex="1" connectable="0" parent="zDFxx7EuyVAM1CJ_3zzb-125">
          <mxGeometry width="30" height="26" as="geometry"/>
        </mxCell>
        <mxCell id="zDFxx7EuyVAM1CJ_3zzb-127" value="注文日" style="shape=partialRectangle;top=0;left=0;right=0;bottom=0;align=left;verticalAlign=top;fillColor=none;spacingLeft=34;spacingRight=4;overflow=hidden;rotatable=0;points=[[0,0.5],[1,0.5]];portConstraint=eastwest;dropTarget=0;fontSize=12;" vertex="1" parent="zDFxx7EuyVAM1CJ_3zzb-118">
          <mxGeometry y="138" width="210" height="26" as="geometry"/>
        </mxCell>
        <mxCell id="zDFxx7EuyVAM1CJ_3zzb-128" value="" style="shape=partialRectangle;top=0;left=0;bottom=0;fillColor=none;align=left;verticalAlign=top;spacingLeft=4;spacingRight=4;overflow=hidden;rotatable=0;points=[];portConstraint=eastwest;part=1;fontSize=12;" vertex="1" connectable="0" parent="zDFxx7EuyVAM1CJ_3zzb-127">
          <mxGeometry width="30" height="26" as="geometry"/>
        </mxCell>
        <mxCell id="zDFxx7EuyVAM1CJ_3zzb-131" value="発送先住所" style="shape=partialRectangle;top=0;left=0;right=0;bottom=0;align=left;verticalAlign=top;fillColor=none;spacingLeft=34;spacingRight=4;overflow=hidden;rotatable=0;points=[[0,0.5],[1,0.5]];portConstraint=eastwest;dropTarget=0;fontSize=12;" vertex="1" parent="zDFxx7EuyVAM1CJ_3zzb-118">
          <mxGeometry y="164" width="210" height="26" as="geometry"/>
        </mxCell>
        <mxCell id="zDFxx7EuyVAM1CJ_3zzb-132" value="" style="shape=partialRectangle;top=0;left=0;bottom=0;fillColor=none;align=left;verticalAlign=top;spacingLeft=4;spacingRight=4;overflow=hidden;rotatable=0;points=[];portConstraint=eastwest;part=1;fontSize=12;" vertex="1" connectable="0" parent="zDFxx7EuyVAM1CJ_3zzb-131">
          <mxGeometry width="30" height="26" as="geometry"/>
        </mxCell>
        <mxCell id="zDFxx7EuyVAM1CJ_3zzb-133" value="支払い方法" style="shape=partialRectangle;top=0;left=0;right=0;bottom=0;align=left;verticalAlign=top;fillColor=none;spacingLeft=34;spacingRight=4;overflow=hidden;rotatable=0;points=[[0,0.5],[1,0.5]];portConstraint=eastwest;dropTarget=0;fontSize=12;" vertex="1" parent="zDFxx7EuyVAM1CJ_3zzb-118">
          <mxGeometry y="190" width="210" height="26" as="geometry"/>
        </mxCell>
        <mxCell id="zDFxx7EuyVAM1CJ_3zzb-134" value="" style="shape=partialRectangle;top=0;left=0;bottom=0;fillColor=none;align=left;verticalAlign=top;spacingLeft=4;spacingRight=4;overflow=hidden;rotatable=0;points=[];portConstraint=eastwest;part=1;fontSize=12;" vertex="1" connectable="0" parent="zDFxx7EuyVAM1CJ_3zzb-133">
          <mxGeometry width="30" height="26" as="geometry"/>
        </mxCell>
        <mxCell id="zDFxx7EuyVAM1CJ_3zzb-135" value="注文ステータス" style="shape=partialRectangle;top=0;left=0;right=0;bottom=0;align=left;verticalAlign=top;fillColor=none;spacingLeft=34;spacingRight=4;overflow=hidden;rotatable=0;points=[[0,0.5],[1,0.5]];portConstraint=eastwest;dropTarget=0;fontSize=12;" vertex="1" parent="zDFxx7EuyVAM1CJ_3zzb-118">
          <mxGeometry y="216" width="210" height="26" as="geometry"/>
        </mxCell>
        <mxCell id="zDFxx7EuyVAM1CJ_3zzb-136" value="" style="shape=partialRectangle;top=0;left=0;bottom=0;fillColor=none;align=left;verticalAlign=top;spacingLeft=4;spacingRight=4;overflow=hidden;rotatable=0;points=[];portConstraint=eastwest;part=1;fontSize=12;" vertex="1" connectable="0" parent="zDFxx7EuyVAM1CJ_3zzb-135">
          <mxGeometry width="30" height="26" as="geometry"/>
        </mxCell>
        <mxCell id="zDFxx7EuyVAM1CJ_3zzb-137" value="製作ステータス" style="shape=partialRectangle;top=0;left=0;right=0;bottom=0;align=left;verticalAlign=top;fillColor=none;spacingLeft=34;spacingRight=4;overflow=hidden;rotatable=0;points=[[0,0.5],[1,0.5]];portConstraint=eastwest;dropTarget=0;fontSize=12;" vertex="1" parent="zDFxx7EuyVAM1CJ_3zzb-118">
          <mxGeometry y="242" width="210" height="26" as="geometry"/>
        </mxCell>
        <mxCell id="zDFxx7EuyVAM1CJ_3zzb-138" value="" style="shape=partialRectangle;top=0;left=0;bottom=0;fillColor=none;align=left;verticalAlign=top;spacingLeft=4;spacingRight=4;overflow=hidden;rotatable=0;points=[];portConstraint=eastwest;part=1;fontSize=12;" vertex="1" connectable="0" parent="zDFxx7EuyVAM1CJ_3zzb-137">
          <mxGeometry width="30" height="26" as="geometry"/>
        </mxCell>
        <mxCell id="zDFxx7EuyVAM1CJ_3zzb-139" value="登録日" style="shape=partialRectangle;top=0;left=0;right=0;bottom=0;align=left;verticalAlign=top;fillColor=none;spacingLeft=34;spacingRight=4;overflow=hidden;rotatable=0;points=[[0,0.5],[1,0.5]];portConstraint=eastwest;dropTarget=0;fontSize=12;" vertex="1" parent="zDFxx7EuyVAM1CJ_3zzb-118">
          <mxGeometry y="268" width="210" height="26" as="geometry"/>
        </mxCell>
        <mxCell id="zDFxx7EuyVAM1CJ_3zzb-140" value="" style="shape=partialRectangle;top=0;left=0;bottom=0;fillColor=none;align=left;verticalAlign=top;spacingLeft=4;spacingRight=4;overflow=hidden;rotatable=0;points=[];portConstraint=eastwest;part=1;fontSize=12;" vertex="1" connectable="0" parent="zDFxx7EuyVAM1CJ_3zzb-139">
          <mxGeometry width="30" height="26" as="geometry"/>
        </mxCell>
        <mxCell id="zDFxx7EuyVAM1CJ_3zzb-141" value="更新日" style="shape=partialRectangle;top=0;left=0;right=0;bottom=0;align=left;verticalAlign=top;fillColor=none;spacingLeft=34;spacingRight=4;overflow=hidden;rotatable=0;points=[[0,0.5],[1,0.5]];portConstraint=eastwest;dropTarget=0;fontSize=12;" vertex="1" parent="zDFxx7EuyVAM1CJ_3zzb-118">
          <mxGeometry y="294" width="210" height="26" as="geometry"/>
        </mxCell>
        <mxCell id="zDFxx7EuyVAM1CJ_3zzb-142" value="" style="shape=partialRectangle;top=0;left=0;bottom=0;fillColor=none;align=left;verticalAlign=top;spacingLeft=4;spacingRight=4;overflow=hidden;rotatable=0;points=[];portConstraint=eastwest;part=1;fontSize=12;" vertex="1" connectable="0" parent="zDFxx7EuyVAM1CJ_3zzb-141">
          <mxGeometry width="30" height="26" as="geometry"/>
        </mxCell>
        <mxCell id="zDFxx7EuyVAM1CJ_3zzb-143" value="" style="shape=partialRectangle;top=0;left=0;right=0;bottom=0;align=left;verticalAlign=top;fillColor=none;spacingLeft=34;spacingRight=4;overflow=hidden;rotatable=0;points=[[0,0.5],[1,0.5]];portConstraint=eastwest;dropTarget=0;fontSize=12;" vertex="1" parent="zDFxx7EuyVAM1CJ_3zzb-118">
          <mxGeometry y="320" width="210" height="26" as="geometry"/>
        </mxCell>
        <mxCell id="zDFxx7EuyVAM1CJ_3zzb-144" value="" style="shape=partialRectangle;top=0;left=0;bottom=0;fillColor=none;align=left;verticalAlign=top;spacingLeft=4;spacingRight=4;overflow=hidden;rotatable=0;points=[];portConstraint=eastwest;part=1;fontSize=12;" vertex="1" connectable="0" parent="zDFxx7EuyVAM1CJ_3zzb-143">
          <mxGeometry width="30" height="26" as="geometry"/>
        </mxCell>
        <mxCell id="zDFxx7EuyVAM1CJ_3zzb-145" value="" style="shape=partialRectangle;top=0;left=0;right=0;bottom=0;align=left;verticalAlign=top;fillColor=none;spacingLeft=34;spacingRight=4;overflow=hidden;rotatable=0;points=[[0,0.5],[1,0.5]];portConstraint=eastwest;dropTarget=0;fontSize=12;" vertex="1" parent="zDFxx7EuyVAM1CJ_3zzb-118">
          <mxGeometry y="346" width="210" height="10" as="geometry"/>
        </mxCell>
        <mxCell id="zDFxx7EuyVAM1CJ_3zzb-146" value="" style="shape=partialRectangle;top=0;left=0;bottom=0;fillColor=none;align=left;verticalAlign=top;spacingLeft=4;spacingRight=4;overflow=hidden;rotatable=0;points=[];portConstraint=eastwest;part=1;fontSize=12;" vertex="1" connectable="0" parent="zDFxx7EuyVAM1CJ_3zzb-145">
          <mxGeometry width="30" height="10" as="geometry"/>
        </mxCell>
        <mxCell id="zDFxx7EuyVAM1CJ_3zzb-147" value="商品ジャンル" style="swimlane;fontStyle=0;childLayout=stackLayout;horizontal=1;startSize=26;fillColor=#e0e0e0;horizontalStack=0;resizeParent=1;resizeParentMax=0;resizeLast=0;collapsible=1;marginBottom=0;swimlaneFillColor=#ffffff;align=center;fontSize=14;" vertex="1" parent="1">
          <mxGeometry x="550" y="1210" width="210" height="278" as="geometry"/>
        </mxCell>
        <mxCell id="zDFxx7EuyVAM1CJ_3zzb-148" value="id" style="shape=partialRectangle;top=0;left=0;right=0;bottom=1;align=left;verticalAlign=middle;fillColor=none;spacingLeft=34;spacingRight=4;overflow=hidden;rotatable=0;points=[[0,0.5],[1,0.5]];portConstraint=eastwest;dropTarget=0;fontStyle=5;fontSize=12;" vertex="1" parent="zDFxx7EuyVAM1CJ_3zzb-147">
          <mxGeometry y="26" width="210" height="30" as="geometry"/>
        </mxCell>
        <mxCell id="zDFxx7EuyVAM1CJ_3zzb-149" value="PK" style="shape=partialRectangle;top=0;left=0;bottom=0;fillColor=none;align=left;verticalAlign=middle;spacingLeft=4;spacingRight=4;overflow=hidden;rotatable=0;points=[];portConstraint=eastwest;part=1;fontSize=12;" vertex="1" connectable="0" parent="zDFxx7EuyVAM1CJ_3zzb-148">
          <mxGeometry width="30" height="30" as="geometry"/>
        </mxCell>
        <mxCell id="zDFxx7EuyVAM1CJ_3zzb-150" value="レーベルid" style="shape=partialRectangle;top=0;left=0;right=0;bottom=1;align=left;verticalAlign=middle;fillColor=none;spacingLeft=34;spacingRight=4;overflow=hidden;rotatable=0;points=[[0,0.5],[1,0.5]];portConstraint=eastwest;dropTarget=0;fontStyle=5;fontSize=12;" vertex="1" parent="zDFxx7EuyVAM1CJ_3zzb-147">
          <mxGeometry y="56" width="210" height="30" as="geometry"/>
        </mxCell>
        <mxCell id="zDFxx7EuyVAM1CJ_3zzb-151" value="PK" style="shape=partialRectangle;top=0;left=0;bottom=0;fillColor=none;align=left;verticalAlign=middle;spacingLeft=4;spacingRight=4;overflow=hidden;rotatable=0;points=[];portConstraint=eastwest;part=1;fontSize=12;" vertex="1" connectable="0" parent="zDFxx7EuyVAM1CJ_3zzb-150">
          <mxGeometry width="30" height="30" as="geometry"/>
        </mxCell>
        <mxCell id="zDFxx7EuyVAM1CJ_3zzb-152" value="商品名" style="shape=partialRectangle;top=0;left=0;right=0;bottom=0;align=left;verticalAlign=top;fillColor=none;spacingLeft=34;spacingRight=4;overflow=hidden;rotatable=0;points=[[0,0.5],[1,0.5]];portConstraint=eastwest;dropTarget=0;fontSize=12;" vertex="1" parent="zDFxx7EuyVAM1CJ_3zzb-147">
          <mxGeometry y="86" width="210" height="26" as="geometry"/>
        </mxCell>
        <mxCell id="zDFxx7EuyVAM1CJ_3zzb-153" value="FK" style="shape=partialRectangle;top=0;left=0;bottom=0;fillColor=none;align=left;verticalAlign=top;spacingLeft=4;spacingRight=4;overflow=hidden;rotatable=0;points=[];portConstraint=eastwest;part=1;fontSize=12;" vertex="1" connectable="0" parent="zDFxx7EuyVAM1CJ_3zzb-152">
          <mxGeometry width="30" height="26" as="geometry"/>
        </mxCell>
        <mxCell id="zDFxx7EuyVAM1CJ_3zzb-158" value="" style="shape=partialRectangle;top=0;left=0;right=0;bottom=0;align=left;verticalAlign=top;fillColor=none;spacingLeft=34;spacingRight=4;overflow=hidden;rotatable=0;points=[[0,0.5],[1,0.5]];portConstraint=eastwest;dropTarget=0;fontSize=12;" vertex="1" parent="zDFxx7EuyVAM1CJ_3zzb-147">
          <mxGeometry y="112" width="210" height="26" as="geometry"/>
        </mxCell>
        <mxCell id="zDFxx7EuyVAM1CJ_3zzb-159" value="" style="shape=partialRectangle;top=0;left=0;bottom=0;fillColor=none;align=left;verticalAlign=top;spacingLeft=4;spacingRight=4;overflow=hidden;rotatable=0;points=[];portConstraint=eastwest;part=1;fontSize=12;" vertex="1" connectable="0" parent="zDFxx7EuyVAM1CJ_3zzb-158">
          <mxGeometry width="30" height="26" as="geometry"/>
        </mxCell>
        <mxCell id="zDFxx7EuyVAM1CJ_3zzb-164" value="登録日" style="shape=partialRectangle;top=0;left=0;right=0;bottom=0;align=left;verticalAlign=top;fillColor=none;spacingLeft=34;spacingRight=4;overflow=hidden;rotatable=0;points=[[0,0.5],[1,0.5]];portConstraint=eastwest;dropTarget=0;fontSize=12;" vertex="1" parent="zDFxx7EuyVAM1CJ_3zzb-147">
          <mxGeometry y="138" width="210" height="26" as="geometry"/>
        </mxCell>
        <mxCell id="zDFxx7EuyVAM1CJ_3zzb-165" value="" style="shape=partialRectangle;top=0;left=0;bottom=0;fillColor=none;align=left;verticalAlign=top;spacingLeft=4;spacingRight=4;overflow=hidden;rotatable=0;points=[];portConstraint=eastwest;part=1;fontSize=12;" vertex="1" connectable="0" parent="zDFxx7EuyVAM1CJ_3zzb-164">
          <mxGeometry width="30" height="26" as="geometry"/>
        </mxCell>
        <mxCell id="zDFxx7EuyVAM1CJ_3zzb-166" value="更新日" style="shape=partialRectangle;top=0;left=0;right=0;bottom=0;align=left;verticalAlign=top;fillColor=none;spacingLeft=34;spacingRight=4;overflow=hidden;rotatable=0;points=[[0,0.5],[1,0.5]];portConstraint=eastwest;dropTarget=0;fontSize=12;" vertex="1" parent="zDFxx7EuyVAM1CJ_3zzb-147">
          <mxGeometry y="164" width="210" height="26" as="geometry"/>
        </mxCell>
        <mxCell id="zDFxx7EuyVAM1CJ_3zzb-167" value="" style="shape=partialRectangle;top=0;left=0;bottom=0;fillColor=none;align=left;verticalAlign=top;spacingLeft=4;spacingRight=4;overflow=hidden;rotatable=0;points=[];portConstraint=eastwest;part=1;fontSize=12;" vertex="1" connectable="0" parent="zDFxx7EuyVAM1CJ_3zzb-166">
          <mxGeometry width="30" height="26" as="geometry"/>
        </mxCell>
        <mxCell id="zDFxx7EuyVAM1CJ_3zzb-160" value="" style="shape=partialRectangle;top=0;left=0;right=0;bottom=0;align=left;verticalAlign=top;fillColor=none;spacingLeft=34;spacingRight=4;overflow=hidden;rotatable=0;points=[[0,0.5],[1,0.5]];portConstraint=eastwest;dropTarget=0;fontSize=12;" vertex="1" parent="zDFxx7EuyVAM1CJ_3zzb-147">
          <mxGeometry y="190" width="210" height="26" as="geometry"/>
        </mxCell>
        <mxCell id="zDFxx7EuyVAM1CJ_3zzb-161" value="" style="shape=partialRectangle;top=0;left=0;bottom=0;fillColor=none;align=left;verticalAlign=top;spacingLeft=4;spacingRight=4;overflow=hidden;rotatable=0;points=[];portConstraint=eastwest;part=1;fontSize=12;" vertex="1" connectable="0" parent="zDFxx7EuyVAM1CJ_3zzb-160">
          <mxGeometry width="30" height="26" as="geometry"/>
        </mxCell>
        <mxCell id="zDFxx7EuyVAM1CJ_3zzb-168" value="" style="shape=partialRectangle;top=0;left=0;right=0;bottom=0;align=left;verticalAlign=top;fillColor=none;spacingLeft=34;spacingRight=4;overflow=hidden;rotatable=0;points=[[0,0.5],[1,0.5]];portConstraint=eastwest;dropTarget=0;fontSize=12;" vertex="1" parent="zDFxx7EuyVAM1CJ_3zzb-147">
          <mxGeometry y="216" width="210" height="26" as="geometry"/>
        </mxCell>
        <mxCell id="zDFxx7EuyVAM1CJ_3zzb-169" value="" style="shape=partialRectangle;top=0;left=0;bottom=0;fillColor=none;align=left;verticalAlign=top;spacingLeft=4;spacingRight=4;overflow=hidden;rotatable=0;points=[];portConstraint=eastwest;part=1;fontSize=12;" vertex="1" connectable="0" parent="zDFxx7EuyVAM1CJ_3zzb-168">
          <mxGeometry width="30" height="26" as="geometry"/>
        </mxCell>
        <mxCell id="zDFxx7EuyVAM1CJ_3zzb-162" value="" style="shape=partialRectangle;top=0;left=0;right=0;bottom=0;align=left;verticalAlign=top;fillColor=none;spacingLeft=34;spacingRight=4;overflow=hidden;rotatable=0;points=[[0,0.5],[1,0.5]];portConstraint=eastwest;dropTarget=0;fontSize=12;" vertex="1" parent="zDFxx7EuyVAM1CJ_3zzb-147">
          <mxGeometry y="242" width="210" height="26" as="geometry"/>
        </mxCell>
        <mxCell id="zDFxx7EuyVAM1CJ_3zzb-163" value="" style="shape=partialRectangle;top=0;left=0;bottom=0;fillColor=none;align=left;verticalAlign=top;spacingLeft=4;spacingRight=4;overflow=hidden;rotatable=0;points=[];portConstraint=eastwest;part=1;fontSize=12;" vertex="1" connectable="0" parent="zDFxx7EuyVAM1CJ_3zzb-162">
          <mxGeometry width="30" height="26" as="geometry"/>
        </mxCell>
        <mxCell id="zDFxx7EuyVAM1CJ_3zzb-170" value="" style="shape=partialRectangle;top=0;left=0;right=0;bottom=0;align=left;verticalAlign=top;fillColor=none;spacingLeft=34;spacingRight=4;overflow=hidden;rotatable=0;points=[[0,0.5],[1,0.5]];portConstraint=eastwest;dropTarget=0;fontSize=12;" vertex="1" parent="zDFxx7EuyVAM1CJ_3zzb-147">
          <mxGeometry y="268" width="210" height="10" as="geometry"/>
        </mxCell>
        <mxCell id="zDFxx7EuyVAM1CJ_3zzb-171" value="" style="shape=partialRectangle;top=0;left=0;bottom=0;fillColor=none;align=left;verticalAlign=top;spacingLeft=4;spacingRight=4;overflow=hidden;rotatable=0;points=[];portConstraint=eastwest;part=1;fontSize=12;" vertex="1" connectable="0" parent="zDFxx7EuyVAM1CJ_3zzb-170">
          <mxGeometry width="30" height="10" as="geometry"/>
        </mxCell>
      </root>
    </mxGraphModel>
  </diagram>
  <diagram id="ox_i_9obE3xHeyiNmG37" name="第一正規形">
    <mxGraphModel dx="872" dy="513" grid="1" gridSize="10" guides="1" tooltips="1" connect="1" arrows="1" fold="1" page="1" pageScale="1" pageWidth="827" pageHeight="1169" math="0" shadow="0">
      <root>
        <mxCell id="CXHQRFspYruuvfSu5Bny-0"/>
        <mxCell id="CXHQRFspYruuvfSu5Bny-1" parent="CXHQRFspYruuvfSu5Bny-0"/>
        <mxCell id="M7mj1pYNN2-YV7BIA4Zs-0" value="商品" style="swimlane;fontStyle=0;childLayout=stackLayout;horizontal=1;startSize=26;fillColor=#e0e0e0;horizontalStack=0;resizeParent=1;resizeParentMax=0;resizeLast=0;collapsible=1;marginBottom=0;swimlaneFillColor=#ffffff;align=center;fontSize=14;" parent="CXHQRFspYruuvfSu5Bny-1" vertex="1">
          <mxGeometry x="80" y="40" width="210" height="382" as="geometry"/>
        </mxCell>
        <mxCell id="M7mj1pYNN2-YV7BIA4Zs-1" value="id" style="shape=partialRectangle;top=0;left=0;right=0;bottom=1;align=left;verticalAlign=middle;fillColor=none;spacingLeft=34;spacingRight=4;overflow=hidden;rotatable=0;points=[[0,0.5],[1,0.5]];portConstraint=eastwest;dropTarget=0;fontStyle=5;fontSize=12;" parent="M7mj1pYNN2-YV7BIA4Zs-0" vertex="1">
          <mxGeometry y="26" width="210" height="30" as="geometry"/>
        </mxCell>
        <mxCell id="M7mj1pYNN2-YV7BIA4Zs-2" value="PK" style="shape=partialRectangle;top=0;left=0;bottom=0;fillColor=none;align=left;verticalAlign=middle;spacingLeft=4;spacingRight=4;overflow=hidden;rotatable=0;points=[];portConstraint=eastwest;part=1;fontSize=12;" parent="M7mj1pYNN2-YV7BIA4Zs-1" vertex="1" connectable="0">
          <mxGeometry width="30" height="30" as="geometry"/>
        </mxCell>
        <mxCell id="M7mj1pYNN2-YV7BIA4Zs-3" value="レーベルid" style="shape=partialRectangle;top=0;left=0;right=0;bottom=1;align=left;verticalAlign=middle;fillColor=none;spacingLeft=34;spacingRight=4;overflow=hidden;rotatable=0;points=[[0,0.5],[1,0.5]];portConstraint=eastwest;dropTarget=0;fontStyle=5;fontSize=12;" parent="M7mj1pYNN2-YV7BIA4Zs-0" vertex="1">
          <mxGeometry y="56" width="210" height="30" as="geometry"/>
        </mxCell>
        <mxCell id="M7mj1pYNN2-YV7BIA4Zs-4" value="PK" style="shape=partialRectangle;top=0;left=0;bottom=0;fillColor=none;align=left;verticalAlign=middle;spacingLeft=4;spacingRight=4;overflow=hidden;rotatable=0;points=[];portConstraint=eastwest;part=1;fontSize=12;" parent="M7mj1pYNN2-YV7BIA4Zs-3" vertex="1" connectable="0">
          <mxGeometry width="30" height="30" as="geometry"/>
        </mxCell>
        <mxCell id="M7mj1pYNN2-YV7BIA4Zs-5" value="アーティストid" style="shape=partialRectangle;top=0;left=0;right=0;bottom=0;align=left;verticalAlign=top;fillColor=none;spacingLeft=34;spacingRight=4;overflow=hidden;rotatable=0;points=[[0,0.5],[1,0.5]];portConstraint=eastwest;dropTarget=0;fontSize=12;" parent="M7mj1pYNN2-YV7BIA4Zs-0" vertex="1">
          <mxGeometry y="86" width="210" height="26" as="geometry"/>
        </mxCell>
        <mxCell id="M7mj1pYNN2-YV7BIA4Zs-6" value="FK" style="shape=partialRectangle;top=0;left=0;bottom=0;fillColor=none;align=left;verticalAlign=top;spacingLeft=4;spacingRight=4;overflow=hidden;rotatable=0;points=[];portConstraint=eastwest;part=1;fontSize=12;" parent="M7mj1pYNN2-YV7BIA4Zs-5" vertex="1" connectable="0">
          <mxGeometry width="30" height="26" as="geometry"/>
        </mxCell>
        <mxCell id="M7mj1pYNN2-YV7BIA4Zs-7" value="アーティスト名" style="shape=partialRectangle;top=0;left=0;right=0;bottom=0;align=left;verticalAlign=top;fillColor=none;spacingLeft=34;spacingRight=4;overflow=hidden;rotatable=0;points=[[0,0.5],[1,0.5]];portConstraint=eastwest;dropTarget=0;fontSize=12;" parent="M7mj1pYNN2-YV7BIA4Zs-0" vertex="1">
          <mxGeometry y="112" width="210" height="26" as="geometry"/>
        </mxCell>
        <mxCell id="M7mj1pYNN2-YV7BIA4Zs-8" value="" style="shape=partialRectangle;top=0;left=0;bottom=0;fillColor=none;align=left;verticalAlign=top;spacingLeft=4;spacingRight=4;overflow=hidden;rotatable=0;points=[];portConstraint=eastwest;part=1;fontSize=12;" parent="M7mj1pYNN2-YV7BIA4Zs-7" vertex="1" connectable="0">
          <mxGeometry width="30" height="26" as="geometry"/>
        </mxCell>
        <mxCell id="M7mj1pYNN2-YV7BIA4Zs-9" value="レーベル名" style="shape=partialRectangle;top=0;left=0;right=0;bottom=0;align=left;verticalAlign=top;fillColor=none;spacingLeft=34;spacingRight=4;overflow=hidden;rotatable=0;points=[[0,0.5],[1,0.5]];portConstraint=eastwest;dropTarget=0;fontSize=12;" parent="M7mj1pYNN2-YV7BIA4Zs-0" vertex="1">
          <mxGeometry y="138" width="210" height="26" as="geometry"/>
        </mxCell>
        <mxCell id="M7mj1pYNN2-YV7BIA4Zs-10" value="" style="shape=partialRectangle;top=0;left=0;bottom=0;fillColor=none;align=left;verticalAlign=top;spacingLeft=4;spacingRight=4;overflow=hidden;rotatable=0;points=[];portConstraint=eastwest;part=1;fontSize=12;" parent="M7mj1pYNN2-YV7BIA4Zs-9" vertex="1" connectable="0">
          <mxGeometry width="30" height="26" as="geometry"/>
        </mxCell>
        <mxCell id="M7mj1pYNN2-YV7BIA4Zs-11" value="ディスク番号" style="shape=partialRectangle;top=0;left=0;right=0;bottom=0;align=left;verticalAlign=top;fillColor=none;spacingLeft=34;spacingRight=4;overflow=hidden;rotatable=0;points=[[0,0.5],[1,0.5]];portConstraint=eastwest;dropTarget=0;fontSize=12;" parent="M7mj1pYNN2-YV7BIA4Zs-0" vertex="1">
          <mxGeometry y="164" width="210" height="26" as="geometry"/>
        </mxCell>
        <mxCell id="M7mj1pYNN2-YV7BIA4Zs-12" value="" style="shape=partialRectangle;top=0;left=0;bottom=0;fillColor=none;align=left;verticalAlign=top;spacingLeft=4;spacingRight=4;overflow=hidden;rotatable=0;points=[];portConstraint=eastwest;part=1;fontSize=12;" parent="M7mj1pYNN2-YV7BIA4Zs-11" vertex="1" connectable="0">
          <mxGeometry width="30" height="26" as="geometry"/>
        </mxCell>
        <mxCell id="M7mj1pYNN2-YV7BIA4Zs-13" value="曲名" style="shape=partialRectangle;top=0;left=0;right=0;bottom=0;align=left;verticalAlign=top;fillColor=none;spacingLeft=34;spacingRight=4;overflow=hidden;rotatable=0;points=[[0,0.5],[1,0.5]];portConstraint=eastwest;dropTarget=0;fontSize=12;" parent="M7mj1pYNN2-YV7BIA4Zs-0" vertex="1">
          <mxGeometry y="190" width="210" height="26" as="geometry"/>
        </mxCell>
        <mxCell id="M7mj1pYNN2-YV7BIA4Zs-14" value="" style="shape=partialRectangle;top=0;left=0;bottom=0;fillColor=none;align=left;verticalAlign=top;spacingLeft=4;spacingRight=4;overflow=hidden;rotatable=0;points=[];portConstraint=eastwest;part=1;fontSize=12;" parent="M7mj1pYNN2-YV7BIA4Zs-13" vertex="1" connectable="0">
          <mxGeometry width="30" height="26" as="geometry"/>
        </mxCell>
        <mxCell id="M7mj1pYNN2-YV7BIA4Zs-15" value="曲時間" style="shape=partialRectangle;top=0;left=0;right=0;bottom=0;align=left;verticalAlign=top;fillColor=none;spacingLeft=34;spacingRight=4;overflow=hidden;rotatable=0;points=[[0,0.5],[1,0.5]];portConstraint=eastwest;dropTarget=0;fontSize=12;" parent="M7mj1pYNN2-YV7BIA4Zs-0" vertex="1">
          <mxGeometry y="216" width="210" height="26" as="geometry"/>
        </mxCell>
        <mxCell id="M7mj1pYNN2-YV7BIA4Zs-16" value="" style="shape=partialRectangle;top=0;left=0;bottom=0;fillColor=none;align=left;verticalAlign=top;spacingLeft=4;spacingRight=4;overflow=hidden;rotatable=0;points=[];portConstraint=eastwest;part=1;fontSize=12;" parent="M7mj1pYNN2-YV7BIA4Zs-15" vertex="1" connectable="0">
          <mxGeometry width="30" height="26" as="geometry"/>
        </mxCell>
        <mxCell id="M7mj1pYNN2-YV7BIA4Zs-17" value="商品名" style="shape=partialRectangle;top=0;left=0;right=0;bottom=0;align=left;verticalAlign=top;fillColor=none;spacingLeft=34;spacingRight=4;overflow=hidden;rotatable=0;points=[[0,0.5],[1,0.5]];portConstraint=eastwest;dropTarget=0;fontSize=12;" parent="M7mj1pYNN2-YV7BIA4Zs-0" vertex="1">
          <mxGeometry y="242" width="210" height="26" as="geometry"/>
        </mxCell>
        <mxCell id="M7mj1pYNN2-YV7BIA4Zs-18" value="" style="shape=partialRectangle;top=0;left=0;bottom=0;fillColor=none;align=left;verticalAlign=top;spacingLeft=4;spacingRight=4;overflow=hidden;rotatable=0;points=[];portConstraint=eastwest;part=1;fontSize=12;" parent="M7mj1pYNN2-YV7BIA4Zs-17" vertex="1" connectable="0">
          <mxGeometry width="30" height="26" as="geometry"/>
        </mxCell>
        <mxCell id="M7mj1pYNN2-YV7BIA4Zs-19" value="価格" style="shape=partialRectangle;top=0;left=0;right=0;bottom=0;align=left;verticalAlign=top;fillColor=none;spacingLeft=34;spacingRight=4;overflow=hidden;rotatable=0;points=[[0,0.5],[1,0.5]];portConstraint=eastwest;dropTarget=0;fontSize=12;" parent="M7mj1pYNN2-YV7BIA4Zs-0" vertex="1">
          <mxGeometry y="268" width="210" height="26" as="geometry"/>
        </mxCell>
        <mxCell id="M7mj1pYNN2-YV7BIA4Zs-20" value="" style="shape=partialRectangle;top=0;left=0;bottom=0;fillColor=none;align=left;verticalAlign=top;spacingLeft=4;spacingRight=4;overflow=hidden;rotatable=0;points=[];portConstraint=eastwest;part=1;fontSize=12;" parent="M7mj1pYNN2-YV7BIA4Zs-19" vertex="1" connectable="0">
          <mxGeometry width="30" height="26" as="geometry"/>
        </mxCell>
        <mxCell id="M7mj1pYNN2-YV7BIA4Zs-21" value="発売日" style="shape=partialRectangle;top=0;left=0;right=0;bottom=0;align=left;verticalAlign=top;fillColor=none;spacingLeft=34;spacingRight=4;overflow=hidden;rotatable=0;points=[[0,0.5],[1,0.5]];portConstraint=eastwest;dropTarget=0;fontSize=12;" parent="M7mj1pYNN2-YV7BIA4Zs-0" vertex="1">
          <mxGeometry y="294" width="210" height="26" as="geometry"/>
        </mxCell>
        <mxCell id="M7mj1pYNN2-YV7BIA4Zs-22" value="" style="shape=partialRectangle;top=0;left=0;bottom=0;fillColor=none;align=left;verticalAlign=top;spacingLeft=4;spacingRight=4;overflow=hidden;rotatable=0;points=[];portConstraint=eastwest;part=1;fontSize=12;" parent="M7mj1pYNN2-YV7BIA4Zs-21" vertex="1" connectable="0">
          <mxGeometry width="30" height="26" as="geometry"/>
        </mxCell>
        <mxCell id="M7mj1pYNN2-YV7BIA4Zs-23" value="タイプ(シングルorアルバム)" style="shape=partialRectangle;top=0;left=0;right=0;bottom=0;align=left;verticalAlign=top;fillColor=none;spacingLeft=34;spacingRight=4;overflow=hidden;rotatable=0;points=[[0,0.5],[1,0.5]];portConstraint=eastwest;dropTarget=0;fontSize=12;" parent="M7mj1pYNN2-YV7BIA4Zs-0" vertex="1">
          <mxGeometry y="320" width="210" height="26" as="geometry"/>
        </mxCell>
        <mxCell id="M7mj1pYNN2-YV7BIA4Zs-24" value="" style="shape=partialRectangle;top=0;left=0;bottom=0;fillColor=none;align=left;verticalAlign=top;spacingLeft=4;spacingRight=4;overflow=hidden;rotatable=0;points=[];portConstraint=eastwest;part=1;fontSize=12;" parent="M7mj1pYNN2-YV7BIA4Zs-23" vertex="1" connectable="0">
          <mxGeometry width="30" height="26" as="geometry"/>
        </mxCell>
        <mxCell id="M7mj1pYNN2-YV7BIA4Zs-25" value="商品説明文" style="shape=partialRectangle;top=0;left=0;right=0;bottom=0;align=left;verticalAlign=top;fillColor=none;spacingLeft=34;spacingRight=4;overflow=hidden;rotatable=0;points=[[0,0.5],[1,0.5]];portConstraint=eastwest;dropTarget=0;fontSize=12;" parent="M7mj1pYNN2-YV7BIA4Zs-0" vertex="1">
          <mxGeometry y="346" width="210" height="26" as="geometry"/>
        </mxCell>
        <mxCell id="M7mj1pYNN2-YV7BIA4Zs-26" value="" style="shape=partialRectangle;top=0;left=0;bottom=0;fillColor=none;align=left;verticalAlign=top;spacingLeft=4;spacingRight=4;overflow=hidden;rotatable=0;points=[];portConstraint=eastwest;part=1;fontSize=12;" parent="M7mj1pYNN2-YV7BIA4Zs-25" vertex="1" connectable="0">
          <mxGeometry width="30" height="26" as="geometry"/>
        </mxCell>
        <mxCell id="M7mj1pYNN2-YV7BIA4Zs-27" value="" style="shape=partialRectangle;top=0;left=0;right=0;bottom=0;align=left;verticalAlign=top;fillColor=none;spacingLeft=34;spacingRight=4;overflow=hidden;rotatable=0;points=[[0,0.5],[1,0.5]];portConstraint=eastwest;dropTarget=0;fontSize=12;" parent="M7mj1pYNN2-YV7BIA4Zs-0" vertex="1">
          <mxGeometry y="372" width="210" height="10" as="geometry"/>
        </mxCell>
        <mxCell id="M7mj1pYNN2-YV7BIA4Zs-28" value="" style="shape=partialRectangle;top=0;left=0;bottom=0;fillColor=none;align=left;verticalAlign=top;spacingLeft=4;spacingRight=4;overflow=hidden;rotatable=0;points=[];portConstraint=eastwest;part=1;fontSize=12;" parent="M7mj1pYNN2-YV7BIA4Zs-27" vertex="1" connectable="0">
          <mxGeometry width="30" height="10" as="geometry"/>
        </mxCell>
        <mxCell id="uR8plGzVaODxJCpQ0CJ6-0" value="Text" style="text;html=1;align=center;verticalAlign=middle;resizable=0;points=[];autosize=1;" vertex="1" parent="CXHQRFspYruuvfSu5Bny-1">
          <mxGeometry x="72" y="470" width="40" height="20" as="geometry"/>
        </mxCell>
        <mxCell id="uR8plGzVaODxJCpQ0CJ6-1" value="会員" style="swimlane;fontStyle=0;childLayout=stackLayout;horizontal=1;startSize=26;fillColor=#e0e0e0;horizontalStack=0;resizeParent=1;resizeParentMax=0;resizeLast=0;collapsible=1;marginBottom=0;swimlaneFillColor=#ffffff;align=center;fontSize=14;" vertex="1" parent="CXHQRFspYruuvfSu5Bny-1">
          <mxGeometry x="50" y="450" width="210" height="382" as="geometry"/>
        </mxCell>
        <mxCell id="uR8plGzVaODxJCpQ0CJ6-2" value="会員id " style="shape=partialRectangle;top=0;left=0;right=0;bottom=1;align=left;verticalAlign=middle;fillColor=none;spacingLeft=34;spacingRight=4;overflow=hidden;rotatable=0;points=[[0,0.5],[1,0.5]];portConstraint=eastwest;dropTarget=0;fontStyle=5;fontSize=12;" vertex="1" parent="uR8plGzVaODxJCpQ0CJ6-1">
          <mxGeometry y="26" width="210" height="30" as="geometry"/>
        </mxCell>
        <mxCell id="uR8plGzVaODxJCpQ0CJ6-3" value="PK" style="shape=partialRectangle;top=0;left=0;bottom=0;fillColor=none;align=left;verticalAlign=middle;spacingLeft=4;spacingRight=4;overflow=hidden;rotatable=0;points=[];portConstraint=eastwest;part=1;fontSize=12;" vertex="1" connectable="0" parent="uR8plGzVaODxJCpQ0CJ6-2">
          <mxGeometry width="30" height="30" as="geometry"/>
        </mxCell>
        <mxCell id="uR8plGzVaODxJCpQ0CJ6-4" value="" style="shape=partialRectangle;top=0;left=0;right=0;bottom=1;align=left;verticalAlign=middle;fillColor=none;spacingLeft=34;spacingRight=4;overflow=hidden;rotatable=0;points=[[0,0.5],[1,0.5]];portConstraint=eastwest;dropTarget=0;fontStyle=5;fontSize=12;" vertex="1" parent="uR8plGzVaODxJCpQ0CJ6-1">
          <mxGeometry y="56" width="210" height="30" as="geometry"/>
        </mxCell>
        <mxCell id="uR8plGzVaODxJCpQ0CJ6-5" value="PK" style="shape=partialRectangle;top=0;left=0;bottom=0;fillColor=none;align=left;verticalAlign=middle;spacingLeft=4;spacingRight=4;overflow=hidden;rotatable=0;points=[];portConstraint=eastwest;part=1;fontSize=12;" vertex="1" connectable="0" parent="uR8plGzVaODxJCpQ0CJ6-4">
          <mxGeometry width="30" height="30" as="geometry"/>
        </mxCell>
        <mxCell id="uR8plGzVaODxJCpQ0CJ6-6" value="会員氏名" style="shape=partialRectangle;top=0;left=0;right=0;bottom=0;align=left;verticalAlign=top;fillColor=none;spacingLeft=34;spacingRight=4;overflow=hidden;rotatable=0;points=[[0,0.5],[1,0.5]];portConstraint=eastwest;dropTarget=0;fontSize=12;" vertex="1" parent="uR8plGzVaODxJCpQ0CJ6-1">
          <mxGeometry y="86" width="210" height="26" as="geometry"/>
        </mxCell>
        <mxCell id="uR8plGzVaODxJCpQ0CJ6-7" value="FK" style="shape=partialRectangle;top=0;left=0;bottom=0;fillColor=none;align=left;verticalAlign=top;spacingLeft=4;spacingRight=4;overflow=hidden;rotatable=0;points=[];portConstraint=eastwest;part=1;fontSize=12;" vertex="1" connectable="0" parent="uR8plGzVaODxJCpQ0CJ6-6">
          <mxGeometry width="30" height="26" as="geometry"/>
        </mxCell>
        <mxCell id="uR8plGzVaODxJCpQ0CJ6-8" value="メールアドレス" style="shape=partialRectangle;top=0;left=0;right=0;bottom=0;align=left;verticalAlign=top;fillColor=none;spacingLeft=34;spacingRight=4;overflow=hidden;rotatable=0;points=[[0,0.5],[1,0.5]];portConstraint=eastwest;dropTarget=0;fontSize=12;" vertex="1" parent="uR8plGzVaODxJCpQ0CJ6-1">
          <mxGeometry y="112" width="210" height="26" as="geometry"/>
        </mxCell>
        <mxCell id="uR8plGzVaODxJCpQ0CJ6-9" value="" style="shape=partialRectangle;top=0;left=0;bottom=0;fillColor=none;align=left;verticalAlign=top;spacingLeft=4;spacingRight=4;overflow=hidden;rotatable=0;points=[];portConstraint=eastwest;part=1;fontSize=12;" vertex="1" connectable="0" parent="uR8plGzVaODxJCpQ0CJ6-8">
          <mxGeometry width="30" height="26" as="geometry"/>
        </mxCell>
        <mxCell id="uR8plGzVaODxJCpQ0CJ6-10" value="パスワード" style="shape=partialRectangle;top=0;left=0;right=0;bottom=0;align=left;verticalAlign=top;fillColor=none;spacingLeft=34;spacingRight=4;overflow=hidden;rotatable=0;points=[[0,0.5],[1,0.5]];portConstraint=eastwest;dropTarget=0;fontSize=12;" vertex="1" parent="uR8plGzVaODxJCpQ0CJ6-1">
          <mxGeometry y="138" width="210" height="26" as="geometry"/>
        </mxCell>
        <mxCell id="uR8plGzVaODxJCpQ0CJ6-11" value="" style="shape=partialRectangle;top=0;left=0;bottom=0;fillColor=none;align=left;verticalAlign=top;spacingLeft=4;spacingRight=4;overflow=hidden;rotatable=0;points=[];portConstraint=eastwest;part=1;fontSize=12;" vertex="1" connectable="0" parent="uR8plGzVaODxJCpQ0CJ6-10">
          <mxGeometry width="30" height="26" as="geometry"/>
        </mxCell>
        <mxCell id="uR8plGzVaODxJCpQ0CJ6-12" value="氏名（姓名）" style="shape=partialRectangle;top=0;left=0;right=0;bottom=0;align=left;verticalAlign=top;fillColor=none;spacingLeft=34;spacingRight=4;overflow=hidden;rotatable=0;points=[[0,0.5],[1,0.5]];portConstraint=eastwest;dropTarget=0;fontSize=12;" vertex="1" parent="uR8plGzVaODxJCpQ0CJ6-1">
          <mxGeometry y="164" width="210" height="26" as="geometry"/>
        </mxCell>
        <mxCell id="uR8plGzVaODxJCpQ0CJ6-13" value="" style="shape=partialRectangle;top=0;left=0;bottom=0;fillColor=none;align=left;verticalAlign=top;spacingLeft=4;spacingRight=4;overflow=hidden;rotatable=0;points=[];portConstraint=eastwest;part=1;fontSize=12;" vertex="1" connectable="0" parent="uR8plGzVaODxJCpQ0CJ6-12">
          <mxGeometry width="30" height="26" as="geometry"/>
        </mxCell>
        <mxCell id="uR8plGzVaODxJCpQ0CJ6-14" value="氏名（かな）" style="shape=partialRectangle;top=0;left=0;right=0;bottom=0;align=left;verticalAlign=top;fillColor=none;spacingLeft=34;spacingRight=4;overflow=hidden;rotatable=0;points=[[0,0.5],[1,0.5]];portConstraint=eastwest;dropTarget=0;fontSize=12;" vertex="1" parent="uR8plGzVaODxJCpQ0CJ6-1">
          <mxGeometry y="190" width="210" height="26" as="geometry"/>
        </mxCell>
        <mxCell id="uR8plGzVaODxJCpQ0CJ6-15" value="" style="shape=partialRectangle;top=0;left=0;bottom=0;fillColor=none;align=left;verticalAlign=top;spacingLeft=4;spacingRight=4;overflow=hidden;rotatable=0;points=[];portConstraint=eastwest;part=1;fontSize=12;" vertex="1" connectable="0" parent="uR8plGzVaODxJCpQ0CJ6-14">
          <mxGeometry width="30" height="26" as="geometry"/>
        </mxCell>
        <mxCell id="uR8plGzVaODxJCpQ0CJ6-16" value="住所" style="shape=partialRectangle;top=0;left=0;right=0;bottom=0;align=left;verticalAlign=top;fillColor=none;spacingLeft=34;spacingRight=4;overflow=hidden;rotatable=0;points=[[0,0.5],[1,0.5]];portConstraint=eastwest;dropTarget=0;fontSize=12;" vertex="1" parent="uR8plGzVaODxJCpQ0CJ6-1">
          <mxGeometry y="216" width="210" height="26" as="geometry"/>
        </mxCell>
        <mxCell id="uR8plGzVaODxJCpQ0CJ6-17" value="" style="shape=partialRectangle;top=0;left=0;bottom=0;fillColor=none;align=left;verticalAlign=top;spacingLeft=4;spacingRight=4;overflow=hidden;rotatable=0;points=[];portConstraint=eastwest;part=1;fontSize=12;" vertex="1" connectable="0" parent="uR8plGzVaODxJCpQ0CJ6-16">
          <mxGeometry width="30" height="26" as="geometry"/>
        </mxCell>
        <mxCell id="uR8plGzVaODxJCpQ0CJ6-18" value="電話番号" style="shape=partialRectangle;top=0;left=0;right=0;bottom=0;align=left;verticalAlign=top;fillColor=none;spacingLeft=34;spacingRight=4;overflow=hidden;rotatable=0;points=[[0,0.5],[1,0.5]];portConstraint=eastwest;dropTarget=0;fontSize=12;" vertex="1" parent="uR8plGzVaODxJCpQ0CJ6-1">
          <mxGeometry y="242" width="210" height="26" as="geometry"/>
        </mxCell>
        <mxCell id="uR8plGzVaODxJCpQ0CJ6-19" value="" style="shape=partialRectangle;top=0;left=0;bottom=0;fillColor=none;align=left;verticalAlign=top;spacingLeft=4;spacingRight=4;overflow=hidden;rotatable=0;points=[];portConstraint=eastwest;part=1;fontSize=12;" vertex="1" connectable="0" parent="uR8plGzVaODxJCpQ0CJ6-18">
          <mxGeometry width="30" height="26" as="geometry"/>
        </mxCell>
        <mxCell id="uR8plGzVaODxJCpQ0CJ6-20" value="会員ステータス" style="shape=partialRectangle;top=0;left=0;right=0;bottom=0;align=left;verticalAlign=top;fillColor=none;spacingLeft=34;spacingRight=4;overflow=hidden;rotatable=0;points=[[0,0.5],[1,0.5]];portConstraint=eastwest;dropTarget=0;fontSize=12;" vertex="1" parent="uR8plGzVaODxJCpQ0CJ6-1">
          <mxGeometry y="268" width="210" height="26" as="geometry"/>
        </mxCell>
        <mxCell id="uR8plGzVaODxJCpQ0CJ6-21" value="" style="shape=partialRectangle;top=0;left=0;bottom=0;fillColor=none;align=left;verticalAlign=top;spacingLeft=4;spacingRight=4;overflow=hidden;rotatable=0;points=[];portConstraint=eastwest;part=1;fontSize=12;" vertex="1" connectable="0" parent="uR8plGzVaODxJCpQ0CJ6-20">
          <mxGeometry width="30" height="26" as="geometry"/>
        </mxCell>
        <mxCell id="uR8plGzVaODxJCpQ0CJ6-22" value="登録日" style="shape=partialRectangle;top=0;left=0;right=0;bottom=0;align=left;verticalAlign=top;fillColor=none;spacingLeft=34;spacingRight=4;overflow=hidden;rotatable=0;points=[[0,0.5],[1,0.5]];portConstraint=eastwest;dropTarget=0;fontSize=12;" vertex="1" parent="uR8plGzVaODxJCpQ0CJ6-1">
          <mxGeometry y="294" width="210" height="26" as="geometry"/>
        </mxCell>
        <mxCell id="uR8plGzVaODxJCpQ0CJ6-23" value="" style="shape=partialRectangle;top=0;left=0;bottom=0;fillColor=none;align=left;verticalAlign=top;spacingLeft=4;spacingRight=4;overflow=hidden;rotatable=0;points=[];portConstraint=eastwest;part=1;fontSize=12;" vertex="1" connectable="0" parent="uR8plGzVaODxJCpQ0CJ6-22">
          <mxGeometry width="30" height="26" as="geometry"/>
        </mxCell>
        <mxCell id="uR8plGzVaODxJCpQ0CJ6-24" value="更新日" style="shape=partialRectangle;top=0;left=0;right=0;bottom=0;align=left;verticalAlign=top;fillColor=none;spacingLeft=34;spacingRight=4;overflow=hidden;rotatable=0;points=[[0,0.5],[1,0.5]];portConstraint=eastwest;dropTarget=0;fontSize=12;" vertex="1" parent="uR8plGzVaODxJCpQ0CJ6-1">
          <mxGeometry y="320" width="210" height="26" as="geometry"/>
        </mxCell>
        <mxCell id="uR8plGzVaODxJCpQ0CJ6-25" value="" style="shape=partialRectangle;top=0;left=0;bottom=0;fillColor=none;align=left;verticalAlign=top;spacingLeft=4;spacingRight=4;overflow=hidden;rotatable=0;points=[];portConstraint=eastwest;part=1;fontSize=12;" vertex="1" connectable="0" parent="uR8plGzVaODxJCpQ0CJ6-24">
          <mxGeometry width="30" height="26" as="geometry"/>
        </mxCell>
        <mxCell id="uR8plGzVaODxJCpQ0CJ6-26" value="" style="shape=partialRectangle;top=0;left=0;right=0;bottom=0;align=left;verticalAlign=top;fillColor=none;spacingLeft=34;spacingRight=4;overflow=hidden;rotatable=0;points=[[0,0.5],[1,0.5]];portConstraint=eastwest;dropTarget=0;fontSize=12;" vertex="1" parent="uR8plGzVaODxJCpQ0CJ6-1">
          <mxGeometry y="346" width="210" height="26" as="geometry"/>
        </mxCell>
        <mxCell id="uR8plGzVaODxJCpQ0CJ6-27" value="" style="shape=partialRectangle;top=0;left=0;bottom=0;fillColor=none;align=left;verticalAlign=top;spacingLeft=4;spacingRight=4;overflow=hidden;rotatable=0;points=[];portConstraint=eastwest;part=1;fontSize=12;" vertex="1" connectable="0" parent="uR8plGzVaODxJCpQ0CJ6-26">
          <mxGeometry width="30" height="26" as="geometry"/>
        </mxCell>
        <mxCell id="uR8plGzVaODxJCpQ0CJ6-28" value="" style="shape=partialRectangle;top=0;left=0;right=0;bottom=0;align=left;verticalAlign=top;fillColor=none;spacingLeft=34;spacingRight=4;overflow=hidden;rotatable=0;points=[[0,0.5],[1,0.5]];portConstraint=eastwest;dropTarget=0;fontSize=12;" vertex="1" parent="uR8plGzVaODxJCpQ0CJ6-1">
          <mxGeometry y="372" width="210" height="10" as="geometry"/>
        </mxCell>
        <mxCell id="uR8plGzVaODxJCpQ0CJ6-29" value="" style="shape=partialRectangle;top=0;left=0;bottom=0;fillColor=none;align=left;verticalAlign=top;spacingLeft=4;spacingRight=4;overflow=hidden;rotatable=0;points=[];portConstraint=eastwest;part=1;fontSize=12;" vertex="1" connectable="0" parent="uR8plGzVaODxJCpQ0CJ6-28">
          <mxGeometry width="30" height="10" as="geometry"/>
        </mxCell>
        <mxCell id="uR8plGzVaODxJCpQ0CJ6-30" value="注文" style="swimlane;fontStyle=0;childLayout=stackLayout;horizontal=1;startSize=26;fillColor=#e0e0e0;horizontalStack=0;resizeParent=1;resizeParentMax=0;resizeLast=0;collapsible=1;marginBottom=0;swimlaneFillColor=#ffffff;align=center;fontSize=14;" vertex="1" parent="CXHQRFspYruuvfSu5Bny-1">
          <mxGeometry x="308" y="450" width="210" height="408" as="geometry">
            <mxRectangle x="308" y="450" width="60" height="26" as="alternateBounds"/>
          </mxGeometry>
        </mxCell>
        <mxCell id="uR8plGzVaODxJCpQ0CJ6-31" value="id" style="shape=partialRectangle;top=0;left=0;right=0;bottom=1;align=left;verticalAlign=middle;fillColor=none;spacingLeft=34;spacingRight=4;overflow=hidden;rotatable=0;points=[[0,0.5],[1,0.5]];portConstraint=eastwest;dropTarget=0;fontStyle=5;fontSize=12;" vertex="1" parent="uR8plGzVaODxJCpQ0CJ6-30">
          <mxGeometry y="26" width="210" height="30" as="geometry"/>
        </mxCell>
        <mxCell id="uR8plGzVaODxJCpQ0CJ6-32" value="PK" style="shape=partialRectangle;top=0;left=0;bottom=0;fillColor=none;align=left;verticalAlign=middle;spacingLeft=4;spacingRight=4;overflow=hidden;rotatable=0;points=[];portConstraint=eastwest;part=1;fontSize=12;" vertex="1" connectable="0" parent="uR8plGzVaODxJCpQ0CJ6-31">
          <mxGeometry width="30" height="30" as="geometry"/>
        </mxCell>
        <mxCell id="uR8plGzVaODxJCpQ0CJ6-33" value="レーベルid" style="shape=partialRectangle;top=0;left=0;right=0;bottom=1;align=left;verticalAlign=middle;fillColor=none;spacingLeft=34;spacingRight=4;overflow=hidden;rotatable=0;points=[[0,0.5],[1,0.5]];portConstraint=eastwest;dropTarget=0;fontStyle=5;fontSize=12;" vertex="1" parent="uR8plGzVaODxJCpQ0CJ6-30">
          <mxGeometry y="56" width="210" height="30" as="geometry"/>
        </mxCell>
        <mxCell id="uR8plGzVaODxJCpQ0CJ6-34" value="PK" style="shape=partialRectangle;top=0;left=0;bottom=0;fillColor=none;align=left;verticalAlign=middle;spacingLeft=4;spacingRight=4;overflow=hidden;rotatable=0;points=[];portConstraint=eastwest;part=1;fontSize=12;" vertex="1" connectable="0" parent="uR8plGzVaODxJCpQ0CJ6-33">
          <mxGeometry width="30" height="30" as="geometry"/>
        </mxCell>
        <mxCell id="uR8plGzVaODxJCpQ0CJ6-35" value="会員id" style="shape=partialRectangle;top=0;left=0;right=0;bottom=0;align=left;verticalAlign=top;fillColor=none;spacingLeft=34;spacingRight=4;overflow=hidden;rotatable=0;points=[[0,0.5],[1,0.5]];portConstraint=eastwest;dropTarget=0;fontSize=12;" vertex="1" parent="uR8plGzVaODxJCpQ0CJ6-30">
          <mxGeometry y="86" width="210" height="26" as="geometry"/>
        </mxCell>
        <mxCell id="uR8plGzVaODxJCpQ0CJ6-36" value="FK" style="shape=partialRectangle;top=0;left=0;bottom=0;fillColor=none;align=left;verticalAlign=top;spacingLeft=4;spacingRight=4;overflow=hidden;rotatable=0;points=[];portConstraint=eastwest;part=1;fontSize=12;" vertex="1" connectable="0" parent="uR8plGzVaODxJCpQ0CJ6-35">
          <mxGeometry width="30" height="26" as="geometry"/>
        </mxCell>
        <mxCell id="uR8plGzVaODxJCpQ0CJ6-37" value="注文商品" style="shape=partialRectangle;top=0;left=0;right=0;bottom=0;align=left;verticalAlign=top;fillColor=none;spacingLeft=34;spacingRight=4;overflow=hidden;rotatable=0;points=[[0,0.5],[1,0.5]];portConstraint=eastwest;dropTarget=0;fontSize=12;" vertex="1" parent="uR8plGzVaODxJCpQ0CJ6-30">
          <mxGeometry y="112" width="210" height="26" as="geometry"/>
        </mxCell>
        <mxCell id="uR8plGzVaODxJCpQ0CJ6-38" value="" style="shape=partialRectangle;top=0;left=0;bottom=0;fillColor=none;align=left;verticalAlign=top;spacingLeft=4;spacingRight=4;overflow=hidden;rotatable=0;points=[];portConstraint=eastwest;part=1;fontSize=12;" vertex="1" connectable="0" parent="uR8plGzVaODxJCpQ0CJ6-37">
          <mxGeometry width="30" height="26" as="geometry"/>
        </mxCell>
        <mxCell id="uR8plGzVaODxJCpQ0CJ6-39" value="送料" style="shape=partialRectangle;top=0;left=0;right=0;bottom=0;align=left;verticalAlign=top;fillColor=none;spacingLeft=34;spacingRight=4;overflow=hidden;rotatable=0;points=[[0,0.5],[1,0.5]];portConstraint=eastwest;dropTarget=0;fontSize=12;" vertex="1" parent="uR8plGzVaODxJCpQ0CJ6-30">
          <mxGeometry y="138" width="210" height="26" as="geometry"/>
        </mxCell>
        <mxCell id="uR8plGzVaODxJCpQ0CJ6-40" value="" style="shape=partialRectangle;top=0;left=0;bottom=0;fillColor=none;align=left;verticalAlign=top;spacingLeft=4;spacingRight=4;overflow=hidden;rotatable=0;points=[];portConstraint=eastwest;part=1;fontSize=12;" vertex="1" connectable="0" parent="uR8plGzVaODxJCpQ0CJ6-39">
          <mxGeometry width="30" height="26" as="geometry"/>
        </mxCell>
        <mxCell id="uR8plGzVaODxJCpQ0CJ6-41" value="商品小計" style="shape=partialRectangle;top=0;left=0;right=0;bottom=0;align=left;verticalAlign=top;fillColor=none;spacingLeft=34;spacingRight=4;overflow=hidden;rotatable=0;points=[[0,0.5],[1,0.5]];portConstraint=eastwest;dropTarget=0;fontSize=12;" vertex="1" parent="uR8plGzVaODxJCpQ0CJ6-30">
          <mxGeometry y="164" width="210" height="26" as="geometry"/>
        </mxCell>
        <mxCell id="uR8plGzVaODxJCpQ0CJ6-42" value="" style="shape=partialRectangle;top=0;left=0;bottom=0;fillColor=none;align=left;verticalAlign=top;spacingLeft=4;spacingRight=4;overflow=hidden;rotatable=0;points=[];portConstraint=eastwest;part=1;fontSize=12;" vertex="1" connectable="0" parent="uR8plGzVaODxJCpQ0CJ6-41">
          <mxGeometry width="30" height="26" as="geometry"/>
        </mxCell>
        <mxCell id="uR8plGzVaODxJCpQ0CJ6-43" value="発送先住所" style="shape=partialRectangle;top=0;left=0;right=0;bottom=0;align=left;verticalAlign=top;fillColor=none;spacingLeft=34;spacingRight=4;overflow=hidden;rotatable=0;points=[[0,0.5],[1,0.5]];portConstraint=eastwest;dropTarget=0;fontSize=12;" vertex="1" parent="uR8plGzVaODxJCpQ0CJ6-30">
          <mxGeometry y="190" width="210" height="26" as="geometry"/>
        </mxCell>
        <mxCell id="uR8plGzVaODxJCpQ0CJ6-44" value="" style="shape=partialRectangle;top=0;left=0;bottom=0;fillColor=none;align=left;verticalAlign=top;spacingLeft=4;spacingRight=4;overflow=hidden;rotatable=0;points=[];portConstraint=eastwest;part=1;fontSize=12;" vertex="1" connectable="0" parent="uR8plGzVaODxJCpQ0CJ6-43">
          <mxGeometry width="30" height="26" as="geometry"/>
        </mxCell>
        <mxCell id="uR8plGzVaODxJCpQ0CJ6-45" value="請求額合計" style="shape=partialRectangle;top=0;left=0;right=0;bottom=0;align=left;verticalAlign=top;fillColor=none;spacingLeft=34;spacingRight=4;overflow=hidden;rotatable=0;points=[[0,0.5],[1,0.5]];portConstraint=eastwest;dropTarget=0;fontSize=12;" vertex="1" parent="uR8plGzVaODxJCpQ0CJ6-30">
          <mxGeometry y="216" width="210" height="26" as="geometry"/>
        </mxCell>
        <mxCell id="uR8plGzVaODxJCpQ0CJ6-46" value="" style="shape=partialRectangle;top=0;left=0;bottom=0;fillColor=none;align=left;verticalAlign=top;spacingLeft=4;spacingRight=4;overflow=hidden;rotatable=0;points=[];portConstraint=eastwest;part=1;fontSize=12;" vertex="1" connectable="0" parent="uR8plGzVaODxJCpQ0CJ6-45">
          <mxGeometry width="30" height="26" as="geometry"/>
        </mxCell>
        <mxCell id="uR8plGzVaODxJCpQ0CJ6-47" value="支払い方法" style="shape=partialRectangle;top=0;left=0;right=0;bottom=0;align=left;verticalAlign=top;fillColor=none;spacingLeft=34;spacingRight=4;overflow=hidden;rotatable=0;points=[[0,0.5],[1,0.5]];portConstraint=eastwest;dropTarget=0;fontSize=12;" vertex="1" parent="uR8plGzVaODxJCpQ0CJ6-30">
          <mxGeometry y="242" width="210" height="26" as="geometry"/>
        </mxCell>
        <mxCell id="uR8plGzVaODxJCpQ0CJ6-48" value="" style="shape=partialRectangle;top=0;left=0;bottom=0;fillColor=none;align=left;verticalAlign=top;spacingLeft=4;spacingRight=4;overflow=hidden;rotatable=0;points=[];portConstraint=eastwest;part=1;fontSize=12;" vertex="1" connectable="0" parent="uR8plGzVaODxJCpQ0CJ6-47">
          <mxGeometry width="30" height="26" as="geometry"/>
        </mxCell>
        <mxCell id="uR8plGzVaODxJCpQ0CJ6-49" value="注文ステータス" style="shape=partialRectangle;top=0;left=0;right=0;bottom=0;align=left;verticalAlign=top;fillColor=none;spacingLeft=34;spacingRight=4;overflow=hidden;rotatable=0;points=[[0,0.5],[1,0.5]];portConstraint=eastwest;dropTarget=0;fontSize=12;" vertex="1" parent="uR8plGzVaODxJCpQ0CJ6-30">
          <mxGeometry y="268" width="210" height="26" as="geometry"/>
        </mxCell>
        <mxCell id="uR8plGzVaODxJCpQ0CJ6-50" value="" style="shape=partialRectangle;top=0;left=0;bottom=0;fillColor=none;align=left;verticalAlign=top;spacingLeft=4;spacingRight=4;overflow=hidden;rotatable=0;points=[];portConstraint=eastwest;part=1;fontSize=12;" vertex="1" connectable="0" parent="uR8plGzVaODxJCpQ0CJ6-49">
          <mxGeometry width="30" height="26" as="geometry"/>
        </mxCell>
        <mxCell id="uR8plGzVaODxJCpQ0CJ6-51" value="製作ステータス" style="shape=partialRectangle;top=0;left=0;right=0;bottom=0;align=left;verticalAlign=top;fillColor=none;spacingLeft=34;spacingRight=4;overflow=hidden;rotatable=0;points=[[0,0.5],[1,0.5]];portConstraint=eastwest;dropTarget=0;fontSize=12;" vertex="1" parent="uR8plGzVaODxJCpQ0CJ6-30">
          <mxGeometry y="294" width="210" height="26" as="geometry"/>
        </mxCell>
        <mxCell id="uR8plGzVaODxJCpQ0CJ6-52" value="" style="shape=partialRectangle;top=0;left=0;bottom=0;fillColor=none;align=left;verticalAlign=top;spacingLeft=4;spacingRight=4;overflow=hidden;rotatable=0;points=[];portConstraint=eastwest;part=1;fontSize=12;" vertex="1" connectable="0" parent="uR8plGzVaODxJCpQ0CJ6-51">
          <mxGeometry width="30" height="26" as="geometry"/>
        </mxCell>
        <mxCell id="uR8plGzVaODxJCpQ0CJ6-53" value="登録日" style="shape=partialRectangle;top=0;left=0;right=0;bottom=0;align=left;verticalAlign=top;fillColor=none;spacingLeft=34;spacingRight=4;overflow=hidden;rotatable=0;points=[[0,0.5],[1,0.5]];portConstraint=eastwest;dropTarget=0;fontSize=12;" vertex="1" parent="uR8plGzVaODxJCpQ0CJ6-30">
          <mxGeometry y="320" width="210" height="26" as="geometry"/>
        </mxCell>
        <mxCell id="uR8plGzVaODxJCpQ0CJ6-54" value="" style="shape=partialRectangle;top=0;left=0;bottom=0;fillColor=none;align=left;verticalAlign=top;spacingLeft=4;spacingRight=4;overflow=hidden;rotatable=0;points=[];portConstraint=eastwest;part=1;fontSize=12;" vertex="1" connectable="0" parent="uR8plGzVaODxJCpQ0CJ6-53">
          <mxGeometry width="30" height="26" as="geometry"/>
        </mxCell>
        <mxCell id="uR8plGzVaODxJCpQ0CJ6-55" value="更新日" style="shape=partialRectangle;top=0;left=0;right=0;bottom=0;align=left;verticalAlign=top;fillColor=none;spacingLeft=34;spacingRight=4;overflow=hidden;rotatable=0;points=[[0,0.5],[1,0.5]];portConstraint=eastwest;dropTarget=0;fontSize=12;" vertex="1" parent="uR8plGzVaODxJCpQ0CJ6-30">
          <mxGeometry y="346" width="210" height="26" as="geometry"/>
        </mxCell>
        <mxCell id="uR8plGzVaODxJCpQ0CJ6-56" value="" style="shape=partialRectangle;top=0;left=0;bottom=0;fillColor=none;align=left;verticalAlign=top;spacingLeft=4;spacingRight=4;overflow=hidden;rotatable=0;points=[];portConstraint=eastwest;part=1;fontSize=12;" vertex="1" connectable="0" parent="uR8plGzVaODxJCpQ0CJ6-55">
          <mxGeometry width="30" height="26" as="geometry"/>
        </mxCell>
        <mxCell id="uR8plGzVaODxJCpQ0CJ6-57" value="" style="shape=partialRectangle;top=0;left=0;right=0;bottom=0;align=left;verticalAlign=top;fillColor=none;spacingLeft=34;spacingRight=4;overflow=hidden;rotatable=0;points=[[0,0.5],[1,0.5]];portConstraint=eastwest;dropTarget=0;fontSize=12;" vertex="1" parent="uR8plGzVaODxJCpQ0CJ6-30">
          <mxGeometry y="372" width="210" height="26" as="geometry"/>
        </mxCell>
        <mxCell id="uR8plGzVaODxJCpQ0CJ6-58" value="" style="shape=partialRectangle;top=0;left=0;bottom=0;fillColor=none;align=left;verticalAlign=top;spacingLeft=4;spacingRight=4;overflow=hidden;rotatable=0;points=[];portConstraint=eastwest;part=1;fontSize=12;" vertex="1" connectable="0" parent="uR8plGzVaODxJCpQ0CJ6-57">
          <mxGeometry width="30" height="26" as="geometry"/>
        </mxCell>
        <mxCell id="uR8plGzVaODxJCpQ0CJ6-59" value="" style="shape=partialRectangle;top=0;left=0;right=0;bottom=0;align=left;verticalAlign=top;fillColor=none;spacingLeft=34;spacingRight=4;overflow=hidden;rotatable=0;points=[[0,0.5],[1,0.5]];portConstraint=eastwest;dropTarget=0;fontSize=12;" vertex="1" parent="uR8plGzVaODxJCpQ0CJ6-30">
          <mxGeometry y="398" width="210" height="10" as="geometry"/>
        </mxCell>
        <mxCell id="uR8plGzVaODxJCpQ0CJ6-60" value="" style="shape=partialRectangle;top=0;left=0;bottom=0;fillColor=none;align=left;verticalAlign=top;spacingLeft=4;spacingRight=4;overflow=hidden;rotatable=0;points=[];portConstraint=eastwest;part=1;fontSize=12;" vertex="1" connectable="0" parent="uR8plGzVaODxJCpQ0CJ6-59">
          <mxGeometry width="30" height="10" as="geometry"/>
        </mxCell>
        <mxCell id="uR8plGzVaODxJCpQ0CJ6-61" value="注文商品" style="swimlane;fontStyle=0;childLayout=stackLayout;horizontal=1;startSize=26;fillColor=#e0e0e0;horizontalStack=0;resizeParent=1;resizeParentMax=0;resizeLast=0;collapsible=1;marginBottom=0;swimlaneFillColor=#ffffff;align=center;fontSize=14;" vertex="1" parent="CXHQRFspYruuvfSu5Bny-1">
          <mxGeometry x="550" y="450" width="210" height="278" as="geometry"/>
        </mxCell>
        <mxCell id="uR8plGzVaODxJCpQ0CJ6-62" value="id" style="shape=partialRectangle;top=0;left=0;right=0;bottom=1;align=left;verticalAlign=middle;fillColor=none;spacingLeft=34;spacingRight=4;overflow=hidden;rotatable=0;points=[[0,0.5],[1,0.5]];portConstraint=eastwest;dropTarget=0;fontStyle=5;fontSize=12;" vertex="1" parent="uR8plGzVaODxJCpQ0CJ6-61">
          <mxGeometry y="26" width="210" height="30" as="geometry"/>
        </mxCell>
        <mxCell id="uR8plGzVaODxJCpQ0CJ6-63" value="PK" style="shape=partialRectangle;top=0;left=0;bottom=0;fillColor=none;align=left;verticalAlign=middle;spacingLeft=4;spacingRight=4;overflow=hidden;rotatable=0;points=[];portConstraint=eastwest;part=1;fontSize=12;" vertex="1" connectable="0" parent="uR8plGzVaODxJCpQ0CJ6-62">
          <mxGeometry width="30" height="30" as="geometry"/>
        </mxCell>
        <mxCell id="uR8plGzVaODxJCpQ0CJ6-64" value="" style="shape=partialRectangle;top=0;left=0;right=0;bottom=1;align=left;verticalAlign=middle;fillColor=none;spacingLeft=34;spacingRight=4;overflow=hidden;rotatable=0;points=[[0,0.5],[1,0.5]];portConstraint=eastwest;dropTarget=0;fontStyle=5;fontSize=12;" vertex="1" parent="uR8plGzVaODxJCpQ0CJ6-61">
          <mxGeometry y="56" width="210" height="30" as="geometry"/>
        </mxCell>
        <mxCell id="uR8plGzVaODxJCpQ0CJ6-65" value="PK" style="shape=partialRectangle;top=0;left=0;bottom=0;fillColor=none;align=left;verticalAlign=middle;spacingLeft=4;spacingRight=4;overflow=hidden;rotatable=0;points=[];portConstraint=eastwest;part=1;fontSize=12;" vertex="1" connectable="0" parent="uR8plGzVaODxJCpQ0CJ6-64">
          <mxGeometry width="30" height="30" as="geometry"/>
        </mxCell>
        <mxCell id="uR8plGzVaODxJCpQ0CJ6-66" value="注文id" style="shape=partialRectangle;top=0;left=0;right=0;bottom=0;align=left;verticalAlign=top;fillColor=none;spacingLeft=34;spacingRight=4;overflow=hidden;rotatable=0;points=[[0,0.5],[1,0.5]];portConstraint=eastwest;dropTarget=0;fontSize=12;" vertex="1" parent="uR8plGzVaODxJCpQ0CJ6-61">
          <mxGeometry y="86" width="210" height="26" as="geometry"/>
        </mxCell>
        <mxCell id="uR8plGzVaODxJCpQ0CJ6-67" value="FK" style="shape=partialRectangle;top=0;left=0;bottom=0;fillColor=none;align=left;verticalAlign=top;spacingLeft=4;spacingRight=4;overflow=hidden;rotatable=0;points=[];portConstraint=eastwest;part=1;fontSize=12;" vertex="1" connectable="0" parent="uR8plGzVaODxJCpQ0CJ6-66">
          <mxGeometry width="30" height="26" as="geometry"/>
        </mxCell>
        <mxCell id="uR8plGzVaODxJCpQ0CJ6-74" value="商品名" style="shape=partialRectangle;top=0;left=0;right=0;bottom=0;align=left;verticalAlign=top;fillColor=none;spacingLeft=34;spacingRight=4;overflow=hidden;rotatable=0;points=[[0,0.5],[1,0.5]];portConstraint=eastwest;dropTarget=0;fontSize=12;" vertex="1" parent="uR8plGzVaODxJCpQ0CJ6-61">
          <mxGeometry y="112" width="210" height="26" as="geometry"/>
        </mxCell>
        <mxCell id="uR8plGzVaODxJCpQ0CJ6-75" value="" style="shape=partialRectangle;top=0;left=0;bottom=0;fillColor=none;align=left;verticalAlign=top;spacingLeft=4;spacingRight=4;overflow=hidden;rotatable=0;points=[];portConstraint=eastwest;part=1;fontSize=12;" vertex="1" connectable="0" parent="uR8plGzVaODxJCpQ0CJ6-74">
          <mxGeometry width="30" height="26" as="geometry"/>
        </mxCell>
        <mxCell id="uR8plGzVaODxJCpQ0CJ6-68" value="個数" style="shape=partialRectangle;top=0;left=0;right=0;bottom=0;align=left;verticalAlign=top;fillColor=none;spacingLeft=34;spacingRight=4;overflow=hidden;rotatable=0;points=[[0,0.5],[1,0.5]];portConstraint=eastwest;dropTarget=0;fontSize=12;" vertex="1" parent="uR8plGzVaODxJCpQ0CJ6-61">
          <mxGeometry y="138" width="210" height="26" as="geometry"/>
        </mxCell>
        <mxCell id="uR8plGzVaODxJCpQ0CJ6-69" value="" style="shape=partialRectangle;top=0;left=0;bottom=0;fillColor=none;align=left;verticalAlign=top;spacingLeft=4;spacingRight=4;overflow=hidden;rotatable=0;points=[];portConstraint=eastwest;part=1;fontSize=12;" vertex="1" connectable="0" parent="uR8plGzVaODxJCpQ0CJ6-68">
          <mxGeometry width="30" height="26" as="geometry"/>
        </mxCell>
        <mxCell id="uR8plGzVaODxJCpQ0CJ6-70" value="登録日" style="shape=partialRectangle;top=0;left=0;right=0;bottom=0;align=left;verticalAlign=top;fillColor=none;spacingLeft=34;spacingRight=4;overflow=hidden;rotatable=0;points=[[0,0.5],[1,0.5]];portConstraint=eastwest;dropTarget=0;fontSize=12;" vertex="1" parent="uR8plGzVaODxJCpQ0CJ6-61">
          <mxGeometry y="164" width="210" height="26" as="geometry"/>
        </mxCell>
        <mxCell id="uR8plGzVaODxJCpQ0CJ6-71" value="" style="shape=partialRectangle;top=0;left=0;bottom=0;fillColor=none;align=left;verticalAlign=top;spacingLeft=4;spacingRight=4;overflow=hidden;rotatable=0;points=[];portConstraint=eastwest;part=1;fontSize=12;" vertex="1" connectable="0" parent="uR8plGzVaODxJCpQ0CJ6-70">
          <mxGeometry width="30" height="26" as="geometry"/>
        </mxCell>
        <mxCell id="uR8plGzVaODxJCpQ0CJ6-72" value="更新日" style="shape=partialRectangle;top=0;left=0;right=0;bottom=0;align=left;verticalAlign=top;fillColor=none;spacingLeft=34;spacingRight=4;overflow=hidden;rotatable=0;points=[[0,0.5],[1,0.5]];portConstraint=eastwest;dropTarget=0;fontSize=12;" vertex="1" parent="uR8plGzVaODxJCpQ0CJ6-61">
          <mxGeometry y="190" width="210" height="26" as="geometry"/>
        </mxCell>
        <mxCell id="uR8plGzVaODxJCpQ0CJ6-73" value="" style="shape=partialRectangle;top=0;left=0;bottom=0;fillColor=none;align=left;verticalAlign=top;spacingLeft=4;spacingRight=4;overflow=hidden;rotatable=0;points=[];portConstraint=eastwest;part=1;fontSize=12;" vertex="1" connectable="0" parent="uR8plGzVaODxJCpQ0CJ6-72">
          <mxGeometry width="30" height="26" as="geometry"/>
        </mxCell>
        <mxCell id="uR8plGzVaODxJCpQ0CJ6-76" value="" style="shape=partialRectangle;top=0;left=0;right=0;bottom=0;align=left;verticalAlign=top;fillColor=none;spacingLeft=34;spacingRight=4;overflow=hidden;rotatable=0;points=[[0,0.5],[1,0.5]];portConstraint=eastwest;dropTarget=0;fontSize=12;" vertex="1" parent="uR8plGzVaODxJCpQ0CJ6-61">
          <mxGeometry y="216" width="210" height="26" as="geometry"/>
        </mxCell>
        <mxCell id="uR8plGzVaODxJCpQ0CJ6-77" value="" style="shape=partialRectangle;top=0;left=0;bottom=0;fillColor=none;align=left;verticalAlign=top;spacingLeft=4;spacingRight=4;overflow=hidden;rotatable=0;points=[];portConstraint=eastwest;part=1;fontSize=12;" vertex="1" connectable="0" parent="uR8plGzVaODxJCpQ0CJ6-76">
          <mxGeometry width="30" height="26" as="geometry"/>
        </mxCell>
        <mxCell id="uR8plGzVaODxJCpQ0CJ6-78" value="" style="shape=partialRectangle;top=0;left=0;right=0;bottom=0;align=left;verticalAlign=top;fillColor=none;spacingLeft=34;spacingRight=4;overflow=hidden;rotatable=0;points=[[0,0.5],[1,0.5]];portConstraint=eastwest;dropTarget=0;fontSize=12;" vertex="1" parent="uR8plGzVaODxJCpQ0CJ6-61">
          <mxGeometry y="242" width="210" height="26" as="geometry"/>
        </mxCell>
        <mxCell id="uR8plGzVaODxJCpQ0CJ6-79" value="" style="shape=partialRectangle;top=0;left=0;bottom=0;fillColor=none;align=left;verticalAlign=top;spacingLeft=4;spacingRight=4;overflow=hidden;rotatable=0;points=[];portConstraint=eastwest;part=1;fontSize=12;" vertex="1" connectable="0" parent="uR8plGzVaODxJCpQ0CJ6-78">
          <mxGeometry width="30" height="26" as="geometry"/>
        </mxCell>
        <mxCell id="uR8plGzVaODxJCpQ0CJ6-80" value="" style="shape=partialRectangle;top=0;left=0;right=0;bottom=0;align=left;verticalAlign=top;fillColor=none;spacingLeft=34;spacingRight=4;overflow=hidden;rotatable=0;points=[[0,0.5],[1,0.5]];portConstraint=eastwest;dropTarget=0;fontSize=12;" vertex="1" parent="uR8plGzVaODxJCpQ0CJ6-61">
          <mxGeometry y="268" width="210" height="10" as="geometry"/>
        </mxCell>
        <mxCell id="uR8plGzVaODxJCpQ0CJ6-81" value="" style="shape=partialRectangle;top=0;left=0;bottom=0;fillColor=none;align=left;verticalAlign=top;spacingLeft=4;spacingRight=4;overflow=hidden;rotatable=0;points=[];portConstraint=eastwest;part=1;fontSize=12;" vertex="1" connectable="0" parent="uR8plGzVaODxJCpQ0CJ6-80">
          <mxGeometry width="30" height="10" as="geometry"/>
        </mxCell>
        <mxCell id="uR8plGzVaODxJCpQ0CJ6-82" value="商品" style="swimlane;fontStyle=0;childLayout=stackLayout;horizontal=1;startSize=26;fillColor=#e0e0e0;horizontalStack=0;resizeParent=1;resizeParentMax=0;resizeLast=0;collapsible=1;marginBottom=0;swimlaneFillColor=#ffffff;align=center;fontSize=14;" vertex="1" parent="CXHQRFspYruuvfSu5Bny-1">
          <mxGeometry x="308" y="900" width="210" height="330" as="geometry"/>
        </mxCell>
        <mxCell id="uR8plGzVaODxJCpQ0CJ6-83" value="id" style="shape=partialRectangle;top=0;left=0;right=0;bottom=1;align=left;verticalAlign=middle;fillColor=none;spacingLeft=34;spacingRight=4;overflow=hidden;rotatable=0;points=[[0,0.5],[1,0.5]];portConstraint=eastwest;dropTarget=0;fontStyle=5;fontSize=12;" vertex="1" parent="uR8plGzVaODxJCpQ0CJ6-82">
          <mxGeometry y="26" width="210" height="30" as="geometry"/>
        </mxCell>
        <mxCell id="uR8plGzVaODxJCpQ0CJ6-84" value="PK" style="shape=partialRectangle;top=0;left=0;bottom=0;fillColor=none;align=left;verticalAlign=middle;spacingLeft=4;spacingRight=4;overflow=hidden;rotatable=0;points=[];portConstraint=eastwest;part=1;fontSize=12;" vertex="1" connectable="0" parent="uR8plGzVaODxJCpQ0CJ6-83">
          <mxGeometry width="30" height="30" as="geometry"/>
        </mxCell>
        <mxCell id="uR8plGzVaODxJCpQ0CJ6-85" value="レーベルid" style="shape=partialRectangle;top=0;left=0;right=0;bottom=1;align=left;verticalAlign=middle;fillColor=none;spacingLeft=34;spacingRight=4;overflow=hidden;rotatable=0;points=[[0,0.5],[1,0.5]];portConstraint=eastwest;dropTarget=0;fontStyle=5;fontSize=12;" vertex="1" parent="uR8plGzVaODxJCpQ0CJ6-82">
          <mxGeometry y="56" width="210" height="30" as="geometry"/>
        </mxCell>
        <mxCell id="uR8plGzVaODxJCpQ0CJ6-86" value="PK" style="shape=partialRectangle;top=0;left=0;bottom=0;fillColor=none;align=left;verticalAlign=middle;spacingLeft=4;spacingRight=4;overflow=hidden;rotatable=0;points=[];portConstraint=eastwest;part=1;fontSize=12;" vertex="1" connectable="0" parent="uR8plGzVaODxJCpQ0CJ6-85">
          <mxGeometry width="30" height="30" as="geometry"/>
        </mxCell>
        <mxCell id="uR8plGzVaODxJCpQ0CJ6-87" value="商品名" style="shape=partialRectangle;top=0;left=0;right=0;bottom=0;align=left;verticalAlign=top;fillColor=none;spacingLeft=34;spacingRight=4;overflow=hidden;rotatable=0;points=[[0,0.5],[1,0.5]];portConstraint=eastwest;dropTarget=0;fontSize=12;" vertex="1" parent="uR8plGzVaODxJCpQ0CJ6-82">
          <mxGeometry y="86" width="210" height="26" as="geometry"/>
        </mxCell>
        <mxCell id="uR8plGzVaODxJCpQ0CJ6-88" value="FK" style="shape=partialRectangle;top=0;left=0;bottom=0;fillColor=none;align=left;verticalAlign=top;spacingLeft=4;spacingRight=4;overflow=hidden;rotatable=0;points=[];portConstraint=eastwest;part=1;fontSize=12;" vertex="1" connectable="0" parent="uR8plGzVaODxJCpQ0CJ6-87">
          <mxGeometry width="30" height="26" as="geometry"/>
        </mxCell>
        <mxCell id="uR8plGzVaODxJCpQ0CJ6-89" value="商品説明文" style="shape=partialRectangle;top=0;left=0;right=0;bottom=0;align=left;verticalAlign=top;fillColor=none;spacingLeft=34;spacingRight=4;overflow=hidden;rotatable=0;points=[[0,0.5],[1,0.5]];portConstraint=eastwest;dropTarget=0;fontSize=12;" vertex="1" parent="uR8plGzVaODxJCpQ0CJ6-82">
          <mxGeometry y="112" width="210" height="26" as="geometry"/>
        </mxCell>
        <mxCell id="uR8plGzVaODxJCpQ0CJ6-90" value="" style="shape=partialRectangle;top=0;left=0;bottom=0;fillColor=none;align=left;verticalAlign=top;spacingLeft=4;spacingRight=4;overflow=hidden;rotatable=0;points=[];portConstraint=eastwest;part=1;fontSize=12;" vertex="1" connectable="0" parent="uR8plGzVaODxJCpQ0CJ6-89">
          <mxGeometry width="30" height="26" as="geometry"/>
        </mxCell>
        <mxCell id="uR8plGzVaODxJCpQ0CJ6-91" value="商品画像" style="shape=partialRectangle;top=0;left=0;right=0;bottom=0;align=left;verticalAlign=top;fillColor=none;spacingLeft=34;spacingRight=4;overflow=hidden;rotatable=0;points=[[0,0.5],[1,0.5]];portConstraint=eastwest;dropTarget=0;fontSize=12;" vertex="1" parent="uR8plGzVaODxJCpQ0CJ6-82">
          <mxGeometry y="138" width="210" height="26" as="geometry"/>
        </mxCell>
        <mxCell id="uR8plGzVaODxJCpQ0CJ6-92" value="" style="shape=partialRectangle;top=0;left=0;bottom=0;fillColor=none;align=left;verticalAlign=top;spacingLeft=4;spacingRight=4;overflow=hidden;rotatable=0;points=[];portConstraint=eastwest;part=1;fontSize=12;" vertex="1" connectable="0" parent="uR8plGzVaODxJCpQ0CJ6-91">
          <mxGeometry width="30" height="26" as="geometry"/>
        </mxCell>
        <mxCell id="uR8plGzVaODxJCpQ0CJ6-93" value="ジャンルid" style="shape=partialRectangle;top=0;left=0;right=0;bottom=0;align=left;verticalAlign=top;fillColor=none;spacingLeft=34;spacingRight=4;overflow=hidden;rotatable=0;points=[[0,0.5],[1,0.5]];portConstraint=eastwest;dropTarget=0;fontSize=12;" vertex="1" parent="uR8plGzVaODxJCpQ0CJ6-82">
          <mxGeometry y="164" width="210" height="26" as="geometry"/>
        </mxCell>
        <mxCell id="uR8plGzVaODxJCpQ0CJ6-94" value="" style="shape=partialRectangle;top=0;left=0;bottom=0;fillColor=none;align=left;verticalAlign=top;spacingLeft=4;spacingRight=4;overflow=hidden;rotatable=0;points=[];portConstraint=eastwest;part=1;fontSize=12;" vertex="1" connectable="0" parent="uR8plGzVaODxJCpQ0CJ6-93">
          <mxGeometry width="30" height="26" as="geometry"/>
        </mxCell>
        <mxCell id="uR8plGzVaODxJCpQ0CJ6-95" value="販売ステータス" style="shape=partialRectangle;top=0;left=0;right=0;bottom=0;align=left;verticalAlign=top;fillColor=none;spacingLeft=34;spacingRight=4;overflow=hidden;rotatable=0;points=[[0,0.5],[1,0.5]];portConstraint=eastwest;dropTarget=0;fontSize=12;" vertex="1" parent="uR8plGzVaODxJCpQ0CJ6-82">
          <mxGeometry y="190" width="210" height="26" as="geometry"/>
        </mxCell>
        <mxCell id="uR8plGzVaODxJCpQ0CJ6-96" value="" style="shape=partialRectangle;top=0;left=0;bottom=0;fillColor=none;align=left;verticalAlign=top;spacingLeft=4;spacingRight=4;overflow=hidden;rotatable=0;points=[];portConstraint=eastwest;part=1;fontSize=12;" vertex="1" connectable="0" parent="uR8plGzVaODxJCpQ0CJ6-95">
          <mxGeometry width="30" height="26" as="geometry"/>
        </mxCell>
        <mxCell id="uR8plGzVaODxJCpQ0CJ6-97" value="税抜価格" style="shape=partialRectangle;top=0;left=0;right=0;bottom=0;align=left;verticalAlign=top;fillColor=none;spacingLeft=34;spacingRight=4;overflow=hidden;rotatable=0;points=[[0,0.5],[1,0.5]];portConstraint=eastwest;dropTarget=0;fontSize=12;" vertex="1" parent="uR8plGzVaODxJCpQ0CJ6-82">
          <mxGeometry y="216" width="210" height="26" as="geometry"/>
        </mxCell>
        <mxCell id="uR8plGzVaODxJCpQ0CJ6-98" value="" style="shape=partialRectangle;top=0;left=0;bottom=0;fillColor=none;align=left;verticalAlign=top;spacingLeft=4;spacingRight=4;overflow=hidden;rotatable=0;points=[];portConstraint=eastwest;part=1;fontSize=12;" vertex="1" connectable="0" parent="uR8plGzVaODxJCpQ0CJ6-97">
          <mxGeometry width="30" height="26" as="geometry"/>
        </mxCell>
        <mxCell id="uR8plGzVaODxJCpQ0CJ6-99" value="登録日" style="shape=partialRectangle;top=0;left=0;right=0;bottom=0;align=left;verticalAlign=top;fillColor=none;spacingLeft=34;spacingRight=4;overflow=hidden;rotatable=0;points=[[0,0.5],[1,0.5]];portConstraint=eastwest;dropTarget=0;fontSize=12;" vertex="1" parent="uR8plGzVaODxJCpQ0CJ6-82">
          <mxGeometry y="242" width="210" height="26" as="geometry"/>
        </mxCell>
        <mxCell id="uR8plGzVaODxJCpQ0CJ6-100" value="" style="shape=partialRectangle;top=0;left=0;bottom=0;fillColor=none;align=left;verticalAlign=top;spacingLeft=4;spacingRight=4;overflow=hidden;rotatable=0;points=[];portConstraint=eastwest;part=1;fontSize=12;" vertex="1" connectable="0" parent="uR8plGzVaODxJCpQ0CJ6-99">
          <mxGeometry width="30" height="26" as="geometry"/>
        </mxCell>
        <mxCell id="uR8plGzVaODxJCpQ0CJ6-101" value="更新日" style="shape=partialRectangle;top=0;left=0;right=0;bottom=0;align=left;verticalAlign=top;fillColor=none;spacingLeft=34;spacingRight=4;overflow=hidden;rotatable=0;points=[[0,0.5],[1,0.5]];portConstraint=eastwest;dropTarget=0;fontSize=12;" vertex="1" parent="uR8plGzVaODxJCpQ0CJ6-82">
          <mxGeometry y="268" width="210" height="26" as="geometry"/>
        </mxCell>
        <mxCell id="uR8plGzVaODxJCpQ0CJ6-102" value="" style="shape=partialRectangle;top=0;left=0;bottom=0;fillColor=none;align=left;verticalAlign=top;spacingLeft=4;spacingRight=4;overflow=hidden;rotatable=0;points=[];portConstraint=eastwest;part=1;fontSize=12;" vertex="1" connectable="0" parent="uR8plGzVaODxJCpQ0CJ6-101">
          <mxGeometry width="30" height="26" as="geometry"/>
        </mxCell>
        <mxCell id="uR8plGzVaODxJCpQ0CJ6-103" value="" style="shape=partialRectangle;top=0;left=0;right=0;bottom=0;align=left;verticalAlign=top;fillColor=none;spacingLeft=34;spacingRight=4;overflow=hidden;rotatable=0;points=[[0,0.5],[1,0.5]];portConstraint=eastwest;dropTarget=0;fontSize=12;" vertex="1" parent="uR8plGzVaODxJCpQ0CJ6-82">
          <mxGeometry y="294" width="210" height="26" as="geometry"/>
        </mxCell>
        <mxCell id="uR8plGzVaODxJCpQ0CJ6-104" value="" style="shape=partialRectangle;top=0;left=0;bottom=0;fillColor=none;align=left;verticalAlign=top;spacingLeft=4;spacingRight=4;overflow=hidden;rotatable=0;points=[];portConstraint=eastwest;part=1;fontSize=12;" vertex="1" connectable="0" parent="uR8plGzVaODxJCpQ0CJ6-103">
          <mxGeometry width="30" height="26" as="geometry"/>
        </mxCell>
        <mxCell id="uR8plGzVaODxJCpQ0CJ6-105" value="" style="shape=partialRectangle;top=0;left=0;right=0;bottom=0;align=left;verticalAlign=top;fillColor=none;spacingLeft=34;spacingRight=4;overflow=hidden;rotatable=0;points=[[0,0.5],[1,0.5]];portConstraint=eastwest;dropTarget=0;fontSize=12;" vertex="1" parent="uR8plGzVaODxJCpQ0CJ6-82">
          <mxGeometry y="320" width="210" height="10" as="geometry"/>
        </mxCell>
        <mxCell id="uR8plGzVaODxJCpQ0CJ6-106" value="" style="shape=partialRectangle;top=0;left=0;bottom=0;fillColor=none;align=left;verticalAlign=top;spacingLeft=4;spacingRight=4;overflow=hidden;rotatable=0;points=[];portConstraint=eastwest;part=1;fontSize=12;" vertex="1" connectable="0" parent="uR8plGzVaODxJCpQ0CJ6-105">
          <mxGeometry width="30" height="10" as="geometry"/>
        </mxCell>
        <mxCell id="uR8plGzVaODxJCpQ0CJ6-107" value="カート" style="swimlane;fontStyle=0;childLayout=stackLayout;horizontal=1;startSize=26;fillColor=#e0e0e0;horizontalStack=0;resizeParent=1;resizeParentMax=0;resizeLast=0;collapsible=1;marginBottom=0;swimlaneFillColor=#ffffff;align=center;fontSize=14;" vertex="1" parent="CXHQRFspYruuvfSu5Bny-1">
          <mxGeometry x="550" y="780" width="210" height="382" as="geometry">
            <mxRectangle x="308" y="450" width="60" height="26" as="alternateBounds"/>
          </mxGeometry>
        </mxCell>
        <mxCell id="uR8plGzVaODxJCpQ0CJ6-108" value="id" style="shape=partialRectangle;top=0;left=0;right=0;bottom=1;align=left;verticalAlign=middle;fillColor=none;spacingLeft=34;spacingRight=4;overflow=hidden;rotatable=0;points=[[0,0.5],[1,0.5]];portConstraint=eastwest;dropTarget=0;fontStyle=5;fontSize=12;" vertex="1" parent="uR8plGzVaODxJCpQ0CJ6-107">
          <mxGeometry y="26" width="210" height="30" as="geometry"/>
        </mxCell>
        <mxCell id="uR8plGzVaODxJCpQ0CJ6-109" value="PK" style="shape=partialRectangle;top=0;left=0;bottom=0;fillColor=none;align=left;verticalAlign=middle;spacingLeft=4;spacingRight=4;overflow=hidden;rotatable=0;points=[];portConstraint=eastwest;part=1;fontSize=12;" vertex="1" connectable="0" parent="uR8plGzVaODxJCpQ0CJ6-108">
          <mxGeometry width="30" height="30" as="geometry"/>
        </mxCell>
        <mxCell id="uR8plGzVaODxJCpQ0CJ6-110" value="レーベルid" style="shape=partialRectangle;top=0;left=0;right=0;bottom=1;align=left;verticalAlign=middle;fillColor=none;spacingLeft=34;spacingRight=4;overflow=hidden;rotatable=0;points=[[0,0.5],[1,0.5]];portConstraint=eastwest;dropTarget=0;fontStyle=5;fontSize=12;" vertex="1" parent="uR8plGzVaODxJCpQ0CJ6-107">
          <mxGeometry y="56" width="210" height="30" as="geometry"/>
        </mxCell>
        <mxCell id="uR8plGzVaODxJCpQ0CJ6-111" value="PK" style="shape=partialRectangle;top=0;left=0;bottom=0;fillColor=none;align=left;verticalAlign=middle;spacingLeft=4;spacingRight=4;overflow=hidden;rotatable=0;points=[];portConstraint=eastwest;part=1;fontSize=12;" vertex="1" connectable="0" parent="uR8plGzVaODxJCpQ0CJ6-110">
          <mxGeometry width="30" height="30" as="geometry"/>
        </mxCell>
        <mxCell id="uR8plGzVaODxJCpQ0CJ6-112" value="会員id" style="shape=partialRectangle;top=0;left=0;right=0;bottom=0;align=left;verticalAlign=top;fillColor=none;spacingLeft=34;spacingRight=4;overflow=hidden;rotatable=0;points=[[0,0.5],[1,0.5]];portConstraint=eastwest;dropTarget=0;fontSize=12;" vertex="1" parent="uR8plGzVaODxJCpQ0CJ6-107">
          <mxGeometry y="86" width="210" height="26" as="geometry"/>
        </mxCell>
        <mxCell id="uR8plGzVaODxJCpQ0CJ6-113" value="FK" style="shape=partialRectangle;top=0;left=0;bottom=0;fillColor=none;align=left;verticalAlign=top;spacingLeft=4;spacingRight=4;overflow=hidden;rotatable=0;points=[];portConstraint=eastwest;part=1;fontSize=12;" vertex="1" connectable="0" parent="uR8plGzVaODxJCpQ0CJ6-112">
          <mxGeometry width="30" height="26" as="geometry"/>
        </mxCell>
        <mxCell id="uR8plGzVaODxJCpQ0CJ6-114" value="注文商品" style="shape=partialRectangle;top=0;left=0;right=0;bottom=0;align=left;verticalAlign=top;fillColor=none;spacingLeft=34;spacingRight=4;overflow=hidden;rotatable=0;points=[[0,0.5],[1,0.5]];portConstraint=eastwest;dropTarget=0;fontSize=12;" vertex="1" parent="uR8plGzVaODxJCpQ0CJ6-107">
          <mxGeometry y="112" width="210" height="26" as="geometry"/>
        </mxCell>
        <mxCell id="uR8plGzVaODxJCpQ0CJ6-115" value="" style="shape=partialRectangle;top=0;left=0;bottom=0;fillColor=none;align=left;verticalAlign=top;spacingLeft=4;spacingRight=4;overflow=hidden;rotatable=0;points=[];portConstraint=eastwest;part=1;fontSize=12;" vertex="1" connectable="0" parent="uR8plGzVaODxJCpQ0CJ6-114">
          <mxGeometry width="30" height="26" as="geometry"/>
        </mxCell>
        <mxCell id="uR8plGzVaODxJCpQ0CJ6-116" value="送料" style="shape=partialRectangle;top=0;left=0;right=0;bottom=0;align=left;verticalAlign=top;fillColor=none;spacingLeft=34;spacingRight=4;overflow=hidden;rotatable=0;points=[[0,0.5],[1,0.5]];portConstraint=eastwest;dropTarget=0;fontSize=12;" vertex="1" parent="uR8plGzVaODxJCpQ0CJ6-107">
          <mxGeometry y="138" width="210" height="26" as="geometry"/>
        </mxCell>
        <mxCell id="uR8plGzVaODxJCpQ0CJ6-117" value="" style="shape=partialRectangle;top=0;left=0;bottom=0;fillColor=none;align=left;verticalAlign=top;spacingLeft=4;spacingRight=4;overflow=hidden;rotatable=0;points=[];portConstraint=eastwest;part=1;fontSize=12;" vertex="1" connectable="0" parent="uR8plGzVaODxJCpQ0CJ6-116">
          <mxGeometry width="30" height="26" as="geometry"/>
        </mxCell>
        <mxCell id="uR8plGzVaODxJCpQ0CJ6-118" value="商品小計" style="shape=partialRectangle;top=0;left=0;right=0;bottom=0;align=left;verticalAlign=top;fillColor=none;spacingLeft=34;spacingRight=4;overflow=hidden;rotatable=0;points=[[0,0.5],[1,0.5]];portConstraint=eastwest;dropTarget=0;fontSize=12;" vertex="1" parent="uR8plGzVaODxJCpQ0CJ6-107">
          <mxGeometry y="164" width="210" height="26" as="geometry"/>
        </mxCell>
        <mxCell id="uR8plGzVaODxJCpQ0CJ6-119" value="" style="shape=partialRectangle;top=0;left=0;bottom=0;fillColor=none;align=left;verticalAlign=top;spacingLeft=4;spacingRight=4;overflow=hidden;rotatable=0;points=[];portConstraint=eastwest;part=1;fontSize=12;" vertex="1" connectable="0" parent="uR8plGzVaODxJCpQ0CJ6-118">
          <mxGeometry width="30" height="26" as="geometry"/>
        </mxCell>
        <mxCell id="uR8plGzVaODxJCpQ0CJ6-120" value="発送先住所" style="shape=partialRectangle;top=0;left=0;right=0;bottom=0;align=left;verticalAlign=top;fillColor=none;spacingLeft=34;spacingRight=4;overflow=hidden;rotatable=0;points=[[0,0.5],[1,0.5]];portConstraint=eastwest;dropTarget=0;fontSize=12;" vertex="1" parent="uR8plGzVaODxJCpQ0CJ6-107">
          <mxGeometry y="190" width="210" height="26" as="geometry"/>
        </mxCell>
        <mxCell id="uR8plGzVaODxJCpQ0CJ6-121" value="" style="shape=partialRectangle;top=0;left=0;bottom=0;fillColor=none;align=left;verticalAlign=top;spacingLeft=4;spacingRight=4;overflow=hidden;rotatable=0;points=[];portConstraint=eastwest;part=1;fontSize=12;" vertex="1" connectable="0" parent="uR8plGzVaODxJCpQ0CJ6-120">
          <mxGeometry width="30" height="26" as="geometry"/>
        </mxCell>
        <mxCell id="uR8plGzVaODxJCpQ0CJ6-122" value="支払い方法" style="shape=partialRectangle;top=0;left=0;right=0;bottom=0;align=left;verticalAlign=top;fillColor=none;spacingLeft=34;spacingRight=4;overflow=hidden;rotatable=0;points=[[0,0.5],[1,0.5]];portConstraint=eastwest;dropTarget=0;fontSize=12;" vertex="1" parent="uR8plGzVaODxJCpQ0CJ6-107">
          <mxGeometry y="216" width="210" height="26" as="geometry"/>
        </mxCell>
        <mxCell id="uR8plGzVaODxJCpQ0CJ6-123" value="" style="shape=partialRectangle;top=0;left=0;bottom=0;fillColor=none;align=left;verticalAlign=top;spacingLeft=4;spacingRight=4;overflow=hidden;rotatable=0;points=[];portConstraint=eastwest;part=1;fontSize=12;" vertex="1" connectable="0" parent="uR8plGzVaODxJCpQ0CJ6-122">
          <mxGeometry width="30" height="26" as="geometry"/>
        </mxCell>
        <mxCell id="uR8plGzVaODxJCpQ0CJ6-124" value="注文ステータス" style="shape=partialRectangle;top=0;left=0;right=0;bottom=0;align=left;verticalAlign=top;fillColor=none;spacingLeft=34;spacingRight=4;overflow=hidden;rotatable=0;points=[[0,0.5],[1,0.5]];portConstraint=eastwest;dropTarget=0;fontSize=12;" vertex="1" parent="uR8plGzVaODxJCpQ0CJ6-107">
          <mxGeometry y="242" width="210" height="26" as="geometry"/>
        </mxCell>
        <mxCell id="uR8plGzVaODxJCpQ0CJ6-125" value="" style="shape=partialRectangle;top=0;left=0;bottom=0;fillColor=none;align=left;verticalAlign=top;spacingLeft=4;spacingRight=4;overflow=hidden;rotatable=0;points=[];portConstraint=eastwest;part=1;fontSize=12;" vertex="1" connectable="0" parent="uR8plGzVaODxJCpQ0CJ6-124">
          <mxGeometry width="30" height="26" as="geometry"/>
        </mxCell>
        <mxCell id="uR8plGzVaODxJCpQ0CJ6-126" value="製作ステータス" style="shape=partialRectangle;top=0;left=0;right=0;bottom=0;align=left;verticalAlign=top;fillColor=none;spacingLeft=34;spacingRight=4;overflow=hidden;rotatable=0;points=[[0,0.5],[1,0.5]];portConstraint=eastwest;dropTarget=0;fontSize=12;" vertex="1" parent="uR8plGzVaODxJCpQ0CJ6-107">
          <mxGeometry y="268" width="210" height="26" as="geometry"/>
        </mxCell>
        <mxCell id="uR8plGzVaODxJCpQ0CJ6-127" value="" style="shape=partialRectangle;top=0;left=0;bottom=0;fillColor=none;align=left;verticalAlign=top;spacingLeft=4;spacingRight=4;overflow=hidden;rotatable=0;points=[];portConstraint=eastwest;part=1;fontSize=12;" vertex="1" connectable="0" parent="uR8plGzVaODxJCpQ0CJ6-126">
          <mxGeometry width="30" height="26" as="geometry"/>
        </mxCell>
        <mxCell id="uR8plGzVaODxJCpQ0CJ6-128" value="登録日" style="shape=partialRectangle;top=0;left=0;right=0;bottom=0;align=left;verticalAlign=top;fillColor=none;spacingLeft=34;spacingRight=4;overflow=hidden;rotatable=0;points=[[0,0.5],[1,0.5]];portConstraint=eastwest;dropTarget=0;fontSize=12;" vertex="1" parent="uR8plGzVaODxJCpQ0CJ6-107">
          <mxGeometry y="294" width="210" height="26" as="geometry"/>
        </mxCell>
        <mxCell id="uR8plGzVaODxJCpQ0CJ6-129" value="" style="shape=partialRectangle;top=0;left=0;bottom=0;fillColor=none;align=left;verticalAlign=top;spacingLeft=4;spacingRight=4;overflow=hidden;rotatable=0;points=[];portConstraint=eastwest;part=1;fontSize=12;" vertex="1" connectable="0" parent="uR8plGzVaODxJCpQ0CJ6-128">
          <mxGeometry width="30" height="26" as="geometry"/>
        </mxCell>
        <mxCell id="uR8plGzVaODxJCpQ0CJ6-130" value="更新日" style="shape=partialRectangle;top=0;left=0;right=0;bottom=0;align=left;verticalAlign=top;fillColor=none;spacingLeft=34;spacingRight=4;overflow=hidden;rotatable=0;points=[[0,0.5],[1,0.5]];portConstraint=eastwest;dropTarget=0;fontSize=12;" vertex="1" parent="uR8plGzVaODxJCpQ0CJ6-107">
          <mxGeometry y="320" width="210" height="26" as="geometry"/>
        </mxCell>
        <mxCell id="uR8plGzVaODxJCpQ0CJ6-131" value="" style="shape=partialRectangle;top=0;left=0;bottom=0;fillColor=none;align=left;verticalAlign=top;spacingLeft=4;spacingRight=4;overflow=hidden;rotatable=0;points=[];portConstraint=eastwest;part=1;fontSize=12;" vertex="1" connectable="0" parent="uR8plGzVaODxJCpQ0CJ6-130">
          <mxGeometry width="30" height="26" as="geometry"/>
        </mxCell>
        <mxCell id="uR8plGzVaODxJCpQ0CJ6-132" value="" style="shape=partialRectangle;top=0;left=0;right=0;bottom=0;align=left;verticalAlign=top;fillColor=none;spacingLeft=34;spacingRight=4;overflow=hidden;rotatable=0;points=[[0,0.5],[1,0.5]];portConstraint=eastwest;dropTarget=0;fontSize=12;" vertex="1" parent="uR8plGzVaODxJCpQ0CJ6-107">
          <mxGeometry y="346" width="210" height="26" as="geometry"/>
        </mxCell>
        <mxCell id="uR8plGzVaODxJCpQ0CJ6-133" value="" style="shape=partialRectangle;top=0;left=0;bottom=0;fillColor=none;align=left;verticalAlign=top;spacingLeft=4;spacingRight=4;overflow=hidden;rotatable=0;points=[];portConstraint=eastwest;part=1;fontSize=12;" vertex="1" connectable="0" parent="uR8plGzVaODxJCpQ0CJ6-132">
          <mxGeometry width="30" height="26" as="geometry"/>
        </mxCell>
        <mxCell id="uR8plGzVaODxJCpQ0CJ6-134" value="" style="shape=partialRectangle;top=0;left=0;right=0;bottom=0;align=left;verticalAlign=top;fillColor=none;spacingLeft=34;spacingRight=4;overflow=hidden;rotatable=0;points=[[0,0.5],[1,0.5]];portConstraint=eastwest;dropTarget=0;fontSize=12;" vertex="1" parent="uR8plGzVaODxJCpQ0CJ6-107">
          <mxGeometry y="372" width="210" height="10" as="geometry"/>
        </mxCell>
        <mxCell id="uR8plGzVaODxJCpQ0CJ6-135" value="" style="shape=partialRectangle;top=0;left=0;bottom=0;fillColor=none;align=left;verticalAlign=top;spacingLeft=4;spacingRight=4;overflow=hidden;rotatable=0;points=[];portConstraint=eastwest;part=1;fontSize=12;" vertex="1" connectable="0" parent="uR8plGzVaODxJCpQ0CJ6-134">
          <mxGeometry width="30" height="10" as="geometry"/>
        </mxCell>
        <mxCell id="uR8plGzVaODxJCpQ0CJ6-136" value="注文履歴" style="swimlane;fontStyle=0;childLayout=stackLayout;horizontal=1;startSize=26;fillColor=#e0e0e0;horizontalStack=0;resizeParent=1;resizeParentMax=0;resizeLast=0;collapsible=1;marginBottom=0;swimlaneFillColor=#ffffff;align=center;fontSize=14;" vertex="1" parent="CXHQRFspYruuvfSu5Bny-1">
          <mxGeometry x="50" y="890" width="210" height="356" as="geometry">
            <mxRectangle x="308" y="450" width="60" height="26" as="alternateBounds"/>
          </mxGeometry>
        </mxCell>
        <mxCell id="uR8plGzVaODxJCpQ0CJ6-137" value="id" style="shape=partialRectangle;top=0;left=0;right=0;bottom=1;align=left;verticalAlign=middle;fillColor=none;spacingLeft=34;spacingRight=4;overflow=hidden;rotatable=0;points=[[0,0.5],[1,0.5]];portConstraint=eastwest;dropTarget=0;fontStyle=5;fontSize=12;" vertex="1" parent="uR8plGzVaODxJCpQ0CJ6-136">
          <mxGeometry y="26" width="210" height="30" as="geometry"/>
        </mxCell>
        <mxCell id="uR8plGzVaODxJCpQ0CJ6-138" value="PK" style="shape=partialRectangle;top=0;left=0;bottom=0;fillColor=none;align=left;verticalAlign=middle;spacingLeft=4;spacingRight=4;overflow=hidden;rotatable=0;points=[];portConstraint=eastwest;part=1;fontSize=12;" vertex="1" connectable="0" parent="uR8plGzVaODxJCpQ0CJ6-137">
          <mxGeometry width="30" height="30" as="geometry"/>
        </mxCell>
        <mxCell id="uR8plGzVaODxJCpQ0CJ6-139" value="注文id" style="shape=partialRectangle;top=0;left=0;right=0;bottom=1;align=left;verticalAlign=middle;fillColor=none;spacingLeft=34;spacingRight=4;overflow=hidden;rotatable=0;points=[[0,0.5],[1,0.5]];portConstraint=eastwest;dropTarget=0;fontStyle=5;fontSize=12;" vertex="1" parent="uR8plGzVaODxJCpQ0CJ6-136">
          <mxGeometry y="56" width="210" height="30" as="geometry"/>
        </mxCell>
        <mxCell id="uR8plGzVaODxJCpQ0CJ6-140" value="PK" style="shape=partialRectangle;top=0;left=0;bottom=0;fillColor=none;align=left;verticalAlign=middle;spacingLeft=4;spacingRight=4;overflow=hidden;rotatable=0;points=[];portConstraint=eastwest;part=1;fontSize=12;" vertex="1" connectable="0" parent="uR8plGzVaODxJCpQ0CJ6-139">
          <mxGeometry width="30" height="30" as="geometry"/>
        </mxCell>
        <mxCell id="uR8plGzVaODxJCpQ0CJ6-141" value="会員id" style="shape=partialRectangle;top=0;left=0;right=0;bottom=0;align=left;verticalAlign=top;fillColor=none;spacingLeft=34;spacingRight=4;overflow=hidden;rotatable=0;points=[[0,0.5],[1,0.5]];portConstraint=eastwest;dropTarget=0;fontSize=12;" vertex="1" parent="uR8plGzVaODxJCpQ0CJ6-136">
          <mxGeometry y="86" width="210" height="26" as="geometry"/>
        </mxCell>
        <mxCell id="uR8plGzVaODxJCpQ0CJ6-142" value="FK" style="shape=partialRectangle;top=0;left=0;bottom=0;fillColor=none;align=left;verticalAlign=top;spacingLeft=4;spacingRight=4;overflow=hidden;rotatable=0;points=[];portConstraint=eastwest;part=1;fontSize=12;" vertex="1" connectable="0" parent="uR8plGzVaODxJCpQ0CJ6-141">
          <mxGeometry width="30" height="26" as="geometry"/>
        </mxCell>
        <mxCell id="uR8plGzVaODxJCpQ0CJ6-143" value="注文商品" style="shape=partialRectangle;top=0;left=0;right=0;bottom=0;align=left;verticalAlign=top;fillColor=none;spacingLeft=34;spacingRight=4;overflow=hidden;rotatable=0;points=[[0,0.5],[1,0.5]];portConstraint=eastwest;dropTarget=0;fontSize=12;" vertex="1" parent="uR8plGzVaODxJCpQ0CJ6-136">
          <mxGeometry y="112" width="210" height="26" as="geometry"/>
        </mxCell>
        <mxCell id="uR8plGzVaODxJCpQ0CJ6-144" value="" style="shape=partialRectangle;top=0;left=0;bottom=0;fillColor=none;align=left;verticalAlign=top;spacingLeft=4;spacingRight=4;overflow=hidden;rotatable=0;points=[];portConstraint=eastwest;part=1;fontSize=12;" vertex="1" connectable="0" parent="uR8plGzVaODxJCpQ0CJ6-143">
          <mxGeometry width="30" height="26" as="geometry"/>
        </mxCell>
        <mxCell id="uR8plGzVaODxJCpQ0CJ6-145" value="注文日" style="shape=partialRectangle;top=0;left=0;right=0;bottom=0;align=left;verticalAlign=top;fillColor=none;spacingLeft=34;spacingRight=4;overflow=hidden;rotatable=0;points=[[0,0.5],[1,0.5]];portConstraint=eastwest;dropTarget=0;fontSize=12;" vertex="1" parent="uR8plGzVaODxJCpQ0CJ6-136">
          <mxGeometry y="138" width="210" height="26" as="geometry"/>
        </mxCell>
        <mxCell id="uR8plGzVaODxJCpQ0CJ6-146" value="" style="shape=partialRectangle;top=0;left=0;bottom=0;fillColor=none;align=left;verticalAlign=top;spacingLeft=4;spacingRight=4;overflow=hidden;rotatable=0;points=[];portConstraint=eastwest;part=1;fontSize=12;" vertex="1" connectable="0" parent="uR8plGzVaODxJCpQ0CJ6-145">
          <mxGeometry width="30" height="26" as="geometry"/>
        </mxCell>
        <mxCell id="uR8plGzVaODxJCpQ0CJ6-147" value="発送先住所" style="shape=partialRectangle;top=0;left=0;right=0;bottom=0;align=left;verticalAlign=top;fillColor=none;spacingLeft=34;spacingRight=4;overflow=hidden;rotatable=0;points=[[0,0.5],[1,0.5]];portConstraint=eastwest;dropTarget=0;fontSize=12;" vertex="1" parent="uR8plGzVaODxJCpQ0CJ6-136">
          <mxGeometry y="164" width="210" height="26" as="geometry"/>
        </mxCell>
        <mxCell id="uR8plGzVaODxJCpQ0CJ6-148" value="" style="shape=partialRectangle;top=0;left=0;bottom=0;fillColor=none;align=left;verticalAlign=top;spacingLeft=4;spacingRight=4;overflow=hidden;rotatable=0;points=[];portConstraint=eastwest;part=1;fontSize=12;" vertex="1" connectable="0" parent="uR8plGzVaODxJCpQ0CJ6-147">
          <mxGeometry width="30" height="26" as="geometry"/>
        </mxCell>
        <mxCell id="uR8plGzVaODxJCpQ0CJ6-149" value="支払い方法" style="shape=partialRectangle;top=0;left=0;right=0;bottom=0;align=left;verticalAlign=top;fillColor=none;spacingLeft=34;spacingRight=4;overflow=hidden;rotatable=0;points=[[0,0.5],[1,0.5]];portConstraint=eastwest;dropTarget=0;fontSize=12;" vertex="1" parent="uR8plGzVaODxJCpQ0CJ6-136">
          <mxGeometry y="190" width="210" height="26" as="geometry"/>
        </mxCell>
        <mxCell id="uR8plGzVaODxJCpQ0CJ6-150" value="" style="shape=partialRectangle;top=0;left=0;bottom=0;fillColor=none;align=left;verticalAlign=top;spacingLeft=4;spacingRight=4;overflow=hidden;rotatable=0;points=[];portConstraint=eastwest;part=1;fontSize=12;" vertex="1" connectable="0" parent="uR8plGzVaODxJCpQ0CJ6-149">
          <mxGeometry width="30" height="26" as="geometry"/>
        </mxCell>
        <mxCell id="uR8plGzVaODxJCpQ0CJ6-151" value="注文ステータス" style="shape=partialRectangle;top=0;left=0;right=0;bottom=0;align=left;verticalAlign=top;fillColor=none;spacingLeft=34;spacingRight=4;overflow=hidden;rotatable=0;points=[[0,0.5],[1,0.5]];portConstraint=eastwest;dropTarget=0;fontSize=12;" vertex="1" parent="uR8plGzVaODxJCpQ0CJ6-136">
          <mxGeometry y="216" width="210" height="26" as="geometry"/>
        </mxCell>
        <mxCell id="uR8plGzVaODxJCpQ0CJ6-152" value="" style="shape=partialRectangle;top=0;left=0;bottom=0;fillColor=none;align=left;verticalAlign=top;spacingLeft=4;spacingRight=4;overflow=hidden;rotatable=0;points=[];portConstraint=eastwest;part=1;fontSize=12;" vertex="1" connectable="0" parent="uR8plGzVaODxJCpQ0CJ6-151">
          <mxGeometry width="30" height="26" as="geometry"/>
        </mxCell>
        <mxCell id="uR8plGzVaODxJCpQ0CJ6-153" value="製作ステータス" style="shape=partialRectangle;top=0;left=0;right=0;bottom=0;align=left;verticalAlign=top;fillColor=none;spacingLeft=34;spacingRight=4;overflow=hidden;rotatable=0;points=[[0,0.5],[1,0.5]];portConstraint=eastwest;dropTarget=0;fontSize=12;" vertex="1" parent="uR8plGzVaODxJCpQ0CJ6-136">
          <mxGeometry y="242" width="210" height="26" as="geometry"/>
        </mxCell>
        <mxCell id="uR8plGzVaODxJCpQ0CJ6-154" value="" style="shape=partialRectangle;top=0;left=0;bottom=0;fillColor=none;align=left;verticalAlign=top;spacingLeft=4;spacingRight=4;overflow=hidden;rotatable=0;points=[];portConstraint=eastwest;part=1;fontSize=12;" vertex="1" connectable="0" parent="uR8plGzVaODxJCpQ0CJ6-153">
          <mxGeometry width="30" height="26" as="geometry"/>
        </mxCell>
        <mxCell id="uR8plGzVaODxJCpQ0CJ6-155" value="登録日" style="shape=partialRectangle;top=0;left=0;right=0;bottom=0;align=left;verticalAlign=top;fillColor=none;spacingLeft=34;spacingRight=4;overflow=hidden;rotatable=0;points=[[0,0.5],[1,0.5]];portConstraint=eastwest;dropTarget=0;fontSize=12;" vertex="1" parent="uR8plGzVaODxJCpQ0CJ6-136">
          <mxGeometry y="268" width="210" height="26" as="geometry"/>
        </mxCell>
        <mxCell id="uR8plGzVaODxJCpQ0CJ6-156" value="" style="shape=partialRectangle;top=0;left=0;bottom=0;fillColor=none;align=left;verticalAlign=top;spacingLeft=4;spacingRight=4;overflow=hidden;rotatable=0;points=[];portConstraint=eastwest;part=1;fontSize=12;" vertex="1" connectable="0" parent="uR8plGzVaODxJCpQ0CJ6-155">
          <mxGeometry width="30" height="26" as="geometry"/>
        </mxCell>
        <mxCell id="uR8plGzVaODxJCpQ0CJ6-157" value="更新日" style="shape=partialRectangle;top=0;left=0;right=0;bottom=0;align=left;verticalAlign=top;fillColor=none;spacingLeft=34;spacingRight=4;overflow=hidden;rotatable=0;points=[[0,0.5],[1,0.5]];portConstraint=eastwest;dropTarget=0;fontSize=12;" vertex="1" parent="uR8plGzVaODxJCpQ0CJ6-136">
          <mxGeometry y="294" width="210" height="26" as="geometry"/>
        </mxCell>
        <mxCell id="uR8plGzVaODxJCpQ0CJ6-158" value="" style="shape=partialRectangle;top=0;left=0;bottom=0;fillColor=none;align=left;verticalAlign=top;spacingLeft=4;spacingRight=4;overflow=hidden;rotatable=0;points=[];portConstraint=eastwest;part=1;fontSize=12;" vertex="1" connectable="0" parent="uR8plGzVaODxJCpQ0CJ6-157">
          <mxGeometry width="30" height="26" as="geometry"/>
        </mxCell>
        <mxCell id="uR8plGzVaODxJCpQ0CJ6-159" value="" style="shape=partialRectangle;top=0;left=0;right=0;bottom=0;align=left;verticalAlign=top;fillColor=none;spacingLeft=34;spacingRight=4;overflow=hidden;rotatable=0;points=[[0,0.5],[1,0.5]];portConstraint=eastwest;dropTarget=0;fontSize=12;" vertex="1" parent="uR8plGzVaODxJCpQ0CJ6-136">
          <mxGeometry y="320" width="210" height="26" as="geometry"/>
        </mxCell>
        <mxCell id="uR8plGzVaODxJCpQ0CJ6-160" value="" style="shape=partialRectangle;top=0;left=0;bottom=0;fillColor=none;align=left;verticalAlign=top;spacingLeft=4;spacingRight=4;overflow=hidden;rotatable=0;points=[];portConstraint=eastwest;part=1;fontSize=12;" vertex="1" connectable="0" parent="uR8plGzVaODxJCpQ0CJ6-159">
          <mxGeometry width="30" height="26" as="geometry"/>
        </mxCell>
        <mxCell id="uR8plGzVaODxJCpQ0CJ6-161" value="" style="shape=partialRectangle;top=0;left=0;right=0;bottom=0;align=left;verticalAlign=top;fillColor=none;spacingLeft=34;spacingRight=4;overflow=hidden;rotatable=0;points=[[0,0.5],[1,0.5]];portConstraint=eastwest;dropTarget=0;fontSize=12;" vertex="1" parent="uR8plGzVaODxJCpQ0CJ6-136">
          <mxGeometry y="346" width="210" height="10" as="geometry"/>
        </mxCell>
        <mxCell id="uR8plGzVaODxJCpQ0CJ6-162" value="" style="shape=partialRectangle;top=0;left=0;bottom=0;fillColor=none;align=left;verticalAlign=top;spacingLeft=4;spacingRight=4;overflow=hidden;rotatable=0;points=[];portConstraint=eastwest;part=1;fontSize=12;" vertex="1" connectable="0" parent="uR8plGzVaODxJCpQ0CJ6-161">
          <mxGeometry width="30" height="10" as="geometry"/>
        </mxCell>
        <mxCell id="uR8plGzVaODxJCpQ0CJ6-163" value="商品ジャンル" style="swimlane;fontStyle=0;childLayout=stackLayout;horizontal=1;startSize=26;fillColor=#e0e0e0;horizontalStack=0;resizeParent=1;resizeParentMax=0;resizeLast=0;collapsible=1;marginBottom=0;swimlaneFillColor=#ffffff;align=center;fontSize=14;" vertex="1" parent="CXHQRFspYruuvfSu5Bny-1">
          <mxGeometry x="550" y="1210" width="210" height="278" as="geometry"/>
        </mxCell>
        <mxCell id="uR8plGzVaODxJCpQ0CJ6-164" value="id" style="shape=partialRectangle;top=0;left=0;right=0;bottom=1;align=left;verticalAlign=middle;fillColor=none;spacingLeft=34;spacingRight=4;overflow=hidden;rotatable=0;points=[[0,0.5],[1,0.5]];portConstraint=eastwest;dropTarget=0;fontStyle=5;fontSize=12;" vertex="1" parent="uR8plGzVaODxJCpQ0CJ6-163">
          <mxGeometry y="26" width="210" height="30" as="geometry"/>
        </mxCell>
        <mxCell id="uR8plGzVaODxJCpQ0CJ6-165" value="PK" style="shape=partialRectangle;top=0;left=0;bottom=0;fillColor=none;align=left;verticalAlign=middle;spacingLeft=4;spacingRight=4;overflow=hidden;rotatable=0;points=[];portConstraint=eastwest;part=1;fontSize=12;" vertex="1" connectable="0" parent="uR8plGzVaODxJCpQ0CJ6-164">
          <mxGeometry width="30" height="30" as="geometry"/>
        </mxCell>
        <mxCell id="uR8plGzVaODxJCpQ0CJ6-166" value="レーベルid" style="shape=partialRectangle;top=0;left=0;right=0;bottom=1;align=left;verticalAlign=middle;fillColor=none;spacingLeft=34;spacingRight=4;overflow=hidden;rotatable=0;points=[[0,0.5],[1,0.5]];portConstraint=eastwest;dropTarget=0;fontStyle=5;fontSize=12;" vertex="1" parent="uR8plGzVaODxJCpQ0CJ6-163">
          <mxGeometry y="56" width="210" height="30" as="geometry"/>
        </mxCell>
        <mxCell id="uR8plGzVaODxJCpQ0CJ6-167" value="PK" style="shape=partialRectangle;top=0;left=0;bottom=0;fillColor=none;align=left;verticalAlign=middle;spacingLeft=4;spacingRight=4;overflow=hidden;rotatable=0;points=[];portConstraint=eastwest;part=1;fontSize=12;" vertex="1" connectable="0" parent="uR8plGzVaODxJCpQ0CJ6-166">
          <mxGeometry width="30" height="30" as="geometry"/>
        </mxCell>
        <mxCell id="uR8plGzVaODxJCpQ0CJ6-168" value="商品名" style="shape=partialRectangle;top=0;left=0;right=0;bottom=0;align=left;verticalAlign=top;fillColor=none;spacingLeft=34;spacingRight=4;overflow=hidden;rotatable=0;points=[[0,0.5],[1,0.5]];portConstraint=eastwest;dropTarget=0;fontSize=12;" vertex="1" parent="uR8plGzVaODxJCpQ0CJ6-163">
          <mxGeometry y="86" width="210" height="26" as="geometry"/>
        </mxCell>
        <mxCell id="uR8plGzVaODxJCpQ0CJ6-169" value="FK" style="shape=partialRectangle;top=0;left=0;bottom=0;fillColor=none;align=left;verticalAlign=top;spacingLeft=4;spacingRight=4;overflow=hidden;rotatable=0;points=[];portConstraint=eastwest;part=1;fontSize=12;" vertex="1" connectable="0" parent="uR8plGzVaODxJCpQ0CJ6-168">
          <mxGeometry width="30" height="26" as="geometry"/>
        </mxCell>
        <mxCell id="uR8plGzVaODxJCpQ0CJ6-170" value="ジャンル名" style="shape=partialRectangle;top=0;left=0;right=0;bottom=0;align=left;verticalAlign=top;fillColor=none;spacingLeft=34;spacingRight=4;overflow=hidden;rotatable=0;points=[[0,0.5],[1,0.5]];portConstraint=eastwest;dropTarget=0;fontSize=12;" vertex="1" parent="uR8plGzVaODxJCpQ0CJ6-163">
          <mxGeometry y="112" width="210" height="26" as="geometry"/>
        </mxCell>
        <mxCell id="uR8plGzVaODxJCpQ0CJ6-171" value="" style="shape=partialRectangle;top=0;left=0;bottom=0;fillColor=none;align=left;verticalAlign=top;spacingLeft=4;spacingRight=4;overflow=hidden;rotatable=0;points=[];portConstraint=eastwest;part=1;fontSize=12;" vertex="1" connectable="0" parent="uR8plGzVaODxJCpQ0CJ6-170">
          <mxGeometry width="30" height="26" as="geometry"/>
        </mxCell>
        <mxCell id="uR8plGzVaODxJCpQ0CJ6-172" value="登録日" style="shape=partialRectangle;top=0;left=0;right=0;bottom=0;align=left;verticalAlign=top;fillColor=none;spacingLeft=34;spacingRight=4;overflow=hidden;rotatable=0;points=[[0,0.5],[1,0.5]];portConstraint=eastwest;dropTarget=0;fontSize=12;" vertex="1" parent="uR8plGzVaODxJCpQ0CJ6-163">
          <mxGeometry y="138" width="210" height="26" as="geometry"/>
        </mxCell>
        <mxCell id="uR8plGzVaODxJCpQ0CJ6-173" value="" style="shape=partialRectangle;top=0;left=0;bottom=0;fillColor=none;align=left;verticalAlign=top;spacingLeft=4;spacingRight=4;overflow=hidden;rotatable=0;points=[];portConstraint=eastwest;part=1;fontSize=12;" vertex="1" connectable="0" parent="uR8plGzVaODxJCpQ0CJ6-172">
          <mxGeometry width="30" height="26" as="geometry"/>
        </mxCell>
        <mxCell id="uR8plGzVaODxJCpQ0CJ6-174" value="更新日" style="shape=partialRectangle;top=0;left=0;right=0;bottom=0;align=left;verticalAlign=top;fillColor=none;spacingLeft=34;spacingRight=4;overflow=hidden;rotatable=0;points=[[0,0.5],[1,0.5]];portConstraint=eastwest;dropTarget=0;fontSize=12;" vertex="1" parent="uR8plGzVaODxJCpQ0CJ6-163">
          <mxGeometry y="164" width="210" height="26" as="geometry"/>
        </mxCell>
        <mxCell id="uR8plGzVaODxJCpQ0CJ6-175" value="" style="shape=partialRectangle;top=0;left=0;bottom=0;fillColor=none;align=left;verticalAlign=top;spacingLeft=4;spacingRight=4;overflow=hidden;rotatable=0;points=[];portConstraint=eastwest;part=1;fontSize=12;" vertex="1" connectable="0" parent="uR8plGzVaODxJCpQ0CJ6-174">
          <mxGeometry width="30" height="26" as="geometry"/>
        </mxCell>
        <mxCell id="uR8plGzVaODxJCpQ0CJ6-176" value="" style="shape=partialRectangle;top=0;left=0;right=0;bottom=0;align=left;verticalAlign=top;fillColor=none;spacingLeft=34;spacingRight=4;overflow=hidden;rotatable=0;points=[[0,0.5],[1,0.5]];portConstraint=eastwest;dropTarget=0;fontSize=12;" vertex="1" parent="uR8plGzVaODxJCpQ0CJ6-163">
          <mxGeometry y="190" width="210" height="26" as="geometry"/>
        </mxCell>
        <mxCell id="uR8plGzVaODxJCpQ0CJ6-177" value="" style="shape=partialRectangle;top=0;left=0;bottom=0;fillColor=none;align=left;verticalAlign=top;spacingLeft=4;spacingRight=4;overflow=hidden;rotatable=0;points=[];portConstraint=eastwest;part=1;fontSize=12;" vertex="1" connectable="0" parent="uR8plGzVaODxJCpQ0CJ6-176">
          <mxGeometry width="30" height="26" as="geometry"/>
        </mxCell>
        <mxCell id="uR8plGzVaODxJCpQ0CJ6-178" value="" style="shape=partialRectangle;top=0;left=0;right=0;bottom=0;align=left;verticalAlign=top;fillColor=none;spacingLeft=34;spacingRight=4;overflow=hidden;rotatable=0;points=[[0,0.5],[1,0.5]];portConstraint=eastwest;dropTarget=0;fontSize=12;" vertex="1" parent="uR8plGzVaODxJCpQ0CJ6-163">
          <mxGeometry y="216" width="210" height="26" as="geometry"/>
        </mxCell>
        <mxCell id="uR8plGzVaODxJCpQ0CJ6-179" value="" style="shape=partialRectangle;top=0;left=0;bottom=0;fillColor=none;align=left;verticalAlign=top;spacingLeft=4;spacingRight=4;overflow=hidden;rotatable=0;points=[];portConstraint=eastwest;part=1;fontSize=12;" vertex="1" connectable="0" parent="uR8plGzVaODxJCpQ0CJ6-178">
          <mxGeometry width="30" height="26" as="geometry"/>
        </mxCell>
        <mxCell id="uR8plGzVaODxJCpQ0CJ6-180" value="" style="shape=partialRectangle;top=0;left=0;right=0;bottom=0;align=left;verticalAlign=top;fillColor=none;spacingLeft=34;spacingRight=4;overflow=hidden;rotatable=0;points=[[0,0.5],[1,0.5]];portConstraint=eastwest;dropTarget=0;fontSize=12;" vertex="1" parent="uR8plGzVaODxJCpQ0CJ6-163">
          <mxGeometry y="242" width="210" height="26" as="geometry"/>
        </mxCell>
        <mxCell id="uR8plGzVaODxJCpQ0CJ6-181" value="" style="shape=partialRectangle;top=0;left=0;bottom=0;fillColor=none;align=left;verticalAlign=top;spacingLeft=4;spacingRight=4;overflow=hidden;rotatable=0;points=[];portConstraint=eastwest;part=1;fontSize=12;" vertex="1" connectable="0" parent="uR8plGzVaODxJCpQ0CJ6-180">
          <mxGeometry width="30" height="26" as="geometry"/>
        </mxCell>
        <mxCell id="uR8plGzVaODxJCpQ0CJ6-182" value="" style="shape=partialRectangle;top=0;left=0;right=0;bottom=0;align=left;verticalAlign=top;fillColor=none;spacingLeft=34;spacingRight=4;overflow=hidden;rotatable=0;points=[[0,0.5],[1,0.5]];portConstraint=eastwest;dropTarget=0;fontSize=12;" vertex="1" parent="uR8plGzVaODxJCpQ0CJ6-163">
          <mxGeometry y="268" width="210" height="10" as="geometry"/>
        </mxCell>
        <mxCell id="uR8plGzVaODxJCpQ0CJ6-183" value="" style="shape=partialRectangle;top=0;left=0;bottom=0;fillColor=none;align=left;verticalAlign=top;spacingLeft=4;spacingRight=4;overflow=hidden;rotatable=0;points=[];portConstraint=eastwest;part=1;fontSize=12;" vertex="1" connectable="0" parent="uR8plGzVaODxJCpQ0CJ6-182">
          <mxGeometry width="30" height="10" as="geometry"/>
        </mxCell>
      </root>
    </mxGraphModel>
  </diagram>
  <diagram name="第二正規形" id="TmBvsdkt6AhrZPIOR218">
    <mxGraphModel dx="872" dy="513" grid="1" gridSize="10" guides="1" tooltips="1" connect="1" arrows="1" fold="1" page="1" pageScale="1" pageWidth="827" pageHeight="1169" math="0" shadow="0">
      <root>
        <mxCell id="W5t7xiPyPmhx_EyZzCJJ-0"/>
        <mxCell id="W5t7xiPyPmhx_EyZzCJJ-1" parent="W5t7xiPyPmhx_EyZzCJJ-0"/>
      </root>
    </mxGraphModel>
  </diagram>
  <diagram name="第三正規形" id="ov4K156mlCNRfELh3zGZ">
    <mxGraphModel dx="872" dy="513" grid="1" gridSize="10" guides="1" tooltips="1" connect="1" arrows="1" fold="1" page="1" pageScale="1" pageWidth="827" pageHeight="1169" math="0" shadow="0">
      <root>
        <mxCell id="eI2m3AjRxdhnGuyZCsn6-0"/>
        <mxCell id="eI2m3AjRxdhnGuyZCsn6-1" parent="eI2m3AjRxdhnGuyZCsn6-0"/>
      </root>
    </mxGraphModel>
  </diagram>
</mxfile>
